%TF.GenerationSoftware,KiCad,Pcbnew,8.0.7*%
%TF.CreationDate,2025-01-30T16:21:02+01:00*%
%TF.ProjectId,schematics,73636865-6d61-4746-9963-732e6b696361,rev?*%
%TF.SameCoordinates,Original*%
%TF.FileFunction,Drillmap*%
%TF.FilePolarity,Positive*%
%FSLAX45Y45*%
G04 Gerber Fmt 4.5, Leading zero omitted, Abs format (unit mm)*
G04 Created by KiCad (PCBNEW 8.0.7) date 2025-01-30 16:21:02*
%MOMM*%
%LPD*%
G01*
G04 APERTURE LIST*
%ADD10C,0.050000*%
%ADD11C,0.200000*%
%ADD12C,0.100000*%
%ADD13C,0.110000*%
G04 APERTURE END LIST*
D10*
X11800000Y-4800000D02*
X17500000Y-4800000D01*
X11750000Y-4800000D02*
X11800000Y-4800000D01*
X17500000Y-8100000D02*
X11750000Y-8100000D01*
X17500000Y-4800000D02*
X17500000Y-8100000D01*
X11750000Y-8100000D02*
X11750000Y-4800000D01*
D11*
D12*
X11885000Y-6535000D02*
X11915000Y-6565000D01*
X11915000Y-6535000D02*
X11885000Y-6565000D01*
X11900426Y-6369573D02*
X11930426Y-6399573D01*
X11930426Y-6369573D02*
X11900426Y-6399573D01*
X12620000Y-6485000D02*
X12650000Y-6515000D01*
X12650000Y-6485000D02*
X12620000Y-6515000D01*
X12750000Y-6485000D02*
X12780000Y-6515000D01*
X12780000Y-6485000D02*
X12750000Y-6515000D01*
X12935000Y-5985000D02*
X12965000Y-6015000D01*
X12965000Y-5985000D02*
X12935000Y-6015000D01*
X12985000Y-5035000D02*
X13015000Y-5065000D01*
X13015000Y-5035000D02*
X12985000Y-5065000D01*
X12985000Y-7785000D02*
X13015000Y-7815000D01*
X13015000Y-7785000D02*
X12985000Y-7815000D01*
X13085000Y-6585000D02*
X13115000Y-6615000D01*
X13115000Y-6585000D02*
X13085000Y-6615000D01*
X13135000Y-6085000D02*
X13165000Y-6115000D01*
X13165000Y-6085000D02*
X13135000Y-6115000D01*
X13135000Y-6285000D02*
X13165000Y-6315000D01*
X13165000Y-6285000D02*
X13135000Y-6315000D01*
X13135000Y-6935000D02*
X13165000Y-6965000D01*
X13165000Y-6935000D02*
X13135000Y-6965000D01*
X13135000Y-7285000D02*
X13165000Y-7315000D01*
X13165000Y-7285000D02*
X13135000Y-7315000D01*
X13172573Y-5897426D02*
X13202573Y-5927426D01*
X13202573Y-5897426D02*
X13172573Y-5927426D01*
X13285000Y-5785000D02*
X13315000Y-5815000D01*
X13315000Y-5785000D02*
X13285000Y-5815000D01*
X13385000Y-6435000D02*
X13415000Y-6465000D01*
X13415000Y-6435000D02*
X13385000Y-6465000D01*
X13485000Y-5185000D02*
X13515000Y-5215000D01*
X13515000Y-5185000D02*
X13485000Y-5215000D01*
X13485000Y-7435000D02*
X13515000Y-7465000D01*
X13515000Y-7435000D02*
X13485000Y-7465000D01*
X13528323Y-6678323D02*
X13558323Y-6708323D01*
X13558323Y-6678323D02*
X13528323Y-6708323D01*
X13535000Y-4935000D02*
X13565000Y-4965000D01*
X13565000Y-4935000D02*
X13535000Y-4965000D01*
X13535000Y-6085000D02*
X13565000Y-6115000D01*
X13565000Y-6085000D02*
X13535000Y-6115000D01*
X13535000Y-6885000D02*
X13565000Y-6915000D01*
X13565000Y-6885000D02*
X13535000Y-6915000D01*
X13585000Y-6285000D02*
X13615000Y-6315000D01*
X13615000Y-6285000D02*
X13585000Y-6315000D01*
X13585000Y-7035000D02*
X13615000Y-7065000D01*
X13615000Y-7035000D02*
X13585000Y-7065000D01*
X13635000Y-7585000D02*
X13665000Y-7615000D01*
X13665000Y-7585000D02*
X13635000Y-7615000D01*
X13935000Y-6685000D02*
X13965000Y-6715000D01*
X13965000Y-6685000D02*
X13935000Y-6715000D01*
X13935000Y-7035000D02*
X13965000Y-7065000D01*
X13965000Y-7035000D02*
X13935000Y-7065000D01*
X14485000Y-6985000D02*
X14515000Y-7015000D01*
X14515000Y-6985000D02*
X14485000Y-7015000D01*
X14535000Y-5035000D02*
X14565000Y-5065000D01*
X14565000Y-5035000D02*
X14535000Y-5065000D01*
X14535000Y-5985000D02*
X14565000Y-6015000D01*
X14565000Y-5985000D02*
X14535000Y-6015000D01*
X14685000Y-5335000D02*
X14715000Y-5365000D01*
X14715000Y-5335000D02*
X14685000Y-5365000D01*
X14985000Y-7035000D02*
X15015000Y-7065000D01*
X15015000Y-7035000D02*
X14985000Y-7065000D01*
X15085000Y-6035000D02*
X15115000Y-6065000D01*
X15115000Y-6035000D02*
X15085000Y-6065000D01*
X15135000Y-5485000D02*
X15165000Y-5515000D01*
X15165000Y-5485000D02*
X15135000Y-5515000D01*
X15185000Y-5335000D02*
X15215000Y-5365000D01*
X15215000Y-5335000D02*
X15185000Y-5365000D01*
X15285000Y-6085000D02*
X15315000Y-6115000D01*
X15315000Y-6085000D02*
X15285000Y-6115000D01*
X15285000Y-7135000D02*
X15315000Y-7165000D01*
X15315000Y-7135000D02*
X15285000Y-7165000D01*
X15335000Y-5635000D02*
X15365000Y-5665000D01*
X15365000Y-5635000D02*
X15335000Y-5665000D01*
X15385000Y-7035000D02*
X15415000Y-7065000D01*
X15415000Y-7035000D02*
X15385000Y-7065000D01*
X15535000Y-6935000D02*
X15565000Y-6965000D01*
X15565000Y-6935000D02*
X15535000Y-6965000D01*
X15535000Y-7235000D02*
X15565000Y-7265000D01*
X15565000Y-7235000D02*
X15535000Y-7265000D01*
X15735000Y-6435000D02*
X15765000Y-6465000D01*
X15765000Y-6435000D02*
X15735000Y-6465000D01*
X15885000Y-6585000D02*
X15915000Y-6615000D01*
X15915000Y-6585000D02*
X15885000Y-6615000D01*
X12585000Y-5100000D02*
G75*
G02*
X12515000Y-5100000I-35000J0D01*
G01*
X12515000Y-5100000D02*
G75*
G02*
X12585000Y-5100000I35000J0D01*
G01*
X12585000Y-5300000D02*
G75*
G02*
X12515000Y-5300000I-35000J0D01*
G01*
X12515000Y-5300000D02*
G75*
G02*
X12585000Y-5300000I35000J0D01*
G01*
X14985000Y-5021000D02*
G75*
G02*
X14915000Y-5021000I-35000J0D01*
G01*
X14915000Y-5021000D02*
G75*
G02*
X14985000Y-5021000I35000J0D01*
G01*
X14985000Y-5221000D02*
G75*
G02*
X14915000Y-5221000I-35000J0D01*
G01*
X14915000Y-5221000D02*
G75*
G02*
X14985000Y-5221000I35000J0D01*
G01*
X12005000Y-5275000D02*
X12005000Y-5355000D01*
X11965000Y-5315000D02*
X12045000Y-5315000D01*
X12005000Y-5475000D02*
X12005000Y-5555000D01*
X11965000Y-5515000D02*
X12045000Y-5515000D01*
X12315000Y-7760000D02*
X12315000Y-7840000D01*
X12275000Y-7800000D02*
X12355000Y-7800000D01*
X12515000Y-7760000D02*
X12515000Y-7840000D01*
X12475000Y-7800000D02*
X12555000Y-7800000D01*
X12625000Y-5885000D02*
X12625000Y-5965000D01*
X12585000Y-5925000D02*
X12665000Y-5925000D01*
X12625000Y-6085000D02*
X12625000Y-6165000D01*
X12585000Y-6125000D02*
X12665000Y-6125000D01*
X12625000Y-6285000D02*
X12625000Y-6365000D01*
X12585000Y-6325000D02*
X12665000Y-6325000D01*
X13350000Y-7810000D02*
X13350000Y-7890000D01*
X13310000Y-7850000D02*
X13390000Y-7850000D01*
X13550000Y-7810000D02*
X13550000Y-7890000D01*
X13510000Y-7850000D02*
X13590000Y-7850000D01*
X13750000Y-7810000D02*
X13750000Y-7890000D01*
X13710000Y-7850000D02*
X13790000Y-7850000D01*
X15400000Y-5110000D02*
X15400000Y-5190000D01*
X15360000Y-5150000D02*
X15440000Y-5150000D01*
X15600000Y-5110000D02*
X15600000Y-5190000D01*
X15560000Y-5150000D02*
X15640000Y-5150000D01*
X15800000Y-5110000D02*
X15800000Y-5190000D01*
X15760000Y-5150000D02*
X15840000Y-5150000D01*
X16245000Y-5359000D02*
X16245000Y-5439000D01*
X16205000Y-5399000D02*
X16285000Y-5399000D01*
X16245000Y-5613000D02*
X16245000Y-5693000D01*
X16205000Y-5653000D02*
X16285000Y-5653000D01*
X16245000Y-5867000D02*
X16245000Y-5947000D01*
X16205000Y-5907000D02*
X16285000Y-5907000D01*
X16245000Y-6121000D02*
X16245000Y-6201000D01*
X16205000Y-6161000D02*
X16285000Y-6161000D01*
X16499000Y-5359000D02*
X16499000Y-5439000D01*
X16459000Y-5399000D02*
X16539000Y-5399000D01*
X16499000Y-5613000D02*
X16499000Y-5693000D01*
X16459000Y-5653000D02*
X16539000Y-5653000D01*
X16499000Y-5867000D02*
X16499000Y-5947000D01*
X16459000Y-5907000D02*
X16539000Y-5907000D01*
X16499000Y-6121000D02*
X16499000Y-6201000D01*
X16459000Y-6161000D02*
X16539000Y-6161000D01*
D13*
X12188891Y-5980891D02*
X12188891Y-5903109D01*
X12111109Y-5903109D01*
X12111109Y-5980891D01*
X12188891Y-5980891D01*
X12188891Y-6234891D02*
X12188891Y-6157109D01*
X12111109Y-6157109D01*
X12111109Y-6234891D01*
X12188891Y-6234891D01*
X12188891Y-6488891D02*
X12188891Y-6411109D01*
X12111109Y-6411109D01*
X12111109Y-6488891D01*
X12188891Y-6488891D01*
X12188891Y-6742891D02*
X12188891Y-6665109D01*
X12111109Y-6665109D01*
X12111109Y-6742891D01*
X12188891Y-6742891D01*
X12188891Y-6996891D02*
X12188891Y-6919109D01*
X12111109Y-6919109D01*
X12111109Y-6996891D01*
X12188891Y-6996891D01*
X14976891Y-7888891D02*
X14976891Y-7811109D01*
X14899109Y-7811109D01*
X14899109Y-7888891D01*
X14976891Y-7888891D01*
X15230891Y-7888891D02*
X15230891Y-7811109D01*
X15153109Y-7811109D01*
X15153109Y-7888891D01*
X15230891Y-7888891D01*
X15484891Y-7888891D02*
X15484891Y-7811109D01*
X15407109Y-7811109D01*
X15407109Y-7888891D01*
X15484891Y-7888891D01*
X15738891Y-7888891D02*
X15738891Y-7811109D01*
X15661109Y-7811109D01*
X15661109Y-7888891D01*
X15738891Y-7888891D01*
X15992891Y-7888891D02*
X15992891Y-7811109D01*
X15915109Y-7811109D01*
X15915109Y-7888891D01*
X15992891Y-7888891D01*
D11*
X11995000Y-7950000D02*
X12095000Y-7850000D01*
X11995000Y-7750000D01*
X11895000Y-7850000D01*
X11995000Y-7950000D01*
X12005000Y-5120000D02*
X12105000Y-5020000D01*
X12005000Y-4920000D01*
X11905000Y-5020000D01*
X12005000Y-5120000D01*
X17245000Y-7940000D02*
X17345000Y-7840000D01*
X17245000Y-7740000D01*
X17145000Y-7840000D01*
X17245000Y-7940000D01*
X17255000Y-5140000D02*
X17355000Y-5040000D01*
X17255000Y-4940000D01*
X17155000Y-5040000D01*
X17255000Y-5140000D01*
X12008277Y-8413984D02*
X12008277Y-8213984D01*
X12008277Y-8213984D02*
X12055896Y-8213984D01*
X12055896Y-8213984D02*
X12084467Y-8223508D01*
X12084467Y-8223508D02*
X12103515Y-8242555D01*
X12103515Y-8242555D02*
X12113039Y-8261603D01*
X12113039Y-8261603D02*
X12122562Y-8299698D01*
X12122562Y-8299698D02*
X12122562Y-8328269D01*
X12122562Y-8328269D02*
X12113039Y-8366365D01*
X12113039Y-8366365D02*
X12103515Y-8385412D01*
X12103515Y-8385412D02*
X12084467Y-8404460D01*
X12084467Y-8404460D02*
X12055896Y-8413984D01*
X12055896Y-8413984D02*
X12008277Y-8413984D01*
X12208277Y-8413984D02*
X12208277Y-8280650D01*
X12208277Y-8318746D02*
X12217801Y-8299698D01*
X12217801Y-8299698D02*
X12227324Y-8290174D01*
X12227324Y-8290174D02*
X12246372Y-8280650D01*
X12246372Y-8280650D02*
X12265420Y-8280650D01*
X12332086Y-8413984D02*
X12332086Y-8280650D01*
X12332086Y-8213984D02*
X12322562Y-8223508D01*
X12322562Y-8223508D02*
X12332086Y-8233031D01*
X12332086Y-8233031D02*
X12341610Y-8223508D01*
X12341610Y-8223508D02*
X12332086Y-8213984D01*
X12332086Y-8213984D02*
X12332086Y-8233031D01*
X12455896Y-8413984D02*
X12436848Y-8404460D01*
X12436848Y-8404460D02*
X12427324Y-8385412D01*
X12427324Y-8385412D02*
X12427324Y-8213984D01*
X12560658Y-8413984D02*
X12541610Y-8404460D01*
X12541610Y-8404460D02*
X12532086Y-8385412D01*
X12532086Y-8385412D02*
X12532086Y-8213984D01*
X12789229Y-8413984D02*
X12789229Y-8213984D01*
X12789229Y-8213984D02*
X12855896Y-8356841D01*
X12855896Y-8356841D02*
X12922562Y-8213984D01*
X12922562Y-8213984D02*
X12922562Y-8413984D01*
X13103515Y-8413984D02*
X13103515Y-8309222D01*
X13103515Y-8309222D02*
X13093991Y-8290174D01*
X13093991Y-8290174D02*
X13074943Y-8280650D01*
X13074943Y-8280650D02*
X13036848Y-8280650D01*
X13036848Y-8280650D02*
X13017801Y-8290174D01*
X13103515Y-8404460D02*
X13084467Y-8413984D01*
X13084467Y-8413984D02*
X13036848Y-8413984D01*
X13036848Y-8413984D02*
X13017801Y-8404460D01*
X13017801Y-8404460D02*
X13008277Y-8385412D01*
X13008277Y-8385412D02*
X13008277Y-8366365D01*
X13008277Y-8366365D02*
X13017801Y-8347317D01*
X13017801Y-8347317D02*
X13036848Y-8337793D01*
X13036848Y-8337793D02*
X13084467Y-8337793D01*
X13084467Y-8337793D02*
X13103515Y-8328269D01*
X13198753Y-8280650D02*
X13198753Y-8480650D01*
X13198753Y-8290174D02*
X13217801Y-8280650D01*
X13217801Y-8280650D02*
X13255896Y-8280650D01*
X13255896Y-8280650D02*
X13274943Y-8290174D01*
X13274943Y-8290174D02*
X13284467Y-8299698D01*
X13284467Y-8299698D02*
X13293991Y-8318746D01*
X13293991Y-8318746D02*
X13293991Y-8375888D01*
X13293991Y-8375888D02*
X13284467Y-8394936D01*
X13284467Y-8394936D02*
X13274943Y-8404460D01*
X13274943Y-8404460D02*
X13255896Y-8413984D01*
X13255896Y-8413984D02*
X13217801Y-8413984D01*
X13217801Y-8413984D02*
X13198753Y-8404460D01*
X13379705Y-8394936D02*
X13389229Y-8404460D01*
X13389229Y-8404460D02*
X13379705Y-8413984D01*
X13379705Y-8413984D02*
X13370182Y-8404460D01*
X13370182Y-8404460D02*
X13379705Y-8394936D01*
X13379705Y-8394936D02*
X13379705Y-8413984D01*
X13379705Y-8290174D02*
X13389229Y-8299698D01*
X13389229Y-8299698D02*
X13379705Y-8309222D01*
X13379705Y-8309222D02*
X13370182Y-8299698D01*
X13370182Y-8299698D02*
X13379705Y-8290174D01*
X13379705Y-8290174D02*
X13379705Y-8309222D01*
D12*
X11717500Y-8727500D02*
X11747500Y-8757500D01*
X11747500Y-8727500D02*
X11717500Y-8757500D01*
D11*
X12046372Y-8633984D02*
X12065420Y-8633984D01*
X12065420Y-8633984D02*
X12084467Y-8643508D01*
X12084467Y-8643508D02*
X12093991Y-8653031D01*
X12093991Y-8653031D02*
X12103515Y-8672079D01*
X12103515Y-8672079D02*
X12113039Y-8710174D01*
X12113039Y-8710174D02*
X12113039Y-8757793D01*
X12113039Y-8757793D02*
X12103515Y-8795889D01*
X12103515Y-8795889D02*
X12093991Y-8814936D01*
X12093991Y-8814936D02*
X12084467Y-8824460D01*
X12084467Y-8824460D02*
X12065420Y-8833984D01*
X12065420Y-8833984D02*
X12046372Y-8833984D01*
X12046372Y-8833984D02*
X12027324Y-8824460D01*
X12027324Y-8824460D02*
X12017801Y-8814936D01*
X12017801Y-8814936D02*
X12008277Y-8795889D01*
X12008277Y-8795889D02*
X11998753Y-8757793D01*
X11998753Y-8757793D02*
X11998753Y-8710174D01*
X11998753Y-8710174D02*
X12008277Y-8672079D01*
X12008277Y-8672079D02*
X12017801Y-8653031D01*
X12017801Y-8653031D02*
X12027324Y-8643508D01*
X12027324Y-8643508D02*
X12046372Y-8633984D01*
X12198753Y-8814936D02*
X12208277Y-8824460D01*
X12208277Y-8824460D02*
X12198753Y-8833984D01*
X12198753Y-8833984D02*
X12189229Y-8824460D01*
X12189229Y-8824460D02*
X12198753Y-8814936D01*
X12198753Y-8814936D02*
X12198753Y-8833984D01*
X12274943Y-8633984D02*
X12398753Y-8633984D01*
X12398753Y-8633984D02*
X12332086Y-8710174D01*
X12332086Y-8710174D02*
X12360658Y-8710174D01*
X12360658Y-8710174D02*
X12379705Y-8719698D01*
X12379705Y-8719698D02*
X12389229Y-8729222D01*
X12389229Y-8729222D02*
X12398753Y-8748270D01*
X12398753Y-8748270D02*
X12398753Y-8795889D01*
X12398753Y-8795889D02*
X12389229Y-8814936D01*
X12389229Y-8814936D02*
X12379705Y-8824460D01*
X12379705Y-8824460D02*
X12360658Y-8833984D01*
X12360658Y-8833984D02*
X12303515Y-8833984D01*
X12303515Y-8833984D02*
X12284467Y-8824460D01*
X12284467Y-8824460D02*
X12274943Y-8814936D01*
X12522562Y-8633984D02*
X12541610Y-8633984D01*
X12541610Y-8633984D02*
X12560658Y-8643508D01*
X12560658Y-8643508D02*
X12570182Y-8653031D01*
X12570182Y-8653031D02*
X12579705Y-8672079D01*
X12579705Y-8672079D02*
X12589229Y-8710174D01*
X12589229Y-8710174D02*
X12589229Y-8757793D01*
X12589229Y-8757793D02*
X12579705Y-8795889D01*
X12579705Y-8795889D02*
X12570182Y-8814936D01*
X12570182Y-8814936D02*
X12560658Y-8824460D01*
X12560658Y-8824460D02*
X12541610Y-8833984D01*
X12541610Y-8833984D02*
X12522562Y-8833984D01*
X12522562Y-8833984D02*
X12503515Y-8824460D01*
X12503515Y-8824460D02*
X12493991Y-8814936D01*
X12493991Y-8814936D02*
X12484467Y-8795889D01*
X12484467Y-8795889D02*
X12474943Y-8757793D01*
X12474943Y-8757793D02*
X12474943Y-8710174D01*
X12474943Y-8710174D02*
X12484467Y-8672079D01*
X12484467Y-8672079D02*
X12493991Y-8653031D01*
X12493991Y-8653031D02*
X12503515Y-8643508D01*
X12503515Y-8643508D02*
X12522562Y-8633984D01*
X12713039Y-8633984D02*
X12732086Y-8633984D01*
X12732086Y-8633984D02*
X12751134Y-8643508D01*
X12751134Y-8643508D02*
X12760658Y-8653031D01*
X12760658Y-8653031D02*
X12770182Y-8672079D01*
X12770182Y-8672079D02*
X12779705Y-8710174D01*
X12779705Y-8710174D02*
X12779705Y-8757793D01*
X12779705Y-8757793D02*
X12770182Y-8795889D01*
X12770182Y-8795889D02*
X12760658Y-8814936D01*
X12760658Y-8814936D02*
X12751134Y-8824460D01*
X12751134Y-8824460D02*
X12732086Y-8833984D01*
X12732086Y-8833984D02*
X12713039Y-8833984D01*
X12713039Y-8833984D02*
X12693991Y-8824460D01*
X12693991Y-8824460D02*
X12684467Y-8814936D01*
X12684467Y-8814936D02*
X12674943Y-8795889D01*
X12674943Y-8795889D02*
X12665420Y-8757793D01*
X12665420Y-8757793D02*
X12665420Y-8710174D01*
X12665420Y-8710174D02*
X12674943Y-8672079D01*
X12674943Y-8672079D02*
X12684467Y-8653031D01*
X12684467Y-8653031D02*
X12693991Y-8643508D01*
X12693991Y-8643508D02*
X12713039Y-8633984D01*
X12865420Y-8833984D02*
X12865420Y-8700650D01*
X12865420Y-8719698D02*
X12874943Y-8710174D01*
X12874943Y-8710174D02*
X12893991Y-8700650D01*
X12893991Y-8700650D02*
X12922563Y-8700650D01*
X12922563Y-8700650D02*
X12941610Y-8710174D01*
X12941610Y-8710174D02*
X12951134Y-8729222D01*
X12951134Y-8729222D02*
X12951134Y-8833984D01*
X12951134Y-8729222D02*
X12960658Y-8710174D01*
X12960658Y-8710174D02*
X12979705Y-8700650D01*
X12979705Y-8700650D02*
X13008277Y-8700650D01*
X13008277Y-8700650D02*
X13027324Y-8710174D01*
X13027324Y-8710174D02*
X13036848Y-8729222D01*
X13036848Y-8729222D02*
X13036848Y-8833984D01*
X13132086Y-8833984D02*
X13132086Y-8700650D01*
X13132086Y-8719698D02*
X13141610Y-8710174D01*
X13141610Y-8710174D02*
X13160658Y-8700650D01*
X13160658Y-8700650D02*
X13189229Y-8700650D01*
X13189229Y-8700650D02*
X13208277Y-8710174D01*
X13208277Y-8710174D02*
X13217801Y-8729222D01*
X13217801Y-8729222D02*
X13217801Y-8833984D01*
X13217801Y-8729222D02*
X13227324Y-8710174D01*
X13227324Y-8710174D02*
X13246372Y-8700650D01*
X13246372Y-8700650D02*
X13274943Y-8700650D01*
X13274943Y-8700650D02*
X13293991Y-8710174D01*
X13293991Y-8710174D02*
X13303515Y-8729222D01*
X13303515Y-8729222D02*
X13303515Y-8833984D01*
X13693991Y-8624460D02*
X13522563Y-8881603D01*
X13951134Y-8633984D02*
X13970182Y-8633984D01*
X13970182Y-8633984D02*
X13989229Y-8643508D01*
X13989229Y-8643508D02*
X13998753Y-8653031D01*
X13998753Y-8653031D02*
X14008277Y-8672079D01*
X14008277Y-8672079D02*
X14017801Y-8710174D01*
X14017801Y-8710174D02*
X14017801Y-8757793D01*
X14017801Y-8757793D02*
X14008277Y-8795889D01*
X14008277Y-8795889D02*
X13998753Y-8814936D01*
X13998753Y-8814936D02*
X13989229Y-8824460D01*
X13989229Y-8824460D02*
X13970182Y-8833984D01*
X13970182Y-8833984D02*
X13951134Y-8833984D01*
X13951134Y-8833984D02*
X13932086Y-8824460D01*
X13932086Y-8824460D02*
X13922563Y-8814936D01*
X13922563Y-8814936D02*
X13913039Y-8795889D01*
X13913039Y-8795889D02*
X13903515Y-8757793D01*
X13903515Y-8757793D02*
X13903515Y-8710174D01*
X13903515Y-8710174D02*
X13913039Y-8672079D01*
X13913039Y-8672079D02*
X13922563Y-8653031D01*
X13922563Y-8653031D02*
X13932086Y-8643508D01*
X13932086Y-8643508D02*
X13951134Y-8633984D01*
X14103515Y-8814936D02*
X14113039Y-8824460D01*
X14113039Y-8824460D02*
X14103515Y-8833984D01*
X14103515Y-8833984D02*
X14093991Y-8824460D01*
X14093991Y-8824460D02*
X14103515Y-8814936D01*
X14103515Y-8814936D02*
X14103515Y-8833984D01*
X14236848Y-8633984D02*
X14255896Y-8633984D01*
X14255896Y-8633984D02*
X14274944Y-8643508D01*
X14274944Y-8643508D02*
X14284467Y-8653031D01*
X14284467Y-8653031D02*
X14293991Y-8672079D01*
X14293991Y-8672079D02*
X14303515Y-8710174D01*
X14303515Y-8710174D02*
X14303515Y-8757793D01*
X14303515Y-8757793D02*
X14293991Y-8795889D01*
X14293991Y-8795889D02*
X14284467Y-8814936D01*
X14284467Y-8814936D02*
X14274944Y-8824460D01*
X14274944Y-8824460D02*
X14255896Y-8833984D01*
X14255896Y-8833984D02*
X14236848Y-8833984D01*
X14236848Y-8833984D02*
X14217801Y-8824460D01*
X14217801Y-8824460D02*
X14208277Y-8814936D01*
X14208277Y-8814936D02*
X14198753Y-8795889D01*
X14198753Y-8795889D02*
X14189229Y-8757793D01*
X14189229Y-8757793D02*
X14189229Y-8710174D01*
X14189229Y-8710174D02*
X14198753Y-8672079D01*
X14198753Y-8672079D02*
X14208277Y-8653031D01*
X14208277Y-8653031D02*
X14217801Y-8643508D01*
X14217801Y-8643508D02*
X14236848Y-8633984D01*
X14493991Y-8833984D02*
X14379706Y-8833984D01*
X14436848Y-8833984D02*
X14436848Y-8633984D01*
X14436848Y-8633984D02*
X14417801Y-8662555D01*
X14417801Y-8662555D02*
X14398753Y-8681603D01*
X14398753Y-8681603D02*
X14379706Y-8691127D01*
X14684467Y-8833984D02*
X14570182Y-8833984D01*
X14627325Y-8833984D02*
X14627325Y-8633984D01*
X14627325Y-8633984D02*
X14608277Y-8662555D01*
X14608277Y-8662555D02*
X14589229Y-8681603D01*
X14589229Y-8681603D02*
X14570182Y-8691127D01*
X14798753Y-8719698D02*
X14779706Y-8710174D01*
X14779706Y-8710174D02*
X14770182Y-8700650D01*
X14770182Y-8700650D02*
X14760658Y-8681603D01*
X14760658Y-8681603D02*
X14760658Y-8672079D01*
X14760658Y-8672079D02*
X14770182Y-8653031D01*
X14770182Y-8653031D02*
X14779706Y-8643508D01*
X14779706Y-8643508D02*
X14798753Y-8633984D01*
X14798753Y-8633984D02*
X14836848Y-8633984D01*
X14836848Y-8633984D02*
X14855896Y-8643508D01*
X14855896Y-8643508D02*
X14865420Y-8653031D01*
X14865420Y-8653031D02*
X14874944Y-8672079D01*
X14874944Y-8672079D02*
X14874944Y-8681603D01*
X14874944Y-8681603D02*
X14865420Y-8700650D01*
X14865420Y-8700650D02*
X14855896Y-8710174D01*
X14855896Y-8710174D02*
X14836848Y-8719698D01*
X14836848Y-8719698D02*
X14798753Y-8719698D01*
X14798753Y-8719698D02*
X14779706Y-8729222D01*
X14779706Y-8729222D02*
X14770182Y-8738746D01*
X14770182Y-8738746D02*
X14760658Y-8757793D01*
X14760658Y-8757793D02*
X14760658Y-8795889D01*
X14760658Y-8795889D02*
X14770182Y-8814936D01*
X14770182Y-8814936D02*
X14779706Y-8824460D01*
X14779706Y-8824460D02*
X14798753Y-8833984D01*
X14798753Y-8833984D02*
X14836848Y-8833984D01*
X14836848Y-8833984D02*
X14855896Y-8824460D01*
X14855896Y-8824460D02*
X14865420Y-8814936D01*
X14865420Y-8814936D02*
X14874944Y-8795889D01*
X14874944Y-8795889D02*
X14874944Y-8757793D01*
X14874944Y-8757793D02*
X14865420Y-8738746D01*
X14865420Y-8738746D02*
X14855896Y-8729222D01*
X14855896Y-8729222D02*
X14836848Y-8719698D01*
X14951134Y-8633984D02*
X14951134Y-8672079D01*
X15027325Y-8633984D02*
X15027325Y-8672079D01*
X15322563Y-8910174D02*
X15313039Y-8900650D01*
X15313039Y-8900650D02*
X15293991Y-8872079D01*
X15293991Y-8872079D02*
X15284468Y-8853031D01*
X15284468Y-8853031D02*
X15274944Y-8824460D01*
X15274944Y-8824460D02*
X15265420Y-8776841D01*
X15265420Y-8776841D02*
X15265420Y-8738746D01*
X15265420Y-8738746D02*
X15274944Y-8691127D01*
X15274944Y-8691127D02*
X15284468Y-8662555D01*
X15284468Y-8662555D02*
X15293991Y-8643508D01*
X15293991Y-8643508D02*
X15313039Y-8614936D01*
X15313039Y-8614936D02*
X15322563Y-8605412D01*
X15484468Y-8700650D02*
X15484468Y-8833984D01*
X15436848Y-8624460D02*
X15389229Y-8767317D01*
X15389229Y-8767317D02*
X15513039Y-8767317D01*
X15579706Y-8653031D02*
X15589229Y-8643508D01*
X15589229Y-8643508D02*
X15608277Y-8633984D01*
X15608277Y-8633984D02*
X15655896Y-8633984D01*
X15655896Y-8633984D02*
X15674944Y-8643508D01*
X15674944Y-8643508D02*
X15684468Y-8653031D01*
X15684468Y-8653031D02*
X15693991Y-8672079D01*
X15693991Y-8672079D02*
X15693991Y-8691127D01*
X15693991Y-8691127D02*
X15684468Y-8719698D01*
X15684468Y-8719698D02*
X15570182Y-8833984D01*
X15570182Y-8833984D02*
X15693991Y-8833984D01*
X15932087Y-8833984D02*
X15932087Y-8633984D01*
X16017801Y-8833984D02*
X16017801Y-8729222D01*
X16017801Y-8729222D02*
X16008277Y-8710174D01*
X16008277Y-8710174D02*
X15989230Y-8700650D01*
X15989230Y-8700650D02*
X15960658Y-8700650D01*
X15960658Y-8700650D02*
X15941610Y-8710174D01*
X15941610Y-8710174D02*
X15932087Y-8719698D01*
X16141610Y-8833984D02*
X16122563Y-8824460D01*
X16122563Y-8824460D02*
X16113039Y-8814936D01*
X16113039Y-8814936D02*
X16103515Y-8795889D01*
X16103515Y-8795889D02*
X16103515Y-8738746D01*
X16103515Y-8738746D02*
X16113039Y-8719698D01*
X16113039Y-8719698D02*
X16122563Y-8710174D01*
X16122563Y-8710174D02*
X16141610Y-8700650D01*
X16141610Y-8700650D02*
X16170182Y-8700650D01*
X16170182Y-8700650D02*
X16189230Y-8710174D01*
X16189230Y-8710174D02*
X16198753Y-8719698D01*
X16198753Y-8719698D02*
X16208277Y-8738746D01*
X16208277Y-8738746D02*
X16208277Y-8795889D01*
X16208277Y-8795889D02*
X16198753Y-8814936D01*
X16198753Y-8814936D02*
X16189230Y-8824460D01*
X16189230Y-8824460D02*
X16170182Y-8833984D01*
X16170182Y-8833984D02*
X16141610Y-8833984D01*
X16322563Y-8833984D02*
X16303515Y-8824460D01*
X16303515Y-8824460D02*
X16293991Y-8805412D01*
X16293991Y-8805412D02*
X16293991Y-8633984D01*
X16474944Y-8824460D02*
X16455896Y-8833984D01*
X16455896Y-8833984D02*
X16417801Y-8833984D01*
X16417801Y-8833984D02*
X16398753Y-8824460D01*
X16398753Y-8824460D02*
X16389230Y-8805412D01*
X16389230Y-8805412D02*
X16389230Y-8729222D01*
X16389230Y-8729222D02*
X16398753Y-8710174D01*
X16398753Y-8710174D02*
X16417801Y-8700650D01*
X16417801Y-8700650D02*
X16455896Y-8700650D01*
X16455896Y-8700650D02*
X16474944Y-8710174D01*
X16474944Y-8710174D02*
X16484468Y-8729222D01*
X16484468Y-8729222D02*
X16484468Y-8748270D01*
X16484468Y-8748270D02*
X16389230Y-8767317D01*
X16560658Y-8824460D02*
X16579706Y-8833984D01*
X16579706Y-8833984D02*
X16617801Y-8833984D01*
X16617801Y-8833984D02*
X16636849Y-8824460D01*
X16636849Y-8824460D02*
X16646372Y-8805412D01*
X16646372Y-8805412D02*
X16646372Y-8795889D01*
X16646372Y-8795889D02*
X16636849Y-8776841D01*
X16636849Y-8776841D02*
X16617801Y-8767317D01*
X16617801Y-8767317D02*
X16589230Y-8767317D01*
X16589230Y-8767317D02*
X16570182Y-8757793D01*
X16570182Y-8757793D02*
X16560658Y-8738746D01*
X16560658Y-8738746D02*
X16560658Y-8729222D01*
X16560658Y-8729222D02*
X16570182Y-8710174D01*
X16570182Y-8710174D02*
X16589230Y-8700650D01*
X16589230Y-8700650D02*
X16617801Y-8700650D01*
X16617801Y-8700650D02*
X16636849Y-8710174D01*
X16713039Y-8910174D02*
X16722563Y-8900650D01*
X16722563Y-8900650D02*
X16741611Y-8872079D01*
X16741611Y-8872079D02*
X16751134Y-8853031D01*
X16751134Y-8853031D02*
X16760658Y-8824460D01*
X16760658Y-8824460D02*
X16770182Y-8776841D01*
X16770182Y-8776841D02*
X16770182Y-8738746D01*
X16770182Y-8738746D02*
X16760658Y-8691127D01*
X16760658Y-8691127D02*
X16751134Y-8662555D01*
X16751134Y-8662555D02*
X16741611Y-8643508D01*
X16741611Y-8643508D02*
X16722563Y-8614936D01*
X16722563Y-8614936D02*
X16713039Y-8605412D01*
D12*
X11747500Y-9006500D02*
G75*
G02*
X11677500Y-9006500I-35000J0D01*
G01*
X11677500Y-9006500D02*
G75*
G02*
X11747500Y-9006500I35000J0D01*
G01*
D11*
X12046372Y-8897984D02*
X12065420Y-8897984D01*
X12065420Y-8897984D02*
X12084467Y-8907508D01*
X12084467Y-8907508D02*
X12093991Y-8917031D01*
X12093991Y-8917031D02*
X12103515Y-8936079D01*
X12103515Y-8936079D02*
X12113039Y-8974174D01*
X12113039Y-8974174D02*
X12113039Y-9021793D01*
X12113039Y-9021793D02*
X12103515Y-9059889D01*
X12103515Y-9059889D02*
X12093991Y-9078936D01*
X12093991Y-9078936D02*
X12084467Y-9088460D01*
X12084467Y-9088460D02*
X12065420Y-9097984D01*
X12065420Y-9097984D02*
X12046372Y-9097984D01*
X12046372Y-9097984D02*
X12027324Y-9088460D01*
X12027324Y-9088460D02*
X12017801Y-9078936D01*
X12017801Y-9078936D02*
X12008277Y-9059889D01*
X12008277Y-9059889D02*
X11998753Y-9021793D01*
X11998753Y-9021793D02*
X11998753Y-8974174D01*
X11998753Y-8974174D02*
X12008277Y-8936079D01*
X12008277Y-8936079D02*
X12017801Y-8917031D01*
X12017801Y-8917031D02*
X12027324Y-8907508D01*
X12027324Y-8907508D02*
X12046372Y-8897984D01*
X12198753Y-9078936D02*
X12208277Y-9088460D01*
X12208277Y-9088460D02*
X12198753Y-9097984D01*
X12198753Y-9097984D02*
X12189229Y-9088460D01*
X12189229Y-9088460D02*
X12198753Y-9078936D01*
X12198753Y-9078936D02*
X12198753Y-9097984D01*
X12274943Y-8897984D02*
X12408277Y-8897984D01*
X12408277Y-8897984D02*
X12322562Y-9097984D01*
X12522562Y-8897984D02*
X12541610Y-8897984D01*
X12541610Y-8897984D02*
X12560658Y-8907508D01*
X12560658Y-8907508D02*
X12570182Y-8917031D01*
X12570182Y-8917031D02*
X12579705Y-8936079D01*
X12579705Y-8936079D02*
X12589229Y-8974174D01*
X12589229Y-8974174D02*
X12589229Y-9021793D01*
X12589229Y-9021793D02*
X12579705Y-9059889D01*
X12579705Y-9059889D02*
X12570182Y-9078936D01*
X12570182Y-9078936D02*
X12560658Y-9088460D01*
X12560658Y-9088460D02*
X12541610Y-9097984D01*
X12541610Y-9097984D02*
X12522562Y-9097984D01*
X12522562Y-9097984D02*
X12503515Y-9088460D01*
X12503515Y-9088460D02*
X12493991Y-9078936D01*
X12493991Y-9078936D02*
X12484467Y-9059889D01*
X12484467Y-9059889D02*
X12474943Y-9021793D01*
X12474943Y-9021793D02*
X12474943Y-8974174D01*
X12474943Y-8974174D02*
X12484467Y-8936079D01*
X12484467Y-8936079D02*
X12493991Y-8917031D01*
X12493991Y-8917031D02*
X12503515Y-8907508D01*
X12503515Y-8907508D02*
X12522562Y-8897984D01*
X12713039Y-8897984D02*
X12732086Y-8897984D01*
X12732086Y-8897984D02*
X12751134Y-8907508D01*
X12751134Y-8907508D02*
X12760658Y-8917031D01*
X12760658Y-8917031D02*
X12770182Y-8936079D01*
X12770182Y-8936079D02*
X12779705Y-8974174D01*
X12779705Y-8974174D02*
X12779705Y-9021793D01*
X12779705Y-9021793D02*
X12770182Y-9059889D01*
X12770182Y-9059889D02*
X12760658Y-9078936D01*
X12760658Y-9078936D02*
X12751134Y-9088460D01*
X12751134Y-9088460D02*
X12732086Y-9097984D01*
X12732086Y-9097984D02*
X12713039Y-9097984D01*
X12713039Y-9097984D02*
X12693991Y-9088460D01*
X12693991Y-9088460D02*
X12684467Y-9078936D01*
X12684467Y-9078936D02*
X12674943Y-9059889D01*
X12674943Y-9059889D02*
X12665420Y-9021793D01*
X12665420Y-9021793D02*
X12665420Y-8974174D01*
X12665420Y-8974174D02*
X12674943Y-8936079D01*
X12674943Y-8936079D02*
X12684467Y-8917031D01*
X12684467Y-8917031D02*
X12693991Y-8907508D01*
X12693991Y-8907508D02*
X12713039Y-8897984D01*
X12865420Y-9097984D02*
X12865420Y-8964650D01*
X12865420Y-8983698D02*
X12874943Y-8974174D01*
X12874943Y-8974174D02*
X12893991Y-8964650D01*
X12893991Y-8964650D02*
X12922563Y-8964650D01*
X12922563Y-8964650D02*
X12941610Y-8974174D01*
X12941610Y-8974174D02*
X12951134Y-8993222D01*
X12951134Y-8993222D02*
X12951134Y-9097984D01*
X12951134Y-8993222D02*
X12960658Y-8974174D01*
X12960658Y-8974174D02*
X12979705Y-8964650D01*
X12979705Y-8964650D02*
X13008277Y-8964650D01*
X13008277Y-8964650D02*
X13027324Y-8974174D01*
X13027324Y-8974174D02*
X13036848Y-8993222D01*
X13036848Y-8993222D02*
X13036848Y-9097984D01*
X13132086Y-9097984D02*
X13132086Y-8964650D01*
X13132086Y-8983698D02*
X13141610Y-8974174D01*
X13141610Y-8974174D02*
X13160658Y-8964650D01*
X13160658Y-8964650D02*
X13189229Y-8964650D01*
X13189229Y-8964650D02*
X13208277Y-8974174D01*
X13208277Y-8974174D02*
X13217801Y-8993222D01*
X13217801Y-8993222D02*
X13217801Y-9097984D01*
X13217801Y-8993222D02*
X13227324Y-8974174D01*
X13227324Y-8974174D02*
X13246372Y-8964650D01*
X13246372Y-8964650D02*
X13274943Y-8964650D01*
X13274943Y-8964650D02*
X13293991Y-8974174D01*
X13293991Y-8974174D02*
X13303515Y-8993222D01*
X13303515Y-8993222D02*
X13303515Y-9097984D01*
X13693991Y-8888460D02*
X13522563Y-9145603D01*
X13951134Y-8897984D02*
X13970182Y-8897984D01*
X13970182Y-8897984D02*
X13989229Y-8907508D01*
X13989229Y-8907508D02*
X13998753Y-8917031D01*
X13998753Y-8917031D02*
X14008277Y-8936079D01*
X14008277Y-8936079D02*
X14017801Y-8974174D01*
X14017801Y-8974174D02*
X14017801Y-9021793D01*
X14017801Y-9021793D02*
X14008277Y-9059889D01*
X14008277Y-9059889D02*
X13998753Y-9078936D01*
X13998753Y-9078936D02*
X13989229Y-9088460D01*
X13989229Y-9088460D02*
X13970182Y-9097984D01*
X13970182Y-9097984D02*
X13951134Y-9097984D01*
X13951134Y-9097984D02*
X13932086Y-9088460D01*
X13932086Y-9088460D02*
X13922563Y-9078936D01*
X13922563Y-9078936D02*
X13913039Y-9059889D01*
X13913039Y-9059889D02*
X13903515Y-9021793D01*
X13903515Y-9021793D02*
X13903515Y-8974174D01*
X13903515Y-8974174D02*
X13913039Y-8936079D01*
X13913039Y-8936079D02*
X13922563Y-8917031D01*
X13922563Y-8917031D02*
X13932086Y-8907508D01*
X13932086Y-8907508D02*
X13951134Y-8897984D01*
X14103515Y-9078936D02*
X14113039Y-9088460D01*
X14113039Y-9088460D02*
X14103515Y-9097984D01*
X14103515Y-9097984D02*
X14093991Y-9088460D01*
X14093991Y-9088460D02*
X14103515Y-9078936D01*
X14103515Y-9078936D02*
X14103515Y-9097984D01*
X14236848Y-8897984D02*
X14255896Y-8897984D01*
X14255896Y-8897984D02*
X14274944Y-8907508D01*
X14274944Y-8907508D02*
X14284467Y-8917031D01*
X14284467Y-8917031D02*
X14293991Y-8936079D01*
X14293991Y-8936079D02*
X14303515Y-8974174D01*
X14303515Y-8974174D02*
X14303515Y-9021793D01*
X14303515Y-9021793D02*
X14293991Y-9059889D01*
X14293991Y-9059889D02*
X14284467Y-9078936D01*
X14284467Y-9078936D02*
X14274944Y-9088460D01*
X14274944Y-9088460D02*
X14255896Y-9097984D01*
X14255896Y-9097984D02*
X14236848Y-9097984D01*
X14236848Y-9097984D02*
X14217801Y-9088460D01*
X14217801Y-9088460D02*
X14208277Y-9078936D01*
X14208277Y-9078936D02*
X14198753Y-9059889D01*
X14198753Y-9059889D02*
X14189229Y-9021793D01*
X14189229Y-9021793D02*
X14189229Y-8974174D01*
X14189229Y-8974174D02*
X14198753Y-8936079D01*
X14198753Y-8936079D02*
X14208277Y-8917031D01*
X14208277Y-8917031D02*
X14217801Y-8907508D01*
X14217801Y-8907508D02*
X14236848Y-8897984D01*
X14379706Y-8917031D02*
X14389229Y-8907508D01*
X14389229Y-8907508D02*
X14408277Y-8897984D01*
X14408277Y-8897984D02*
X14455896Y-8897984D01*
X14455896Y-8897984D02*
X14474944Y-8907508D01*
X14474944Y-8907508D02*
X14484467Y-8917031D01*
X14484467Y-8917031D02*
X14493991Y-8936079D01*
X14493991Y-8936079D02*
X14493991Y-8955127D01*
X14493991Y-8955127D02*
X14484467Y-8983698D01*
X14484467Y-8983698D02*
X14370182Y-9097984D01*
X14370182Y-9097984D02*
X14493991Y-9097984D01*
X14560658Y-8897984D02*
X14693991Y-8897984D01*
X14693991Y-8897984D02*
X14608277Y-9097984D01*
X14855896Y-8897984D02*
X14817801Y-8897984D01*
X14817801Y-8897984D02*
X14798753Y-8907508D01*
X14798753Y-8907508D02*
X14789229Y-8917031D01*
X14789229Y-8917031D02*
X14770182Y-8945603D01*
X14770182Y-8945603D02*
X14760658Y-8983698D01*
X14760658Y-8983698D02*
X14760658Y-9059889D01*
X14760658Y-9059889D02*
X14770182Y-9078936D01*
X14770182Y-9078936D02*
X14779706Y-9088460D01*
X14779706Y-9088460D02*
X14798753Y-9097984D01*
X14798753Y-9097984D02*
X14836848Y-9097984D01*
X14836848Y-9097984D02*
X14855896Y-9088460D01*
X14855896Y-9088460D02*
X14865420Y-9078936D01*
X14865420Y-9078936D02*
X14874944Y-9059889D01*
X14874944Y-9059889D02*
X14874944Y-9012270D01*
X14874944Y-9012270D02*
X14865420Y-8993222D01*
X14865420Y-8993222D02*
X14855896Y-8983698D01*
X14855896Y-8983698D02*
X14836848Y-8974174D01*
X14836848Y-8974174D02*
X14798753Y-8974174D01*
X14798753Y-8974174D02*
X14779706Y-8983698D01*
X14779706Y-8983698D02*
X14770182Y-8993222D01*
X14770182Y-8993222D02*
X14760658Y-9012270D01*
X14951134Y-8897984D02*
X14951134Y-8936079D01*
X15027325Y-8897984D02*
X15027325Y-8936079D01*
X15322563Y-9174174D02*
X15313039Y-9164650D01*
X15313039Y-9164650D02*
X15293991Y-9136079D01*
X15293991Y-9136079D02*
X15284468Y-9117031D01*
X15284468Y-9117031D02*
X15274944Y-9088460D01*
X15274944Y-9088460D02*
X15265420Y-9040841D01*
X15265420Y-9040841D02*
X15265420Y-9002746D01*
X15265420Y-9002746D02*
X15274944Y-8955127D01*
X15274944Y-8955127D02*
X15284468Y-8926555D01*
X15284468Y-8926555D02*
X15293991Y-8907508D01*
X15293991Y-8907508D02*
X15313039Y-8878936D01*
X15313039Y-8878936D02*
X15322563Y-8869412D01*
X15484468Y-8964650D02*
X15484468Y-9097984D01*
X15436848Y-8888460D02*
X15389229Y-9031317D01*
X15389229Y-9031317D02*
X15513039Y-9031317D01*
X15741610Y-9097984D02*
X15741610Y-8897984D01*
X15827325Y-9097984D02*
X15827325Y-8993222D01*
X15827325Y-8993222D02*
X15817801Y-8974174D01*
X15817801Y-8974174D02*
X15798753Y-8964650D01*
X15798753Y-8964650D02*
X15770182Y-8964650D01*
X15770182Y-8964650D02*
X15751134Y-8974174D01*
X15751134Y-8974174D02*
X15741610Y-8983698D01*
X15951134Y-9097984D02*
X15932087Y-9088460D01*
X15932087Y-9088460D02*
X15922563Y-9078936D01*
X15922563Y-9078936D02*
X15913039Y-9059889D01*
X15913039Y-9059889D02*
X15913039Y-9002746D01*
X15913039Y-9002746D02*
X15922563Y-8983698D01*
X15922563Y-8983698D02*
X15932087Y-8974174D01*
X15932087Y-8974174D02*
X15951134Y-8964650D01*
X15951134Y-8964650D02*
X15979706Y-8964650D01*
X15979706Y-8964650D02*
X15998753Y-8974174D01*
X15998753Y-8974174D02*
X16008277Y-8983698D01*
X16008277Y-8983698D02*
X16017801Y-9002746D01*
X16017801Y-9002746D02*
X16017801Y-9059889D01*
X16017801Y-9059889D02*
X16008277Y-9078936D01*
X16008277Y-9078936D02*
X15998753Y-9088460D01*
X15998753Y-9088460D02*
X15979706Y-9097984D01*
X15979706Y-9097984D02*
X15951134Y-9097984D01*
X16132087Y-9097984D02*
X16113039Y-9088460D01*
X16113039Y-9088460D02*
X16103515Y-9069412D01*
X16103515Y-9069412D02*
X16103515Y-8897984D01*
X16284468Y-9088460D02*
X16265420Y-9097984D01*
X16265420Y-9097984D02*
X16227325Y-9097984D01*
X16227325Y-9097984D02*
X16208277Y-9088460D01*
X16208277Y-9088460D02*
X16198753Y-9069412D01*
X16198753Y-9069412D02*
X16198753Y-8993222D01*
X16198753Y-8993222D02*
X16208277Y-8974174D01*
X16208277Y-8974174D02*
X16227325Y-8964650D01*
X16227325Y-8964650D02*
X16265420Y-8964650D01*
X16265420Y-8964650D02*
X16284468Y-8974174D01*
X16284468Y-8974174D02*
X16293991Y-8993222D01*
X16293991Y-8993222D02*
X16293991Y-9012270D01*
X16293991Y-9012270D02*
X16198753Y-9031317D01*
X16370182Y-9088460D02*
X16389230Y-9097984D01*
X16389230Y-9097984D02*
X16427325Y-9097984D01*
X16427325Y-9097984D02*
X16446372Y-9088460D01*
X16446372Y-9088460D02*
X16455896Y-9069412D01*
X16455896Y-9069412D02*
X16455896Y-9059889D01*
X16455896Y-9059889D02*
X16446372Y-9040841D01*
X16446372Y-9040841D02*
X16427325Y-9031317D01*
X16427325Y-9031317D02*
X16398753Y-9031317D01*
X16398753Y-9031317D02*
X16379706Y-9021793D01*
X16379706Y-9021793D02*
X16370182Y-9002746D01*
X16370182Y-9002746D02*
X16370182Y-8993222D01*
X16370182Y-8993222D02*
X16379706Y-8974174D01*
X16379706Y-8974174D02*
X16398753Y-8964650D01*
X16398753Y-8964650D02*
X16427325Y-8964650D01*
X16427325Y-8964650D02*
X16446372Y-8974174D01*
X16522563Y-9174174D02*
X16532087Y-9164650D01*
X16532087Y-9164650D02*
X16551134Y-9136079D01*
X16551134Y-9136079D02*
X16560658Y-9117031D01*
X16560658Y-9117031D02*
X16570182Y-9088460D01*
X16570182Y-9088460D02*
X16579706Y-9040841D01*
X16579706Y-9040841D02*
X16579706Y-9002746D01*
X16579706Y-9002746D02*
X16570182Y-8955127D01*
X16570182Y-8955127D02*
X16560658Y-8926555D01*
X16560658Y-8926555D02*
X16551134Y-8907508D01*
X16551134Y-8907508D02*
X16532087Y-8878936D01*
X16532087Y-8878936D02*
X16522563Y-8869412D01*
D12*
X11707500Y-9230500D02*
X11707500Y-9310500D01*
X11667500Y-9270500D02*
X11747500Y-9270500D01*
D11*
X12046372Y-9161984D02*
X12065420Y-9161984D01*
X12065420Y-9161984D02*
X12084467Y-9171508D01*
X12084467Y-9171508D02*
X12093991Y-9181031D01*
X12093991Y-9181031D02*
X12103515Y-9200079D01*
X12103515Y-9200079D02*
X12113039Y-9238174D01*
X12113039Y-9238174D02*
X12113039Y-9285793D01*
X12113039Y-9285793D02*
X12103515Y-9323889D01*
X12103515Y-9323889D02*
X12093991Y-9342936D01*
X12093991Y-9342936D02*
X12084467Y-9352460D01*
X12084467Y-9352460D02*
X12065420Y-9361984D01*
X12065420Y-9361984D02*
X12046372Y-9361984D01*
X12046372Y-9361984D02*
X12027324Y-9352460D01*
X12027324Y-9352460D02*
X12017801Y-9342936D01*
X12017801Y-9342936D02*
X12008277Y-9323889D01*
X12008277Y-9323889D02*
X11998753Y-9285793D01*
X11998753Y-9285793D02*
X11998753Y-9238174D01*
X11998753Y-9238174D02*
X12008277Y-9200079D01*
X12008277Y-9200079D02*
X12017801Y-9181031D01*
X12017801Y-9181031D02*
X12027324Y-9171508D01*
X12027324Y-9171508D02*
X12046372Y-9161984D01*
X12198753Y-9342936D02*
X12208277Y-9352460D01*
X12208277Y-9352460D02*
X12198753Y-9361984D01*
X12198753Y-9361984D02*
X12189229Y-9352460D01*
X12189229Y-9352460D02*
X12198753Y-9342936D01*
X12198753Y-9342936D02*
X12198753Y-9361984D01*
X12322562Y-9247698D02*
X12303515Y-9238174D01*
X12303515Y-9238174D02*
X12293991Y-9228650D01*
X12293991Y-9228650D02*
X12284467Y-9209603D01*
X12284467Y-9209603D02*
X12284467Y-9200079D01*
X12284467Y-9200079D02*
X12293991Y-9181031D01*
X12293991Y-9181031D02*
X12303515Y-9171508D01*
X12303515Y-9171508D02*
X12322562Y-9161984D01*
X12322562Y-9161984D02*
X12360658Y-9161984D01*
X12360658Y-9161984D02*
X12379705Y-9171508D01*
X12379705Y-9171508D02*
X12389229Y-9181031D01*
X12389229Y-9181031D02*
X12398753Y-9200079D01*
X12398753Y-9200079D02*
X12398753Y-9209603D01*
X12398753Y-9209603D02*
X12389229Y-9228650D01*
X12389229Y-9228650D02*
X12379705Y-9238174D01*
X12379705Y-9238174D02*
X12360658Y-9247698D01*
X12360658Y-9247698D02*
X12322562Y-9247698D01*
X12322562Y-9247698D02*
X12303515Y-9257222D01*
X12303515Y-9257222D02*
X12293991Y-9266746D01*
X12293991Y-9266746D02*
X12284467Y-9285793D01*
X12284467Y-9285793D02*
X12284467Y-9323889D01*
X12284467Y-9323889D02*
X12293991Y-9342936D01*
X12293991Y-9342936D02*
X12303515Y-9352460D01*
X12303515Y-9352460D02*
X12322562Y-9361984D01*
X12322562Y-9361984D02*
X12360658Y-9361984D01*
X12360658Y-9361984D02*
X12379705Y-9352460D01*
X12379705Y-9352460D02*
X12389229Y-9342936D01*
X12389229Y-9342936D02*
X12398753Y-9323889D01*
X12398753Y-9323889D02*
X12398753Y-9285793D01*
X12398753Y-9285793D02*
X12389229Y-9266746D01*
X12389229Y-9266746D02*
X12379705Y-9257222D01*
X12379705Y-9257222D02*
X12360658Y-9247698D01*
X12522562Y-9161984D02*
X12541610Y-9161984D01*
X12541610Y-9161984D02*
X12560658Y-9171508D01*
X12560658Y-9171508D02*
X12570182Y-9181031D01*
X12570182Y-9181031D02*
X12579705Y-9200079D01*
X12579705Y-9200079D02*
X12589229Y-9238174D01*
X12589229Y-9238174D02*
X12589229Y-9285793D01*
X12589229Y-9285793D02*
X12579705Y-9323889D01*
X12579705Y-9323889D02*
X12570182Y-9342936D01*
X12570182Y-9342936D02*
X12560658Y-9352460D01*
X12560658Y-9352460D02*
X12541610Y-9361984D01*
X12541610Y-9361984D02*
X12522562Y-9361984D01*
X12522562Y-9361984D02*
X12503515Y-9352460D01*
X12503515Y-9352460D02*
X12493991Y-9342936D01*
X12493991Y-9342936D02*
X12484467Y-9323889D01*
X12484467Y-9323889D02*
X12474943Y-9285793D01*
X12474943Y-9285793D02*
X12474943Y-9238174D01*
X12474943Y-9238174D02*
X12484467Y-9200079D01*
X12484467Y-9200079D02*
X12493991Y-9181031D01*
X12493991Y-9181031D02*
X12503515Y-9171508D01*
X12503515Y-9171508D02*
X12522562Y-9161984D01*
X12713039Y-9161984D02*
X12732086Y-9161984D01*
X12732086Y-9161984D02*
X12751134Y-9171508D01*
X12751134Y-9171508D02*
X12760658Y-9181031D01*
X12760658Y-9181031D02*
X12770182Y-9200079D01*
X12770182Y-9200079D02*
X12779705Y-9238174D01*
X12779705Y-9238174D02*
X12779705Y-9285793D01*
X12779705Y-9285793D02*
X12770182Y-9323889D01*
X12770182Y-9323889D02*
X12760658Y-9342936D01*
X12760658Y-9342936D02*
X12751134Y-9352460D01*
X12751134Y-9352460D02*
X12732086Y-9361984D01*
X12732086Y-9361984D02*
X12713039Y-9361984D01*
X12713039Y-9361984D02*
X12693991Y-9352460D01*
X12693991Y-9352460D02*
X12684467Y-9342936D01*
X12684467Y-9342936D02*
X12674943Y-9323889D01*
X12674943Y-9323889D02*
X12665420Y-9285793D01*
X12665420Y-9285793D02*
X12665420Y-9238174D01*
X12665420Y-9238174D02*
X12674943Y-9200079D01*
X12674943Y-9200079D02*
X12684467Y-9181031D01*
X12684467Y-9181031D02*
X12693991Y-9171508D01*
X12693991Y-9171508D02*
X12713039Y-9161984D01*
X12865420Y-9361984D02*
X12865420Y-9228650D01*
X12865420Y-9247698D02*
X12874943Y-9238174D01*
X12874943Y-9238174D02*
X12893991Y-9228650D01*
X12893991Y-9228650D02*
X12922563Y-9228650D01*
X12922563Y-9228650D02*
X12941610Y-9238174D01*
X12941610Y-9238174D02*
X12951134Y-9257222D01*
X12951134Y-9257222D02*
X12951134Y-9361984D01*
X12951134Y-9257222D02*
X12960658Y-9238174D01*
X12960658Y-9238174D02*
X12979705Y-9228650D01*
X12979705Y-9228650D02*
X13008277Y-9228650D01*
X13008277Y-9228650D02*
X13027324Y-9238174D01*
X13027324Y-9238174D02*
X13036848Y-9257222D01*
X13036848Y-9257222D02*
X13036848Y-9361984D01*
X13132086Y-9361984D02*
X13132086Y-9228650D01*
X13132086Y-9247698D02*
X13141610Y-9238174D01*
X13141610Y-9238174D02*
X13160658Y-9228650D01*
X13160658Y-9228650D02*
X13189229Y-9228650D01*
X13189229Y-9228650D02*
X13208277Y-9238174D01*
X13208277Y-9238174D02*
X13217801Y-9257222D01*
X13217801Y-9257222D02*
X13217801Y-9361984D01*
X13217801Y-9257222D02*
X13227324Y-9238174D01*
X13227324Y-9238174D02*
X13246372Y-9228650D01*
X13246372Y-9228650D02*
X13274943Y-9228650D01*
X13274943Y-9228650D02*
X13293991Y-9238174D01*
X13293991Y-9238174D02*
X13303515Y-9257222D01*
X13303515Y-9257222D02*
X13303515Y-9361984D01*
X13693991Y-9152460D02*
X13522563Y-9409603D01*
X13951134Y-9161984D02*
X13970182Y-9161984D01*
X13970182Y-9161984D02*
X13989229Y-9171508D01*
X13989229Y-9171508D02*
X13998753Y-9181031D01*
X13998753Y-9181031D02*
X14008277Y-9200079D01*
X14008277Y-9200079D02*
X14017801Y-9238174D01*
X14017801Y-9238174D02*
X14017801Y-9285793D01*
X14017801Y-9285793D02*
X14008277Y-9323889D01*
X14008277Y-9323889D02*
X13998753Y-9342936D01*
X13998753Y-9342936D02*
X13989229Y-9352460D01*
X13989229Y-9352460D02*
X13970182Y-9361984D01*
X13970182Y-9361984D02*
X13951134Y-9361984D01*
X13951134Y-9361984D02*
X13932086Y-9352460D01*
X13932086Y-9352460D02*
X13922563Y-9342936D01*
X13922563Y-9342936D02*
X13913039Y-9323889D01*
X13913039Y-9323889D02*
X13903515Y-9285793D01*
X13903515Y-9285793D02*
X13903515Y-9238174D01*
X13903515Y-9238174D02*
X13913039Y-9200079D01*
X13913039Y-9200079D02*
X13922563Y-9181031D01*
X13922563Y-9181031D02*
X13932086Y-9171508D01*
X13932086Y-9171508D02*
X13951134Y-9161984D01*
X14103515Y-9342936D02*
X14113039Y-9352460D01*
X14113039Y-9352460D02*
X14103515Y-9361984D01*
X14103515Y-9361984D02*
X14093991Y-9352460D01*
X14093991Y-9352460D02*
X14103515Y-9342936D01*
X14103515Y-9342936D02*
X14103515Y-9361984D01*
X14236848Y-9161984D02*
X14255896Y-9161984D01*
X14255896Y-9161984D02*
X14274944Y-9171508D01*
X14274944Y-9171508D02*
X14284467Y-9181031D01*
X14284467Y-9181031D02*
X14293991Y-9200079D01*
X14293991Y-9200079D02*
X14303515Y-9238174D01*
X14303515Y-9238174D02*
X14303515Y-9285793D01*
X14303515Y-9285793D02*
X14293991Y-9323889D01*
X14293991Y-9323889D02*
X14284467Y-9342936D01*
X14284467Y-9342936D02*
X14274944Y-9352460D01*
X14274944Y-9352460D02*
X14255896Y-9361984D01*
X14255896Y-9361984D02*
X14236848Y-9361984D01*
X14236848Y-9361984D02*
X14217801Y-9352460D01*
X14217801Y-9352460D02*
X14208277Y-9342936D01*
X14208277Y-9342936D02*
X14198753Y-9323889D01*
X14198753Y-9323889D02*
X14189229Y-9285793D01*
X14189229Y-9285793D02*
X14189229Y-9238174D01*
X14189229Y-9238174D02*
X14198753Y-9200079D01*
X14198753Y-9200079D02*
X14208277Y-9181031D01*
X14208277Y-9181031D02*
X14217801Y-9171508D01*
X14217801Y-9171508D02*
X14236848Y-9161984D01*
X14370182Y-9161984D02*
X14493991Y-9161984D01*
X14493991Y-9161984D02*
X14427325Y-9238174D01*
X14427325Y-9238174D02*
X14455896Y-9238174D01*
X14455896Y-9238174D02*
X14474944Y-9247698D01*
X14474944Y-9247698D02*
X14484467Y-9257222D01*
X14484467Y-9257222D02*
X14493991Y-9276270D01*
X14493991Y-9276270D02*
X14493991Y-9323889D01*
X14493991Y-9323889D02*
X14484467Y-9342936D01*
X14484467Y-9342936D02*
X14474944Y-9352460D01*
X14474944Y-9352460D02*
X14455896Y-9361984D01*
X14455896Y-9361984D02*
X14398753Y-9361984D01*
X14398753Y-9361984D02*
X14379706Y-9352460D01*
X14379706Y-9352460D02*
X14370182Y-9342936D01*
X14684467Y-9361984D02*
X14570182Y-9361984D01*
X14627325Y-9361984D02*
X14627325Y-9161984D01*
X14627325Y-9161984D02*
X14608277Y-9190555D01*
X14608277Y-9190555D02*
X14589229Y-9209603D01*
X14589229Y-9209603D02*
X14570182Y-9219127D01*
X14865420Y-9161984D02*
X14770182Y-9161984D01*
X14770182Y-9161984D02*
X14760658Y-9257222D01*
X14760658Y-9257222D02*
X14770182Y-9247698D01*
X14770182Y-9247698D02*
X14789229Y-9238174D01*
X14789229Y-9238174D02*
X14836848Y-9238174D01*
X14836848Y-9238174D02*
X14855896Y-9247698D01*
X14855896Y-9247698D02*
X14865420Y-9257222D01*
X14865420Y-9257222D02*
X14874944Y-9276270D01*
X14874944Y-9276270D02*
X14874944Y-9323889D01*
X14874944Y-9323889D02*
X14865420Y-9342936D01*
X14865420Y-9342936D02*
X14855896Y-9352460D01*
X14855896Y-9352460D02*
X14836848Y-9361984D01*
X14836848Y-9361984D02*
X14789229Y-9361984D01*
X14789229Y-9361984D02*
X14770182Y-9352460D01*
X14770182Y-9352460D02*
X14760658Y-9342936D01*
X14951134Y-9161984D02*
X14951134Y-9200079D01*
X15027325Y-9161984D02*
X15027325Y-9200079D01*
X15322563Y-9438174D02*
X15313039Y-9428650D01*
X15313039Y-9428650D02*
X15293991Y-9400079D01*
X15293991Y-9400079D02*
X15284468Y-9381031D01*
X15284468Y-9381031D02*
X15274944Y-9352460D01*
X15274944Y-9352460D02*
X15265420Y-9304841D01*
X15265420Y-9304841D02*
X15265420Y-9266746D01*
X15265420Y-9266746D02*
X15274944Y-9219127D01*
X15274944Y-9219127D02*
X15284468Y-9190555D01*
X15284468Y-9190555D02*
X15293991Y-9171508D01*
X15293991Y-9171508D02*
X15313039Y-9142936D01*
X15313039Y-9142936D02*
X15322563Y-9133412D01*
X15389229Y-9181031D02*
X15398753Y-9171508D01*
X15398753Y-9171508D02*
X15417801Y-9161984D01*
X15417801Y-9161984D02*
X15465420Y-9161984D01*
X15465420Y-9161984D02*
X15484468Y-9171508D01*
X15484468Y-9171508D02*
X15493991Y-9181031D01*
X15493991Y-9181031D02*
X15503515Y-9200079D01*
X15503515Y-9200079D02*
X15503515Y-9219127D01*
X15503515Y-9219127D02*
X15493991Y-9247698D01*
X15493991Y-9247698D02*
X15379706Y-9361984D01*
X15379706Y-9361984D02*
X15503515Y-9361984D01*
X15693991Y-9361984D02*
X15579706Y-9361984D01*
X15636848Y-9361984D02*
X15636848Y-9161984D01*
X15636848Y-9161984D02*
X15617801Y-9190555D01*
X15617801Y-9190555D02*
X15598753Y-9209603D01*
X15598753Y-9209603D02*
X15579706Y-9219127D01*
X15932087Y-9361984D02*
X15932087Y-9161984D01*
X16017801Y-9361984D02*
X16017801Y-9257222D01*
X16017801Y-9257222D02*
X16008277Y-9238174D01*
X16008277Y-9238174D02*
X15989230Y-9228650D01*
X15989230Y-9228650D02*
X15960658Y-9228650D01*
X15960658Y-9228650D02*
X15941610Y-9238174D01*
X15941610Y-9238174D02*
X15932087Y-9247698D01*
X16141610Y-9361984D02*
X16122563Y-9352460D01*
X16122563Y-9352460D02*
X16113039Y-9342936D01*
X16113039Y-9342936D02*
X16103515Y-9323889D01*
X16103515Y-9323889D02*
X16103515Y-9266746D01*
X16103515Y-9266746D02*
X16113039Y-9247698D01*
X16113039Y-9247698D02*
X16122563Y-9238174D01*
X16122563Y-9238174D02*
X16141610Y-9228650D01*
X16141610Y-9228650D02*
X16170182Y-9228650D01*
X16170182Y-9228650D02*
X16189230Y-9238174D01*
X16189230Y-9238174D02*
X16198753Y-9247698D01*
X16198753Y-9247698D02*
X16208277Y-9266746D01*
X16208277Y-9266746D02*
X16208277Y-9323889D01*
X16208277Y-9323889D02*
X16198753Y-9342936D01*
X16198753Y-9342936D02*
X16189230Y-9352460D01*
X16189230Y-9352460D02*
X16170182Y-9361984D01*
X16170182Y-9361984D02*
X16141610Y-9361984D01*
X16322563Y-9361984D02*
X16303515Y-9352460D01*
X16303515Y-9352460D02*
X16293991Y-9333412D01*
X16293991Y-9333412D02*
X16293991Y-9161984D01*
X16474944Y-9352460D02*
X16455896Y-9361984D01*
X16455896Y-9361984D02*
X16417801Y-9361984D01*
X16417801Y-9361984D02*
X16398753Y-9352460D01*
X16398753Y-9352460D02*
X16389230Y-9333412D01*
X16389230Y-9333412D02*
X16389230Y-9257222D01*
X16389230Y-9257222D02*
X16398753Y-9238174D01*
X16398753Y-9238174D02*
X16417801Y-9228650D01*
X16417801Y-9228650D02*
X16455896Y-9228650D01*
X16455896Y-9228650D02*
X16474944Y-9238174D01*
X16474944Y-9238174D02*
X16484468Y-9257222D01*
X16484468Y-9257222D02*
X16484468Y-9276270D01*
X16484468Y-9276270D02*
X16389230Y-9295317D01*
X16560658Y-9352460D02*
X16579706Y-9361984D01*
X16579706Y-9361984D02*
X16617801Y-9361984D01*
X16617801Y-9361984D02*
X16636849Y-9352460D01*
X16636849Y-9352460D02*
X16646372Y-9333412D01*
X16646372Y-9333412D02*
X16646372Y-9323889D01*
X16646372Y-9323889D02*
X16636849Y-9304841D01*
X16636849Y-9304841D02*
X16617801Y-9295317D01*
X16617801Y-9295317D02*
X16589230Y-9295317D01*
X16589230Y-9295317D02*
X16570182Y-9285793D01*
X16570182Y-9285793D02*
X16560658Y-9266746D01*
X16560658Y-9266746D02*
X16560658Y-9257222D01*
X16560658Y-9257222D02*
X16570182Y-9238174D01*
X16570182Y-9238174D02*
X16589230Y-9228650D01*
X16589230Y-9228650D02*
X16617801Y-9228650D01*
X16617801Y-9228650D02*
X16636849Y-9238174D01*
X16713039Y-9438174D02*
X16722563Y-9428650D01*
X16722563Y-9428650D02*
X16741611Y-9400079D01*
X16741611Y-9400079D02*
X16751134Y-9381031D01*
X16751134Y-9381031D02*
X16760658Y-9352460D01*
X16760658Y-9352460D02*
X16770182Y-9304841D01*
X16770182Y-9304841D02*
X16770182Y-9266746D01*
X16770182Y-9266746D02*
X16760658Y-9219127D01*
X16760658Y-9219127D02*
X16751134Y-9190555D01*
X16751134Y-9190555D02*
X16741611Y-9171508D01*
X16741611Y-9171508D02*
X16722563Y-9142936D01*
X16722563Y-9142936D02*
X16713039Y-9133412D01*
D13*
X11731391Y-9573391D02*
X11731391Y-9495609D01*
X11653609Y-9495609D01*
X11653609Y-9573391D01*
X11731391Y-9573391D01*
D11*
X12113039Y-9625984D02*
X11998753Y-9625984D01*
X12055896Y-9625984D02*
X12055896Y-9425984D01*
X12055896Y-9425984D02*
X12036848Y-9454555D01*
X12036848Y-9454555D02*
X12017801Y-9473603D01*
X12017801Y-9473603D02*
X11998753Y-9483127D01*
X12198753Y-9606936D02*
X12208277Y-9616460D01*
X12208277Y-9616460D02*
X12198753Y-9625984D01*
X12198753Y-9625984D02*
X12189229Y-9616460D01*
X12189229Y-9616460D02*
X12198753Y-9606936D01*
X12198753Y-9606936D02*
X12198753Y-9625984D01*
X12398753Y-9625984D02*
X12284467Y-9625984D01*
X12341610Y-9625984D02*
X12341610Y-9425984D01*
X12341610Y-9425984D02*
X12322562Y-9454555D01*
X12322562Y-9454555D02*
X12303515Y-9473603D01*
X12303515Y-9473603D02*
X12284467Y-9483127D01*
X12522562Y-9425984D02*
X12541610Y-9425984D01*
X12541610Y-9425984D02*
X12560658Y-9435508D01*
X12560658Y-9435508D02*
X12570182Y-9445031D01*
X12570182Y-9445031D02*
X12579705Y-9464079D01*
X12579705Y-9464079D02*
X12589229Y-9502174D01*
X12589229Y-9502174D02*
X12589229Y-9549793D01*
X12589229Y-9549793D02*
X12579705Y-9587889D01*
X12579705Y-9587889D02*
X12570182Y-9606936D01*
X12570182Y-9606936D02*
X12560658Y-9616460D01*
X12560658Y-9616460D02*
X12541610Y-9625984D01*
X12541610Y-9625984D02*
X12522562Y-9625984D01*
X12522562Y-9625984D02*
X12503515Y-9616460D01*
X12503515Y-9616460D02*
X12493991Y-9606936D01*
X12493991Y-9606936D02*
X12484467Y-9587889D01*
X12484467Y-9587889D02*
X12474943Y-9549793D01*
X12474943Y-9549793D02*
X12474943Y-9502174D01*
X12474943Y-9502174D02*
X12484467Y-9464079D01*
X12484467Y-9464079D02*
X12493991Y-9445031D01*
X12493991Y-9445031D02*
X12503515Y-9435508D01*
X12503515Y-9435508D02*
X12522562Y-9425984D01*
X12713039Y-9425984D02*
X12732086Y-9425984D01*
X12732086Y-9425984D02*
X12751134Y-9435508D01*
X12751134Y-9435508D02*
X12760658Y-9445031D01*
X12760658Y-9445031D02*
X12770182Y-9464079D01*
X12770182Y-9464079D02*
X12779705Y-9502174D01*
X12779705Y-9502174D02*
X12779705Y-9549793D01*
X12779705Y-9549793D02*
X12770182Y-9587889D01*
X12770182Y-9587889D02*
X12760658Y-9606936D01*
X12760658Y-9606936D02*
X12751134Y-9616460D01*
X12751134Y-9616460D02*
X12732086Y-9625984D01*
X12732086Y-9625984D02*
X12713039Y-9625984D01*
X12713039Y-9625984D02*
X12693991Y-9616460D01*
X12693991Y-9616460D02*
X12684467Y-9606936D01*
X12684467Y-9606936D02*
X12674943Y-9587889D01*
X12674943Y-9587889D02*
X12665420Y-9549793D01*
X12665420Y-9549793D02*
X12665420Y-9502174D01*
X12665420Y-9502174D02*
X12674943Y-9464079D01*
X12674943Y-9464079D02*
X12684467Y-9445031D01*
X12684467Y-9445031D02*
X12693991Y-9435508D01*
X12693991Y-9435508D02*
X12713039Y-9425984D01*
X12865420Y-9625984D02*
X12865420Y-9492650D01*
X12865420Y-9511698D02*
X12874943Y-9502174D01*
X12874943Y-9502174D02*
X12893991Y-9492650D01*
X12893991Y-9492650D02*
X12922563Y-9492650D01*
X12922563Y-9492650D02*
X12941610Y-9502174D01*
X12941610Y-9502174D02*
X12951134Y-9521222D01*
X12951134Y-9521222D02*
X12951134Y-9625984D01*
X12951134Y-9521222D02*
X12960658Y-9502174D01*
X12960658Y-9502174D02*
X12979705Y-9492650D01*
X12979705Y-9492650D02*
X13008277Y-9492650D01*
X13008277Y-9492650D02*
X13027324Y-9502174D01*
X13027324Y-9502174D02*
X13036848Y-9521222D01*
X13036848Y-9521222D02*
X13036848Y-9625984D01*
X13132086Y-9625984D02*
X13132086Y-9492650D01*
X13132086Y-9511698D02*
X13141610Y-9502174D01*
X13141610Y-9502174D02*
X13160658Y-9492650D01*
X13160658Y-9492650D02*
X13189229Y-9492650D01*
X13189229Y-9492650D02*
X13208277Y-9502174D01*
X13208277Y-9502174D02*
X13217801Y-9521222D01*
X13217801Y-9521222D02*
X13217801Y-9625984D01*
X13217801Y-9521222D02*
X13227324Y-9502174D01*
X13227324Y-9502174D02*
X13246372Y-9492650D01*
X13246372Y-9492650D02*
X13274943Y-9492650D01*
X13274943Y-9492650D02*
X13293991Y-9502174D01*
X13293991Y-9502174D02*
X13303515Y-9521222D01*
X13303515Y-9521222D02*
X13303515Y-9625984D01*
X13693991Y-9416460D02*
X13522563Y-9673603D01*
X13951134Y-9425984D02*
X13970182Y-9425984D01*
X13970182Y-9425984D02*
X13989229Y-9435508D01*
X13989229Y-9435508D02*
X13998753Y-9445031D01*
X13998753Y-9445031D02*
X14008277Y-9464079D01*
X14008277Y-9464079D02*
X14017801Y-9502174D01*
X14017801Y-9502174D02*
X14017801Y-9549793D01*
X14017801Y-9549793D02*
X14008277Y-9587889D01*
X14008277Y-9587889D02*
X13998753Y-9606936D01*
X13998753Y-9606936D02*
X13989229Y-9616460D01*
X13989229Y-9616460D02*
X13970182Y-9625984D01*
X13970182Y-9625984D02*
X13951134Y-9625984D01*
X13951134Y-9625984D02*
X13932086Y-9616460D01*
X13932086Y-9616460D02*
X13922563Y-9606936D01*
X13922563Y-9606936D02*
X13913039Y-9587889D01*
X13913039Y-9587889D02*
X13903515Y-9549793D01*
X13903515Y-9549793D02*
X13903515Y-9502174D01*
X13903515Y-9502174D02*
X13913039Y-9464079D01*
X13913039Y-9464079D02*
X13922563Y-9445031D01*
X13922563Y-9445031D02*
X13932086Y-9435508D01*
X13932086Y-9435508D02*
X13951134Y-9425984D01*
X14103515Y-9606936D02*
X14113039Y-9616460D01*
X14113039Y-9616460D02*
X14103515Y-9625984D01*
X14103515Y-9625984D02*
X14093991Y-9616460D01*
X14093991Y-9616460D02*
X14103515Y-9606936D01*
X14103515Y-9606936D02*
X14103515Y-9625984D01*
X14236848Y-9425984D02*
X14255896Y-9425984D01*
X14255896Y-9425984D02*
X14274944Y-9435508D01*
X14274944Y-9435508D02*
X14284467Y-9445031D01*
X14284467Y-9445031D02*
X14293991Y-9464079D01*
X14293991Y-9464079D02*
X14303515Y-9502174D01*
X14303515Y-9502174D02*
X14303515Y-9549793D01*
X14303515Y-9549793D02*
X14293991Y-9587889D01*
X14293991Y-9587889D02*
X14284467Y-9606936D01*
X14284467Y-9606936D02*
X14274944Y-9616460D01*
X14274944Y-9616460D02*
X14255896Y-9625984D01*
X14255896Y-9625984D02*
X14236848Y-9625984D01*
X14236848Y-9625984D02*
X14217801Y-9616460D01*
X14217801Y-9616460D02*
X14208277Y-9606936D01*
X14208277Y-9606936D02*
X14198753Y-9587889D01*
X14198753Y-9587889D02*
X14189229Y-9549793D01*
X14189229Y-9549793D02*
X14189229Y-9502174D01*
X14189229Y-9502174D02*
X14198753Y-9464079D01*
X14198753Y-9464079D02*
X14208277Y-9445031D01*
X14208277Y-9445031D02*
X14217801Y-9435508D01*
X14217801Y-9435508D02*
X14236848Y-9425984D01*
X14474944Y-9492650D02*
X14474944Y-9625984D01*
X14427325Y-9416460D02*
X14379706Y-9559317D01*
X14379706Y-9559317D02*
X14503515Y-9559317D01*
X14560658Y-9425984D02*
X14684467Y-9425984D01*
X14684467Y-9425984D02*
X14617801Y-9502174D01*
X14617801Y-9502174D02*
X14646372Y-9502174D01*
X14646372Y-9502174D02*
X14665420Y-9511698D01*
X14665420Y-9511698D02*
X14674944Y-9521222D01*
X14674944Y-9521222D02*
X14684467Y-9540270D01*
X14684467Y-9540270D02*
X14684467Y-9587889D01*
X14684467Y-9587889D02*
X14674944Y-9606936D01*
X14674944Y-9606936D02*
X14665420Y-9616460D01*
X14665420Y-9616460D02*
X14646372Y-9625984D01*
X14646372Y-9625984D02*
X14589229Y-9625984D01*
X14589229Y-9625984D02*
X14570182Y-9616460D01*
X14570182Y-9616460D02*
X14560658Y-9606936D01*
X14751134Y-9425984D02*
X14874944Y-9425984D01*
X14874944Y-9425984D02*
X14808277Y-9502174D01*
X14808277Y-9502174D02*
X14836848Y-9502174D01*
X14836848Y-9502174D02*
X14855896Y-9511698D01*
X14855896Y-9511698D02*
X14865420Y-9521222D01*
X14865420Y-9521222D02*
X14874944Y-9540270D01*
X14874944Y-9540270D02*
X14874944Y-9587889D01*
X14874944Y-9587889D02*
X14865420Y-9606936D01*
X14865420Y-9606936D02*
X14855896Y-9616460D01*
X14855896Y-9616460D02*
X14836848Y-9625984D01*
X14836848Y-9625984D02*
X14779706Y-9625984D01*
X14779706Y-9625984D02*
X14760658Y-9616460D01*
X14760658Y-9616460D02*
X14751134Y-9606936D01*
X14951134Y-9425984D02*
X14951134Y-9464079D01*
X15027325Y-9425984D02*
X15027325Y-9464079D01*
X15322563Y-9702174D02*
X15313039Y-9692650D01*
X15313039Y-9692650D02*
X15293991Y-9664079D01*
X15293991Y-9664079D02*
X15284468Y-9645031D01*
X15284468Y-9645031D02*
X15274944Y-9616460D01*
X15274944Y-9616460D02*
X15265420Y-9568841D01*
X15265420Y-9568841D02*
X15265420Y-9530746D01*
X15265420Y-9530746D02*
X15274944Y-9483127D01*
X15274944Y-9483127D02*
X15284468Y-9454555D01*
X15284468Y-9454555D02*
X15293991Y-9435508D01*
X15293991Y-9435508D02*
X15313039Y-9406936D01*
X15313039Y-9406936D02*
X15322563Y-9397412D01*
X15503515Y-9625984D02*
X15389229Y-9625984D01*
X15446372Y-9625984D02*
X15446372Y-9425984D01*
X15446372Y-9425984D02*
X15427325Y-9454555D01*
X15427325Y-9454555D02*
X15408277Y-9473603D01*
X15408277Y-9473603D02*
X15389229Y-9483127D01*
X15627325Y-9425984D02*
X15646372Y-9425984D01*
X15646372Y-9425984D02*
X15665420Y-9435508D01*
X15665420Y-9435508D02*
X15674944Y-9445031D01*
X15674944Y-9445031D02*
X15684468Y-9464079D01*
X15684468Y-9464079D02*
X15693991Y-9502174D01*
X15693991Y-9502174D02*
X15693991Y-9549793D01*
X15693991Y-9549793D02*
X15684468Y-9587889D01*
X15684468Y-9587889D02*
X15674944Y-9606936D01*
X15674944Y-9606936D02*
X15665420Y-9616460D01*
X15665420Y-9616460D02*
X15646372Y-9625984D01*
X15646372Y-9625984D02*
X15627325Y-9625984D01*
X15627325Y-9625984D02*
X15608277Y-9616460D01*
X15608277Y-9616460D02*
X15598753Y-9606936D01*
X15598753Y-9606936D02*
X15589229Y-9587889D01*
X15589229Y-9587889D02*
X15579706Y-9549793D01*
X15579706Y-9549793D02*
X15579706Y-9502174D01*
X15579706Y-9502174D02*
X15589229Y-9464079D01*
X15589229Y-9464079D02*
X15598753Y-9445031D01*
X15598753Y-9445031D02*
X15608277Y-9435508D01*
X15608277Y-9435508D02*
X15627325Y-9425984D01*
X15932087Y-9625984D02*
X15932087Y-9425984D01*
X16017801Y-9625984D02*
X16017801Y-9521222D01*
X16017801Y-9521222D02*
X16008277Y-9502174D01*
X16008277Y-9502174D02*
X15989230Y-9492650D01*
X15989230Y-9492650D02*
X15960658Y-9492650D01*
X15960658Y-9492650D02*
X15941610Y-9502174D01*
X15941610Y-9502174D02*
X15932087Y-9511698D01*
X16141610Y-9625984D02*
X16122563Y-9616460D01*
X16122563Y-9616460D02*
X16113039Y-9606936D01*
X16113039Y-9606936D02*
X16103515Y-9587889D01*
X16103515Y-9587889D02*
X16103515Y-9530746D01*
X16103515Y-9530746D02*
X16113039Y-9511698D01*
X16113039Y-9511698D02*
X16122563Y-9502174D01*
X16122563Y-9502174D02*
X16141610Y-9492650D01*
X16141610Y-9492650D02*
X16170182Y-9492650D01*
X16170182Y-9492650D02*
X16189230Y-9502174D01*
X16189230Y-9502174D02*
X16198753Y-9511698D01*
X16198753Y-9511698D02*
X16208277Y-9530746D01*
X16208277Y-9530746D02*
X16208277Y-9587889D01*
X16208277Y-9587889D02*
X16198753Y-9606936D01*
X16198753Y-9606936D02*
X16189230Y-9616460D01*
X16189230Y-9616460D02*
X16170182Y-9625984D01*
X16170182Y-9625984D02*
X16141610Y-9625984D01*
X16322563Y-9625984D02*
X16303515Y-9616460D01*
X16303515Y-9616460D02*
X16293991Y-9597412D01*
X16293991Y-9597412D02*
X16293991Y-9425984D01*
X16474944Y-9616460D02*
X16455896Y-9625984D01*
X16455896Y-9625984D02*
X16417801Y-9625984D01*
X16417801Y-9625984D02*
X16398753Y-9616460D01*
X16398753Y-9616460D02*
X16389230Y-9597412D01*
X16389230Y-9597412D02*
X16389230Y-9521222D01*
X16389230Y-9521222D02*
X16398753Y-9502174D01*
X16398753Y-9502174D02*
X16417801Y-9492650D01*
X16417801Y-9492650D02*
X16455896Y-9492650D01*
X16455896Y-9492650D02*
X16474944Y-9502174D01*
X16474944Y-9502174D02*
X16484468Y-9521222D01*
X16484468Y-9521222D02*
X16484468Y-9540270D01*
X16484468Y-9540270D02*
X16389230Y-9559317D01*
X16560658Y-9616460D02*
X16579706Y-9625984D01*
X16579706Y-9625984D02*
X16617801Y-9625984D01*
X16617801Y-9625984D02*
X16636849Y-9616460D01*
X16636849Y-9616460D02*
X16646372Y-9597412D01*
X16646372Y-9597412D02*
X16646372Y-9587889D01*
X16646372Y-9587889D02*
X16636849Y-9568841D01*
X16636849Y-9568841D02*
X16617801Y-9559317D01*
X16617801Y-9559317D02*
X16589230Y-9559317D01*
X16589230Y-9559317D02*
X16570182Y-9549793D01*
X16570182Y-9549793D02*
X16560658Y-9530746D01*
X16560658Y-9530746D02*
X16560658Y-9521222D01*
X16560658Y-9521222D02*
X16570182Y-9502174D01*
X16570182Y-9502174D02*
X16589230Y-9492650D01*
X16589230Y-9492650D02*
X16617801Y-9492650D01*
X16617801Y-9492650D02*
X16636849Y-9502174D01*
X16713039Y-9702174D02*
X16722563Y-9692650D01*
X16722563Y-9692650D02*
X16741611Y-9664079D01*
X16741611Y-9664079D02*
X16751134Y-9645031D01*
X16751134Y-9645031D02*
X16760658Y-9616460D01*
X16760658Y-9616460D02*
X16770182Y-9568841D01*
X16770182Y-9568841D02*
X16770182Y-9530746D01*
X16770182Y-9530746D02*
X16760658Y-9483127D01*
X16760658Y-9483127D02*
X16751134Y-9454555D01*
X16751134Y-9454555D02*
X16741611Y-9435508D01*
X16741611Y-9435508D02*
X16722563Y-9406936D01*
X16722563Y-9406936D02*
X16713039Y-9397412D01*
X11647500Y-9898500D02*
X11747500Y-9798500D01*
X11647500Y-9698500D01*
X11547500Y-9798500D01*
X11647500Y-9898500D01*
X11998753Y-9709031D02*
X12008277Y-9699508D01*
X12008277Y-9699508D02*
X12027324Y-9689984D01*
X12027324Y-9689984D02*
X12074943Y-9689984D01*
X12074943Y-9689984D02*
X12093991Y-9699508D01*
X12093991Y-9699508D02*
X12103515Y-9709031D01*
X12103515Y-9709031D02*
X12113039Y-9728079D01*
X12113039Y-9728079D02*
X12113039Y-9747127D01*
X12113039Y-9747127D02*
X12103515Y-9775698D01*
X12103515Y-9775698D02*
X11989229Y-9889984D01*
X11989229Y-9889984D02*
X12113039Y-9889984D01*
X12198753Y-9870936D02*
X12208277Y-9880460D01*
X12208277Y-9880460D02*
X12198753Y-9889984D01*
X12198753Y-9889984D02*
X12189229Y-9880460D01*
X12189229Y-9880460D02*
X12198753Y-9870936D01*
X12198753Y-9870936D02*
X12198753Y-9889984D01*
X12332086Y-9689984D02*
X12351134Y-9689984D01*
X12351134Y-9689984D02*
X12370182Y-9699508D01*
X12370182Y-9699508D02*
X12379705Y-9709031D01*
X12379705Y-9709031D02*
X12389229Y-9728079D01*
X12389229Y-9728079D02*
X12398753Y-9766174D01*
X12398753Y-9766174D02*
X12398753Y-9813793D01*
X12398753Y-9813793D02*
X12389229Y-9851889D01*
X12389229Y-9851889D02*
X12379705Y-9870936D01*
X12379705Y-9870936D02*
X12370182Y-9880460D01*
X12370182Y-9880460D02*
X12351134Y-9889984D01*
X12351134Y-9889984D02*
X12332086Y-9889984D01*
X12332086Y-9889984D02*
X12313039Y-9880460D01*
X12313039Y-9880460D02*
X12303515Y-9870936D01*
X12303515Y-9870936D02*
X12293991Y-9851889D01*
X12293991Y-9851889D02*
X12284467Y-9813793D01*
X12284467Y-9813793D02*
X12284467Y-9766174D01*
X12284467Y-9766174D02*
X12293991Y-9728079D01*
X12293991Y-9728079D02*
X12303515Y-9709031D01*
X12303515Y-9709031D02*
X12313039Y-9699508D01*
X12313039Y-9699508D02*
X12332086Y-9689984D01*
X12522562Y-9689984D02*
X12541610Y-9689984D01*
X12541610Y-9689984D02*
X12560658Y-9699508D01*
X12560658Y-9699508D02*
X12570182Y-9709031D01*
X12570182Y-9709031D02*
X12579705Y-9728079D01*
X12579705Y-9728079D02*
X12589229Y-9766174D01*
X12589229Y-9766174D02*
X12589229Y-9813793D01*
X12589229Y-9813793D02*
X12579705Y-9851889D01*
X12579705Y-9851889D02*
X12570182Y-9870936D01*
X12570182Y-9870936D02*
X12560658Y-9880460D01*
X12560658Y-9880460D02*
X12541610Y-9889984D01*
X12541610Y-9889984D02*
X12522562Y-9889984D01*
X12522562Y-9889984D02*
X12503515Y-9880460D01*
X12503515Y-9880460D02*
X12493991Y-9870936D01*
X12493991Y-9870936D02*
X12484467Y-9851889D01*
X12484467Y-9851889D02*
X12474943Y-9813793D01*
X12474943Y-9813793D02*
X12474943Y-9766174D01*
X12474943Y-9766174D02*
X12484467Y-9728079D01*
X12484467Y-9728079D02*
X12493991Y-9709031D01*
X12493991Y-9709031D02*
X12503515Y-9699508D01*
X12503515Y-9699508D02*
X12522562Y-9689984D01*
X12713039Y-9689984D02*
X12732086Y-9689984D01*
X12732086Y-9689984D02*
X12751134Y-9699508D01*
X12751134Y-9699508D02*
X12760658Y-9709031D01*
X12760658Y-9709031D02*
X12770182Y-9728079D01*
X12770182Y-9728079D02*
X12779705Y-9766174D01*
X12779705Y-9766174D02*
X12779705Y-9813793D01*
X12779705Y-9813793D02*
X12770182Y-9851889D01*
X12770182Y-9851889D02*
X12760658Y-9870936D01*
X12760658Y-9870936D02*
X12751134Y-9880460D01*
X12751134Y-9880460D02*
X12732086Y-9889984D01*
X12732086Y-9889984D02*
X12713039Y-9889984D01*
X12713039Y-9889984D02*
X12693991Y-9880460D01*
X12693991Y-9880460D02*
X12684467Y-9870936D01*
X12684467Y-9870936D02*
X12674943Y-9851889D01*
X12674943Y-9851889D02*
X12665420Y-9813793D01*
X12665420Y-9813793D02*
X12665420Y-9766174D01*
X12665420Y-9766174D02*
X12674943Y-9728079D01*
X12674943Y-9728079D02*
X12684467Y-9709031D01*
X12684467Y-9709031D02*
X12693991Y-9699508D01*
X12693991Y-9699508D02*
X12713039Y-9689984D01*
X12865420Y-9889984D02*
X12865420Y-9756650D01*
X12865420Y-9775698D02*
X12874943Y-9766174D01*
X12874943Y-9766174D02*
X12893991Y-9756650D01*
X12893991Y-9756650D02*
X12922563Y-9756650D01*
X12922563Y-9756650D02*
X12941610Y-9766174D01*
X12941610Y-9766174D02*
X12951134Y-9785222D01*
X12951134Y-9785222D02*
X12951134Y-9889984D01*
X12951134Y-9785222D02*
X12960658Y-9766174D01*
X12960658Y-9766174D02*
X12979705Y-9756650D01*
X12979705Y-9756650D02*
X13008277Y-9756650D01*
X13008277Y-9756650D02*
X13027324Y-9766174D01*
X13027324Y-9766174D02*
X13036848Y-9785222D01*
X13036848Y-9785222D02*
X13036848Y-9889984D01*
X13132086Y-9889984D02*
X13132086Y-9756650D01*
X13132086Y-9775698D02*
X13141610Y-9766174D01*
X13141610Y-9766174D02*
X13160658Y-9756650D01*
X13160658Y-9756650D02*
X13189229Y-9756650D01*
X13189229Y-9756650D02*
X13208277Y-9766174D01*
X13208277Y-9766174D02*
X13217801Y-9785222D01*
X13217801Y-9785222D02*
X13217801Y-9889984D01*
X13217801Y-9785222D02*
X13227324Y-9766174D01*
X13227324Y-9766174D02*
X13246372Y-9756650D01*
X13246372Y-9756650D02*
X13274943Y-9756650D01*
X13274943Y-9756650D02*
X13293991Y-9766174D01*
X13293991Y-9766174D02*
X13303515Y-9785222D01*
X13303515Y-9785222D02*
X13303515Y-9889984D01*
X13693991Y-9680460D02*
X13522563Y-9937603D01*
X13951134Y-9689984D02*
X13970182Y-9689984D01*
X13970182Y-9689984D02*
X13989229Y-9699508D01*
X13989229Y-9699508D02*
X13998753Y-9709031D01*
X13998753Y-9709031D02*
X14008277Y-9728079D01*
X14008277Y-9728079D02*
X14017801Y-9766174D01*
X14017801Y-9766174D02*
X14017801Y-9813793D01*
X14017801Y-9813793D02*
X14008277Y-9851889D01*
X14008277Y-9851889D02*
X13998753Y-9870936D01*
X13998753Y-9870936D02*
X13989229Y-9880460D01*
X13989229Y-9880460D02*
X13970182Y-9889984D01*
X13970182Y-9889984D02*
X13951134Y-9889984D01*
X13951134Y-9889984D02*
X13932086Y-9880460D01*
X13932086Y-9880460D02*
X13922563Y-9870936D01*
X13922563Y-9870936D02*
X13913039Y-9851889D01*
X13913039Y-9851889D02*
X13903515Y-9813793D01*
X13903515Y-9813793D02*
X13903515Y-9766174D01*
X13903515Y-9766174D02*
X13913039Y-9728079D01*
X13913039Y-9728079D02*
X13922563Y-9709031D01*
X13922563Y-9709031D02*
X13932086Y-9699508D01*
X13932086Y-9699508D02*
X13951134Y-9689984D01*
X14103515Y-9870936D02*
X14113039Y-9880460D01*
X14113039Y-9880460D02*
X14103515Y-9889984D01*
X14103515Y-9889984D02*
X14093991Y-9880460D01*
X14093991Y-9880460D02*
X14103515Y-9870936D01*
X14103515Y-9870936D02*
X14103515Y-9889984D01*
X14236848Y-9689984D02*
X14255896Y-9689984D01*
X14255896Y-9689984D02*
X14274944Y-9699508D01*
X14274944Y-9699508D02*
X14284467Y-9709031D01*
X14284467Y-9709031D02*
X14293991Y-9728079D01*
X14293991Y-9728079D02*
X14303515Y-9766174D01*
X14303515Y-9766174D02*
X14303515Y-9813793D01*
X14303515Y-9813793D02*
X14293991Y-9851889D01*
X14293991Y-9851889D02*
X14284467Y-9870936D01*
X14284467Y-9870936D02*
X14274944Y-9880460D01*
X14274944Y-9880460D02*
X14255896Y-9889984D01*
X14255896Y-9889984D02*
X14236848Y-9889984D01*
X14236848Y-9889984D02*
X14217801Y-9880460D01*
X14217801Y-9880460D02*
X14208277Y-9870936D01*
X14208277Y-9870936D02*
X14198753Y-9851889D01*
X14198753Y-9851889D02*
X14189229Y-9813793D01*
X14189229Y-9813793D02*
X14189229Y-9766174D01*
X14189229Y-9766174D02*
X14198753Y-9728079D01*
X14198753Y-9728079D02*
X14208277Y-9709031D01*
X14208277Y-9709031D02*
X14217801Y-9699508D01*
X14217801Y-9699508D02*
X14236848Y-9689984D01*
X14370182Y-9689984D02*
X14503515Y-9689984D01*
X14503515Y-9689984D02*
X14417801Y-9889984D01*
X14608277Y-9775698D02*
X14589229Y-9766174D01*
X14589229Y-9766174D02*
X14579706Y-9756650D01*
X14579706Y-9756650D02*
X14570182Y-9737603D01*
X14570182Y-9737603D02*
X14570182Y-9728079D01*
X14570182Y-9728079D02*
X14579706Y-9709031D01*
X14579706Y-9709031D02*
X14589229Y-9699508D01*
X14589229Y-9699508D02*
X14608277Y-9689984D01*
X14608277Y-9689984D02*
X14646372Y-9689984D01*
X14646372Y-9689984D02*
X14665420Y-9699508D01*
X14665420Y-9699508D02*
X14674944Y-9709031D01*
X14674944Y-9709031D02*
X14684467Y-9728079D01*
X14684467Y-9728079D02*
X14684467Y-9737603D01*
X14684467Y-9737603D02*
X14674944Y-9756650D01*
X14674944Y-9756650D02*
X14665420Y-9766174D01*
X14665420Y-9766174D02*
X14646372Y-9775698D01*
X14646372Y-9775698D02*
X14608277Y-9775698D01*
X14608277Y-9775698D02*
X14589229Y-9785222D01*
X14589229Y-9785222D02*
X14579706Y-9794746D01*
X14579706Y-9794746D02*
X14570182Y-9813793D01*
X14570182Y-9813793D02*
X14570182Y-9851889D01*
X14570182Y-9851889D02*
X14579706Y-9870936D01*
X14579706Y-9870936D02*
X14589229Y-9880460D01*
X14589229Y-9880460D02*
X14608277Y-9889984D01*
X14608277Y-9889984D02*
X14646372Y-9889984D01*
X14646372Y-9889984D02*
X14665420Y-9880460D01*
X14665420Y-9880460D02*
X14674944Y-9870936D01*
X14674944Y-9870936D02*
X14684467Y-9851889D01*
X14684467Y-9851889D02*
X14684467Y-9813793D01*
X14684467Y-9813793D02*
X14674944Y-9794746D01*
X14674944Y-9794746D02*
X14665420Y-9785222D01*
X14665420Y-9785222D02*
X14646372Y-9775698D01*
X14751134Y-9689984D02*
X14884467Y-9689984D01*
X14884467Y-9689984D02*
X14798753Y-9889984D01*
X14951134Y-9689984D02*
X14951134Y-9728079D01*
X15027325Y-9689984D02*
X15027325Y-9728079D01*
X15322563Y-9966174D02*
X15313039Y-9956650D01*
X15313039Y-9956650D02*
X15293991Y-9928079D01*
X15293991Y-9928079D02*
X15284468Y-9909031D01*
X15284468Y-9909031D02*
X15274944Y-9880460D01*
X15274944Y-9880460D02*
X15265420Y-9832841D01*
X15265420Y-9832841D02*
X15265420Y-9794746D01*
X15265420Y-9794746D02*
X15274944Y-9747127D01*
X15274944Y-9747127D02*
X15284468Y-9718555D01*
X15284468Y-9718555D02*
X15293991Y-9699508D01*
X15293991Y-9699508D02*
X15313039Y-9670936D01*
X15313039Y-9670936D02*
X15322563Y-9661412D01*
X15484468Y-9756650D02*
X15484468Y-9889984D01*
X15436848Y-9680460D02*
X15389229Y-9823317D01*
X15389229Y-9823317D02*
X15513039Y-9823317D01*
X15741610Y-9889984D02*
X15741610Y-9689984D01*
X15827325Y-9889984D02*
X15827325Y-9785222D01*
X15827325Y-9785222D02*
X15817801Y-9766174D01*
X15817801Y-9766174D02*
X15798753Y-9756650D01*
X15798753Y-9756650D02*
X15770182Y-9756650D01*
X15770182Y-9756650D02*
X15751134Y-9766174D01*
X15751134Y-9766174D02*
X15741610Y-9775698D01*
X15951134Y-9889984D02*
X15932087Y-9880460D01*
X15932087Y-9880460D02*
X15922563Y-9870936D01*
X15922563Y-9870936D02*
X15913039Y-9851889D01*
X15913039Y-9851889D02*
X15913039Y-9794746D01*
X15913039Y-9794746D02*
X15922563Y-9775698D01*
X15922563Y-9775698D02*
X15932087Y-9766174D01*
X15932087Y-9766174D02*
X15951134Y-9756650D01*
X15951134Y-9756650D02*
X15979706Y-9756650D01*
X15979706Y-9756650D02*
X15998753Y-9766174D01*
X15998753Y-9766174D02*
X16008277Y-9775698D01*
X16008277Y-9775698D02*
X16017801Y-9794746D01*
X16017801Y-9794746D02*
X16017801Y-9851889D01*
X16017801Y-9851889D02*
X16008277Y-9870936D01*
X16008277Y-9870936D02*
X15998753Y-9880460D01*
X15998753Y-9880460D02*
X15979706Y-9889984D01*
X15979706Y-9889984D02*
X15951134Y-9889984D01*
X16132087Y-9889984D02*
X16113039Y-9880460D01*
X16113039Y-9880460D02*
X16103515Y-9861412D01*
X16103515Y-9861412D02*
X16103515Y-9689984D01*
X16284468Y-9880460D02*
X16265420Y-9889984D01*
X16265420Y-9889984D02*
X16227325Y-9889984D01*
X16227325Y-9889984D02*
X16208277Y-9880460D01*
X16208277Y-9880460D02*
X16198753Y-9861412D01*
X16198753Y-9861412D02*
X16198753Y-9785222D01*
X16198753Y-9785222D02*
X16208277Y-9766174D01*
X16208277Y-9766174D02*
X16227325Y-9756650D01*
X16227325Y-9756650D02*
X16265420Y-9756650D01*
X16265420Y-9756650D02*
X16284468Y-9766174D01*
X16284468Y-9766174D02*
X16293991Y-9785222D01*
X16293991Y-9785222D02*
X16293991Y-9804270D01*
X16293991Y-9804270D02*
X16198753Y-9823317D01*
X16370182Y-9880460D02*
X16389230Y-9889984D01*
X16389230Y-9889984D02*
X16427325Y-9889984D01*
X16427325Y-9889984D02*
X16446372Y-9880460D01*
X16446372Y-9880460D02*
X16455896Y-9861412D01*
X16455896Y-9861412D02*
X16455896Y-9851889D01*
X16455896Y-9851889D02*
X16446372Y-9832841D01*
X16446372Y-9832841D02*
X16427325Y-9823317D01*
X16427325Y-9823317D02*
X16398753Y-9823317D01*
X16398753Y-9823317D02*
X16379706Y-9813793D01*
X16379706Y-9813793D02*
X16370182Y-9794746D01*
X16370182Y-9794746D02*
X16370182Y-9785222D01*
X16370182Y-9785222D02*
X16379706Y-9766174D01*
X16379706Y-9766174D02*
X16398753Y-9756650D01*
X16398753Y-9756650D02*
X16427325Y-9756650D01*
X16427325Y-9756650D02*
X16446372Y-9766174D01*
X16522563Y-9966174D02*
X16532087Y-9956650D01*
X16532087Y-9956650D02*
X16551134Y-9928079D01*
X16551134Y-9928079D02*
X16560658Y-9909031D01*
X16560658Y-9909031D02*
X16570182Y-9880460D01*
X16570182Y-9880460D02*
X16579706Y-9832841D01*
X16579706Y-9832841D02*
X16579706Y-9794746D01*
X16579706Y-9794746D02*
X16570182Y-9747127D01*
X16570182Y-9747127D02*
X16560658Y-9718555D01*
X16560658Y-9718555D02*
X16551134Y-9699508D01*
X16551134Y-9699508D02*
X16532087Y-9670936D01*
X16532087Y-9670936D02*
X16522563Y-9661412D01*
M02*
