G04 #@! TF.GenerationSoftware,KiCad,Pcbnew,8.0.7*
G04 #@! TF.CreationDate,2025-01-30T16:18:45+01:00*
G04 #@! TF.ProjectId,schematics,73636865-6d61-4746-9963-732e6b696361,rev?*
G04 #@! TF.SameCoordinates,Original*
G04 #@! TF.FileFunction,Legend,Top*
G04 #@! TF.FilePolarity,Positive*
%FSLAX46Y46*%
G04 Gerber Fmt 4.6, Leading zero omitted, Abs format (unit mm)*
G04 Created by KiCad (PCBNEW 8.0.7) date 2025-01-30 16:18:45*
%MOMM*%
%LPD*%
G01*
G04 APERTURE LIST*
G04 Aperture macros list*
%AMRoundRect*
0 Rectangle with rounded corners*
0 $1 Rounding radius*
0 $2 $3 $4 $5 $6 $7 $8 $9 X,Y pos of 4 corners*
0 Add a 4 corners polygon primitive as box body*
4,1,4,$2,$3,$4,$5,$6,$7,$8,$9,$2,$3,0*
0 Add four circle primitives for the rounded corners*
1,1,$1+$1,$2,$3*
1,1,$1+$1,$4,$5*
1,1,$1+$1,$6,$7*
1,1,$1+$1,$8,$9*
0 Add four rect primitives between the rounded corners*
20,1,$1+$1,$2,$3,$4,$5,0*
20,1,$1+$1,$4,$5,$6,$7,0*
20,1,$1+$1,$6,$7,$8,$9,0*
20,1,$1+$1,$8,$9,$2,$3,0*%
G04 Aperture macros list end*
%ADD10C,0.100000*%
%ADD11C,0.250000*%
%ADD12C,0.150000*%
%ADD13C,0.254000*%
%ADD14C,0.200000*%
%ADD15C,0.127000*%
%ADD16C,0.120000*%
%ADD17R,0.470000X0.440000*%
%ADD18R,1.100000X1.100000*%
%ADD19C,1.100000*%
%ADD20R,1.200000X1.200000*%
%ADD21C,1.200000*%
%ADD22R,1.450000X1.150000*%
%ADD23R,1.150000X1.450000*%
%ADD24R,1.150000X1.700000*%
%ADD25RoundRect,0.102000X-0.750000X0.750000X-0.750000X-0.750000X0.750000X-0.750000X0.750000X0.750000X0*%
%ADD26C,1.704000*%
%ADD27RoundRect,0.180000X0.180000X0.230000X-0.180000X0.230000X-0.180000X-0.230000X0.180000X-0.230000X0*%
%ADD28R,1.650000X1.650000*%
%ADD29C,1.650000*%
%ADD30R,0.620000X0.620000*%
%ADD31R,1.850000X2.750000*%
%ADD32R,1.250000X1.500000*%
%ADD33RoundRect,0.100000X-0.225000X-0.100000X0.225000X-0.100000X0.225000X0.100000X-0.225000X0.100000X0*%
%ADD34R,2.200000X3.000000*%
%ADD35R,1.850000X0.650000*%
G04 APERTURE END LIST*
D10*
X153499999Y-76743800D02*
X153585714Y-76772371D01*
X153585714Y-76772371D02*
X153728571Y-76772371D01*
X153728571Y-76772371D02*
X153785714Y-76743800D01*
X153785714Y-76743800D02*
X153814285Y-76715228D01*
X153814285Y-76715228D02*
X153842856Y-76658085D01*
X153842856Y-76658085D02*
X153842856Y-76600942D01*
X153842856Y-76600942D02*
X153814285Y-76543800D01*
X153814285Y-76543800D02*
X153785714Y-76515228D01*
X153785714Y-76515228D02*
X153728571Y-76486657D01*
X153728571Y-76486657D02*
X153614285Y-76458085D01*
X153614285Y-76458085D02*
X153557142Y-76429514D01*
X153557142Y-76429514D02*
X153528571Y-76400942D01*
X153528571Y-76400942D02*
X153499999Y-76343800D01*
X153499999Y-76343800D02*
X153499999Y-76286657D01*
X153499999Y-76286657D02*
X153528571Y-76229514D01*
X153528571Y-76229514D02*
X153557142Y-76200942D01*
X153557142Y-76200942D02*
X153614285Y-76172371D01*
X153614285Y-76172371D02*
X153757142Y-76172371D01*
X153757142Y-76172371D02*
X153842856Y-76200942D01*
X154442857Y-76715228D02*
X154414285Y-76743800D01*
X154414285Y-76743800D02*
X154328571Y-76772371D01*
X154328571Y-76772371D02*
X154271428Y-76772371D01*
X154271428Y-76772371D02*
X154185714Y-76743800D01*
X154185714Y-76743800D02*
X154128571Y-76686657D01*
X154128571Y-76686657D02*
X154100000Y-76629514D01*
X154100000Y-76629514D02*
X154071428Y-76515228D01*
X154071428Y-76515228D02*
X154071428Y-76429514D01*
X154071428Y-76429514D02*
X154100000Y-76315228D01*
X154100000Y-76315228D02*
X154128571Y-76258085D01*
X154128571Y-76258085D02*
X154185714Y-76200942D01*
X154185714Y-76200942D02*
X154271428Y-76172371D01*
X154271428Y-76172371D02*
X154328571Y-76172371D01*
X154328571Y-76172371D02*
X154414285Y-76200942D01*
X154414285Y-76200942D02*
X154442857Y-76229514D01*
X154985714Y-76772371D02*
X154700000Y-76772371D01*
X154700000Y-76772371D02*
X154700000Y-76172371D01*
X155499999Y-76772371D02*
X155157142Y-76772371D01*
X155328571Y-76772371D02*
X155328571Y-76172371D01*
X155328571Y-76172371D02*
X155271428Y-76258085D01*
X155271428Y-76258085D02*
X155214285Y-76315228D01*
X155214285Y-76315228D02*
X155157142Y-76343800D01*
X158114285Y-68215228D02*
X158085713Y-68243800D01*
X158085713Y-68243800D02*
X157999999Y-68272371D01*
X157999999Y-68272371D02*
X157942856Y-68272371D01*
X157942856Y-68272371D02*
X157857142Y-68243800D01*
X157857142Y-68243800D02*
X157799999Y-68186657D01*
X157799999Y-68186657D02*
X157771428Y-68129514D01*
X157771428Y-68129514D02*
X157742856Y-68015228D01*
X157742856Y-68015228D02*
X157742856Y-67929514D01*
X157742856Y-67929514D02*
X157771428Y-67815228D01*
X157771428Y-67815228D02*
X157799999Y-67758085D01*
X157799999Y-67758085D02*
X157857142Y-67700942D01*
X157857142Y-67700942D02*
X157942856Y-67672371D01*
X157942856Y-67672371D02*
X157999999Y-67672371D01*
X157999999Y-67672371D02*
X158085713Y-67700942D01*
X158085713Y-67700942D02*
X158114285Y-67729514D01*
X158685713Y-68272371D02*
X158342856Y-68272371D01*
X158514285Y-68272371D02*
X158514285Y-67672371D01*
X158514285Y-67672371D02*
X158457142Y-67758085D01*
X158457142Y-67758085D02*
X158399999Y-67815228D01*
X158399999Y-67815228D02*
X158342856Y-67843800D01*
X158914285Y-67729514D02*
X158942857Y-67700942D01*
X158942857Y-67700942D02*
X159000000Y-67672371D01*
X159000000Y-67672371D02*
X159142857Y-67672371D01*
X159142857Y-67672371D02*
X159200000Y-67700942D01*
X159200000Y-67700942D02*
X159228571Y-67729514D01*
X159228571Y-67729514D02*
X159257142Y-67786657D01*
X159257142Y-67786657D02*
X159257142Y-67843800D01*
X159257142Y-67843800D02*
X159228571Y-67929514D01*
X159228571Y-67929514D02*
X158885714Y-68272371D01*
X158885714Y-68272371D02*
X159257142Y-68272371D01*
X120228572Y-57422371D02*
X120228572Y-56822371D01*
X120228572Y-56822371D02*
X120457143Y-56822371D01*
X120457143Y-56822371D02*
X120514286Y-56850942D01*
X120514286Y-56850942D02*
X120542857Y-56879514D01*
X120542857Y-56879514D02*
X120571429Y-56936657D01*
X120571429Y-56936657D02*
X120571429Y-57022371D01*
X120571429Y-57022371D02*
X120542857Y-57079514D01*
X120542857Y-57079514D02*
X120514286Y-57108085D01*
X120514286Y-57108085D02*
X120457143Y-57136657D01*
X120457143Y-57136657D02*
X120228572Y-57136657D01*
X120828572Y-57422371D02*
X120828572Y-56822371D01*
X121457143Y-57365228D02*
X121428571Y-57393800D01*
X121428571Y-57393800D02*
X121342857Y-57422371D01*
X121342857Y-57422371D02*
X121285714Y-57422371D01*
X121285714Y-57422371D02*
X121200000Y-57393800D01*
X121200000Y-57393800D02*
X121142857Y-57336657D01*
X121142857Y-57336657D02*
X121114286Y-57279514D01*
X121114286Y-57279514D02*
X121085714Y-57165228D01*
X121085714Y-57165228D02*
X121085714Y-57079514D01*
X121085714Y-57079514D02*
X121114286Y-56965228D01*
X121114286Y-56965228D02*
X121142857Y-56908085D01*
X121142857Y-56908085D02*
X121200000Y-56850942D01*
X121200000Y-56850942D02*
X121285714Y-56822371D01*
X121285714Y-56822371D02*
X121342857Y-56822371D01*
X121342857Y-56822371D02*
X121428571Y-56850942D01*
X121428571Y-56850942D02*
X121457143Y-56879514D01*
X121714286Y-57422371D02*
X121714286Y-56822371D01*
X122057143Y-57422371D02*
X121800000Y-57079514D01*
X122057143Y-56822371D02*
X121714286Y-57165228D01*
X122314286Y-57422371D02*
X122314286Y-56822371D01*
X122514285Y-56822371D02*
X122857143Y-56822371D01*
X122685714Y-57422371D02*
X122685714Y-56822371D01*
X148042857Y-76200942D02*
X147985715Y-76172371D01*
X147985715Y-76172371D02*
X147900000Y-76172371D01*
X147900000Y-76172371D02*
X147814286Y-76200942D01*
X147814286Y-76200942D02*
X147757143Y-76258085D01*
X147757143Y-76258085D02*
X147728572Y-76315228D01*
X147728572Y-76315228D02*
X147700000Y-76429514D01*
X147700000Y-76429514D02*
X147700000Y-76515228D01*
X147700000Y-76515228D02*
X147728572Y-76629514D01*
X147728572Y-76629514D02*
X147757143Y-76686657D01*
X147757143Y-76686657D02*
X147814286Y-76743800D01*
X147814286Y-76743800D02*
X147900000Y-76772371D01*
X147900000Y-76772371D02*
X147957143Y-76772371D01*
X147957143Y-76772371D02*
X148042857Y-76743800D01*
X148042857Y-76743800D02*
X148071429Y-76715228D01*
X148071429Y-76715228D02*
X148071429Y-76515228D01*
X148071429Y-76515228D02*
X147957143Y-76515228D01*
X148328572Y-76772371D02*
X148328572Y-76172371D01*
X148328572Y-76172371D02*
X148671429Y-76772371D01*
X148671429Y-76772371D02*
X148671429Y-76172371D01*
X148957143Y-76772371D02*
X148957143Y-76172371D01*
X148957143Y-76172371D02*
X149100000Y-76172371D01*
X149100000Y-76172371D02*
X149185714Y-76200942D01*
X149185714Y-76200942D02*
X149242857Y-76258085D01*
X149242857Y-76258085D02*
X149271428Y-76315228D01*
X149271428Y-76315228D02*
X149300000Y-76429514D01*
X149300000Y-76429514D02*
X149300000Y-76515228D01*
X149300000Y-76515228D02*
X149271428Y-76629514D01*
X149271428Y-76629514D02*
X149242857Y-76686657D01*
X149242857Y-76686657D02*
X149185714Y-76743800D01*
X149185714Y-76743800D02*
X149100000Y-76772371D01*
X149100000Y-76772371D02*
X148957143Y-76772371D01*
X126400000Y-67772371D02*
X126200000Y-67486657D01*
X126057143Y-67772371D02*
X126057143Y-67172371D01*
X126057143Y-67172371D02*
X126285714Y-67172371D01*
X126285714Y-67172371D02*
X126342857Y-67200942D01*
X126342857Y-67200942D02*
X126371428Y-67229514D01*
X126371428Y-67229514D02*
X126400000Y-67286657D01*
X126400000Y-67286657D02*
X126400000Y-67372371D01*
X126400000Y-67372371D02*
X126371428Y-67429514D01*
X126371428Y-67429514D02*
X126342857Y-67458085D01*
X126342857Y-67458085D02*
X126285714Y-67486657D01*
X126285714Y-67486657D02*
X126057143Y-67486657D01*
X126628571Y-67229514D02*
X126657143Y-67200942D01*
X126657143Y-67200942D02*
X126714286Y-67172371D01*
X126714286Y-67172371D02*
X126857143Y-67172371D01*
X126857143Y-67172371D02*
X126914286Y-67200942D01*
X126914286Y-67200942D02*
X126942857Y-67229514D01*
X126942857Y-67229514D02*
X126971428Y-67286657D01*
X126971428Y-67286657D02*
X126971428Y-67343800D01*
X126971428Y-67343800D02*
X126942857Y-67429514D01*
X126942857Y-67429514D02*
X126600000Y-67772371D01*
X126600000Y-67772371D02*
X126971428Y-67772371D01*
X118242857Y-67272371D02*
X118242857Y-66672371D01*
X118242857Y-66672371D02*
X118471428Y-66672371D01*
X118471428Y-66672371D02*
X118528571Y-66700942D01*
X118528571Y-66700942D02*
X118557142Y-66729514D01*
X118557142Y-66729514D02*
X118585714Y-66786657D01*
X118585714Y-66786657D02*
X118585714Y-66872371D01*
X118585714Y-66872371D02*
X118557142Y-66929514D01*
X118557142Y-66929514D02*
X118528571Y-66958085D01*
X118528571Y-66958085D02*
X118471428Y-66986657D01*
X118471428Y-66986657D02*
X118242857Y-66986657D01*
X119157142Y-66700942D02*
X119100000Y-66672371D01*
X119100000Y-66672371D02*
X119014285Y-66672371D01*
X119014285Y-66672371D02*
X118928571Y-66700942D01*
X118928571Y-66700942D02*
X118871428Y-66758085D01*
X118871428Y-66758085D02*
X118842857Y-66815228D01*
X118842857Y-66815228D02*
X118814285Y-66929514D01*
X118814285Y-66929514D02*
X118814285Y-67015228D01*
X118814285Y-67015228D02*
X118842857Y-67129514D01*
X118842857Y-67129514D02*
X118871428Y-67186657D01*
X118871428Y-67186657D02*
X118928571Y-67243800D01*
X118928571Y-67243800D02*
X119014285Y-67272371D01*
X119014285Y-67272371D02*
X119071428Y-67272371D01*
X119071428Y-67272371D02*
X119157142Y-67243800D01*
X119157142Y-67243800D02*
X119185714Y-67215228D01*
X119185714Y-67215228D02*
X119185714Y-67015228D01*
X119185714Y-67015228D02*
X119071428Y-67015228D01*
X119785714Y-67215228D02*
X119757142Y-67243800D01*
X119757142Y-67243800D02*
X119671428Y-67272371D01*
X119671428Y-67272371D02*
X119614285Y-67272371D01*
X119614285Y-67272371D02*
X119528571Y-67243800D01*
X119528571Y-67243800D02*
X119471428Y-67186657D01*
X119471428Y-67186657D02*
X119442857Y-67129514D01*
X119442857Y-67129514D02*
X119414285Y-67015228D01*
X119414285Y-67015228D02*
X119414285Y-66929514D01*
X119414285Y-66929514D02*
X119442857Y-66815228D01*
X119442857Y-66815228D02*
X119471428Y-66758085D01*
X119471428Y-66758085D02*
X119528571Y-66700942D01*
X119528571Y-66700942D02*
X119614285Y-66672371D01*
X119614285Y-66672371D02*
X119671428Y-66672371D01*
X119671428Y-66672371D02*
X119757142Y-66700942D01*
X119757142Y-66700942D02*
X119785714Y-66729514D01*
X145400000Y-55715228D02*
X145371428Y-55743800D01*
X145371428Y-55743800D02*
X145285714Y-55772371D01*
X145285714Y-55772371D02*
X145228571Y-55772371D01*
X145228571Y-55772371D02*
X145142857Y-55743800D01*
X145142857Y-55743800D02*
X145085714Y-55686657D01*
X145085714Y-55686657D02*
X145057143Y-55629514D01*
X145057143Y-55629514D02*
X145028571Y-55515228D01*
X145028571Y-55515228D02*
X145028571Y-55429514D01*
X145028571Y-55429514D02*
X145057143Y-55315228D01*
X145057143Y-55315228D02*
X145085714Y-55258085D01*
X145085714Y-55258085D02*
X145142857Y-55200942D01*
X145142857Y-55200942D02*
X145228571Y-55172371D01*
X145228571Y-55172371D02*
X145285714Y-55172371D01*
X145285714Y-55172371D02*
X145371428Y-55200942D01*
X145371428Y-55200942D02*
X145400000Y-55229514D01*
X145742857Y-55429514D02*
X145685714Y-55400942D01*
X145685714Y-55400942D02*
X145657143Y-55372371D01*
X145657143Y-55372371D02*
X145628571Y-55315228D01*
X145628571Y-55315228D02*
X145628571Y-55286657D01*
X145628571Y-55286657D02*
X145657143Y-55229514D01*
X145657143Y-55229514D02*
X145685714Y-55200942D01*
X145685714Y-55200942D02*
X145742857Y-55172371D01*
X145742857Y-55172371D02*
X145857143Y-55172371D01*
X145857143Y-55172371D02*
X145914286Y-55200942D01*
X145914286Y-55200942D02*
X145942857Y-55229514D01*
X145942857Y-55229514D02*
X145971428Y-55286657D01*
X145971428Y-55286657D02*
X145971428Y-55315228D01*
X145971428Y-55315228D02*
X145942857Y-55372371D01*
X145942857Y-55372371D02*
X145914286Y-55400942D01*
X145914286Y-55400942D02*
X145857143Y-55429514D01*
X145857143Y-55429514D02*
X145742857Y-55429514D01*
X145742857Y-55429514D02*
X145685714Y-55458085D01*
X145685714Y-55458085D02*
X145657143Y-55486657D01*
X145657143Y-55486657D02*
X145628571Y-55543800D01*
X145628571Y-55543800D02*
X145628571Y-55658085D01*
X145628571Y-55658085D02*
X145657143Y-55715228D01*
X145657143Y-55715228D02*
X145685714Y-55743800D01*
X145685714Y-55743800D02*
X145742857Y-55772371D01*
X145742857Y-55772371D02*
X145857143Y-55772371D01*
X145857143Y-55772371D02*
X145914286Y-55743800D01*
X145914286Y-55743800D02*
X145942857Y-55715228D01*
X145942857Y-55715228D02*
X145971428Y-55658085D01*
X145971428Y-55658085D02*
X145971428Y-55543800D01*
X145971428Y-55543800D02*
X145942857Y-55486657D01*
X145942857Y-55486657D02*
X145914286Y-55458085D01*
X145914286Y-55458085D02*
X145857143Y-55429514D01*
X150614285Y-72715228D02*
X150585713Y-72743800D01*
X150585713Y-72743800D02*
X150499999Y-72772371D01*
X150499999Y-72772371D02*
X150442856Y-72772371D01*
X150442856Y-72772371D02*
X150357142Y-72743800D01*
X150357142Y-72743800D02*
X150299999Y-72686657D01*
X150299999Y-72686657D02*
X150271428Y-72629514D01*
X150271428Y-72629514D02*
X150242856Y-72515228D01*
X150242856Y-72515228D02*
X150242856Y-72429514D01*
X150242856Y-72429514D02*
X150271428Y-72315228D01*
X150271428Y-72315228D02*
X150299999Y-72258085D01*
X150299999Y-72258085D02*
X150357142Y-72200942D01*
X150357142Y-72200942D02*
X150442856Y-72172371D01*
X150442856Y-72172371D02*
X150499999Y-72172371D01*
X150499999Y-72172371D02*
X150585713Y-72200942D01*
X150585713Y-72200942D02*
X150614285Y-72229514D01*
X151185713Y-72772371D02*
X150842856Y-72772371D01*
X151014285Y-72772371D02*
X151014285Y-72172371D01*
X151014285Y-72172371D02*
X150957142Y-72258085D01*
X150957142Y-72258085D02*
X150899999Y-72315228D01*
X150899999Y-72315228D02*
X150842856Y-72343800D01*
X151700000Y-72372371D02*
X151700000Y-72772371D01*
X151557142Y-72143800D02*
X151414285Y-72572371D01*
X151414285Y-72572371D02*
X151785714Y-72572371D01*
X157542857Y-52700942D02*
X157485715Y-52672371D01*
X157485715Y-52672371D02*
X157400000Y-52672371D01*
X157400000Y-52672371D02*
X157314286Y-52700942D01*
X157314286Y-52700942D02*
X157257143Y-52758085D01*
X157257143Y-52758085D02*
X157228572Y-52815228D01*
X157228572Y-52815228D02*
X157200000Y-52929514D01*
X157200000Y-52929514D02*
X157200000Y-53015228D01*
X157200000Y-53015228D02*
X157228572Y-53129514D01*
X157228572Y-53129514D02*
X157257143Y-53186657D01*
X157257143Y-53186657D02*
X157314286Y-53243800D01*
X157314286Y-53243800D02*
X157400000Y-53272371D01*
X157400000Y-53272371D02*
X157457143Y-53272371D01*
X157457143Y-53272371D02*
X157542857Y-53243800D01*
X157542857Y-53243800D02*
X157571429Y-53215228D01*
X157571429Y-53215228D02*
X157571429Y-53015228D01*
X157571429Y-53015228D02*
X157457143Y-53015228D01*
X157828572Y-53272371D02*
X157828572Y-52672371D01*
X157828572Y-52672371D02*
X158171429Y-53272371D01*
X158171429Y-53272371D02*
X158171429Y-52672371D01*
X158457143Y-53272371D02*
X158457143Y-52672371D01*
X158457143Y-52672371D02*
X158600000Y-52672371D01*
X158600000Y-52672371D02*
X158685714Y-52700942D01*
X158685714Y-52700942D02*
X158742857Y-52758085D01*
X158742857Y-52758085D02*
X158771428Y-52815228D01*
X158771428Y-52815228D02*
X158800000Y-52929514D01*
X158800000Y-52929514D02*
X158800000Y-53015228D01*
X158800000Y-53015228D02*
X158771428Y-53129514D01*
X158771428Y-53129514D02*
X158742857Y-53186657D01*
X158742857Y-53186657D02*
X158685714Y-53243800D01*
X158685714Y-53243800D02*
X158600000Y-53272371D01*
X158600000Y-53272371D02*
X158457143Y-53272371D01*
X118542857Y-69200942D02*
X118485715Y-69172371D01*
X118485715Y-69172371D02*
X118400000Y-69172371D01*
X118400000Y-69172371D02*
X118314286Y-69200942D01*
X118314286Y-69200942D02*
X118257143Y-69258085D01*
X118257143Y-69258085D02*
X118228572Y-69315228D01*
X118228572Y-69315228D02*
X118200000Y-69429514D01*
X118200000Y-69429514D02*
X118200000Y-69515228D01*
X118200000Y-69515228D02*
X118228572Y-69629514D01*
X118228572Y-69629514D02*
X118257143Y-69686657D01*
X118257143Y-69686657D02*
X118314286Y-69743800D01*
X118314286Y-69743800D02*
X118400000Y-69772371D01*
X118400000Y-69772371D02*
X118457143Y-69772371D01*
X118457143Y-69772371D02*
X118542857Y-69743800D01*
X118542857Y-69743800D02*
X118571429Y-69715228D01*
X118571429Y-69715228D02*
X118571429Y-69515228D01*
X118571429Y-69515228D02*
X118457143Y-69515228D01*
X118828572Y-69772371D02*
X118828572Y-69172371D01*
X118828572Y-69172371D02*
X119171429Y-69772371D01*
X119171429Y-69772371D02*
X119171429Y-69172371D01*
X119457143Y-69772371D02*
X119457143Y-69172371D01*
X119457143Y-69172371D02*
X119600000Y-69172371D01*
X119600000Y-69172371D02*
X119685714Y-69200942D01*
X119685714Y-69200942D02*
X119742857Y-69258085D01*
X119742857Y-69258085D02*
X119771428Y-69315228D01*
X119771428Y-69315228D02*
X119800000Y-69429514D01*
X119800000Y-69429514D02*
X119800000Y-69515228D01*
X119800000Y-69515228D02*
X119771428Y-69629514D01*
X119771428Y-69629514D02*
X119742857Y-69686657D01*
X119742857Y-69686657D02*
X119685714Y-69743800D01*
X119685714Y-69743800D02*
X119600000Y-69772371D01*
X119600000Y-69772371D02*
X119457143Y-69772371D01*
D11*
X163925314Y-79083146D02*
X163987219Y-79145050D01*
X163987219Y-79145050D02*
X164049123Y-79330765D01*
X164049123Y-79330765D02*
X164049123Y-79454574D01*
X164049123Y-79454574D02*
X163987219Y-79640288D01*
X163987219Y-79640288D02*
X163863409Y-79764098D01*
X163863409Y-79764098D02*
X163739599Y-79826003D01*
X163739599Y-79826003D02*
X163491980Y-79887907D01*
X163491980Y-79887907D02*
X163306266Y-79887907D01*
X163306266Y-79887907D02*
X163058647Y-79826003D01*
X163058647Y-79826003D02*
X162934838Y-79764098D01*
X162934838Y-79764098D02*
X162811028Y-79640288D01*
X162811028Y-79640288D02*
X162749123Y-79454574D01*
X162749123Y-79454574D02*
X162749123Y-79330765D01*
X162749123Y-79330765D02*
X162811028Y-79145050D01*
X162811028Y-79145050D02*
X162872933Y-79083146D01*
X164049123Y-78340288D02*
X163987219Y-78464098D01*
X163987219Y-78464098D02*
X163925314Y-78526003D01*
X163925314Y-78526003D02*
X163801504Y-78587907D01*
X163801504Y-78587907D02*
X163430076Y-78587907D01*
X163430076Y-78587907D02*
X163306266Y-78526003D01*
X163306266Y-78526003D02*
X163244361Y-78464098D01*
X163244361Y-78464098D02*
X163182457Y-78340288D01*
X163182457Y-78340288D02*
X163182457Y-78154574D01*
X163182457Y-78154574D02*
X163244361Y-78030765D01*
X163244361Y-78030765D02*
X163306266Y-77968860D01*
X163306266Y-77968860D02*
X163430076Y-77906955D01*
X163430076Y-77906955D02*
X163801504Y-77906955D01*
X163801504Y-77906955D02*
X163925314Y-77968860D01*
X163925314Y-77968860D02*
X163987219Y-78030765D01*
X163987219Y-78030765D02*
X164049123Y-78154574D01*
X164049123Y-78154574D02*
X164049123Y-78340288D01*
X164049123Y-77164098D02*
X163987219Y-77287908D01*
X163987219Y-77287908D02*
X163863409Y-77349813D01*
X163863409Y-77349813D02*
X162749123Y-77349813D01*
X164049123Y-76483146D02*
X163987219Y-76606956D01*
X163987219Y-76606956D02*
X163925314Y-76668861D01*
X163925314Y-76668861D02*
X163801504Y-76730765D01*
X163801504Y-76730765D02*
X163430076Y-76730765D01*
X163430076Y-76730765D02*
X163306266Y-76668861D01*
X163306266Y-76668861D02*
X163244361Y-76606956D01*
X163244361Y-76606956D02*
X163182457Y-76483146D01*
X163182457Y-76483146D02*
X163182457Y-76297432D01*
X163182457Y-76297432D02*
X163244361Y-76173623D01*
X163244361Y-76173623D02*
X163306266Y-76111718D01*
X163306266Y-76111718D02*
X163430076Y-76049813D01*
X163430076Y-76049813D02*
X163801504Y-76049813D01*
X163801504Y-76049813D02*
X163925314Y-76111718D01*
X163925314Y-76111718D02*
X163987219Y-76173623D01*
X163987219Y-76173623D02*
X164049123Y-76297432D01*
X164049123Y-76297432D02*
X164049123Y-76483146D01*
X164049123Y-75492671D02*
X163182457Y-75492671D01*
X163430076Y-75492671D02*
X163306266Y-75430766D01*
X163306266Y-75430766D02*
X163244361Y-75368861D01*
X163244361Y-75368861D02*
X163182457Y-75245052D01*
X163182457Y-75245052D02*
X163182457Y-75121242D01*
X163987219Y-74749813D02*
X164049123Y-74564099D01*
X164049123Y-74564099D02*
X164049123Y-74254575D01*
X164049123Y-74254575D02*
X163987219Y-74130766D01*
X163987219Y-74130766D02*
X163925314Y-74068861D01*
X163925314Y-74068861D02*
X163801504Y-74006956D01*
X163801504Y-74006956D02*
X163677695Y-74006956D01*
X163677695Y-74006956D02*
X163553885Y-74068861D01*
X163553885Y-74068861D02*
X163491980Y-74130766D01*
X163491980Y-74130766D02*
X163430076Y-74254575D01*
X163430076Y-74254575D02*
X163368171Y-74502194D01*
X163368171Y-74502194D02*
X163306266Y-74626004D01*
X163306266Y-74626004D02*
X163244361Y-74687909D01*
X163244361Y-74687909D02*
X163120552Y-74749813D01*
X163120552Y-74749813D02*
X162996742Y-74749813D01*
X162996742Y-74749813D02*
X162872933Y-74687909D01*
X162872933Y-74687909D02*
X162811028Y-74626004D01*
X162811028Y-74626004D02*
X162749123Y-74502194D01*
X162749123Y-74502194D02*
X162749123Y-74192671D01*
X162749123Y-74192671D02*
X162811028Y-74006956D01*
X164049123Y-73264099D02*
X163987219Y-73387909D01*
X163987219Y-73387909D02*
X163925314Y-73449814D01*
X163925314Y-73449814D02*
X163801504Y-73511718D01*
X163801504Y-73511718D02*
X163430076Y-73511718D01*
X163430076Y-73511718D02*
X163306266Y-73449814D01*
X163306266Y-73449814D02*
X163244361Y-73387909D01*
X163244361Y-73387909D02*
X163182457Y-73264099D01*
X163182457Y-73264099D02*
X163182457Y-73078385D01*
X163182457Y-73078385D02*
X163244361Y-72954576D01*
X163244361Y-72954576D02*
X163306266Y-72892671D01*
X163306266Y-72892671D02*
X163430076Y-72830766D01*
X163430076Y-72830766D02*
X163801504Y-72830766D01*
X163801504Y-72830766D02*
X163925314Y-72892671D01*
X163925314Y-72892671D02*
X163987219Y-72954576D01*
X163987219Y-72954576D02*
X164049123Y-73078385D01*
X164049123Y-73078385D02*
X164049123Y-73264099D01*
X164049123Y-72273624D02*
X163182457Y-72273624D01*
X163430076Y-72273624D02*
X163306266Y-72211719D01*
X163306266Y-72211719D02*
X163244361Y-72149814D01*
X163244361Y-72149814D02*
X163182457Y-72026005D01*
X163182457Y-72026005D02*
X163182457Y-71902195D01*
X163182457Y-71654576D02*
X163182457Y-71159338D01*
X162749123Y-71468862D02*
X163863409Y-71468862D01*
X163863409Y-71468862D02*
X163987219Y-71406957D01*
X163987219Y-71406957D02*
X164049123Y-71283147D01*
X164049123Y-71283147D02*
X164049123Y-71159338D01*
X163987219Y-70230767D02*
X164049123Y-70354576D01*
X164049123Y-70354576D02*
X164049123Y-70602195D01*
X164049123Y-70602195D02*
X163987219Y-70726005D01*
X163987219Y-70726005D02*
X163863409Y-70787909D01*
X163863409Y-70787909D02*
X163368171Y-70787909D01*
X163368171Y-70787909D02*
X163244361Y-70726005D01*
X163244361Y-70726005D02*
X163182457Y-70602195D01*
X163182457Y-70602195D02*
X163182457Y-70354576D01*
X163182457Y-70354576D02*
X163244361Y-70230767D01*
X163244361Y-70230767D02*
X163368171Y-70168862D01*
X163368171Y-70168862D02*
X163491980Y-70168862D01*
X163491980Y-70168862D02*
X163615790Y-70787909D01*
X164049123Y-69611719D02*
X163182457Y-69611719D01*
X163430076Y-69611719D02*
X163306266Y-69549814D01*
X163306266Y-69549814D02*
X163244361Y-69487909D01*
X163244361Y-69487909D02*
X163182457Y-69364100D01*
X163182457Y-69364100D02*
X163182457Y-69240290D01*
X164172933Y-69116481D02*
X164172933Y-68126004D01*
X163677695Y-67878385D02*
X163677695Y-67259338D01*
X164049123Y-68002195D02*
X162749123Y-67568862D01*
X162749123Y-67568862D02*
X164049123Y-67135528D01*
X166142050Y-79206955D02*
X166142050Y-79826003D01*
X166142050Y-79826003D02*
X164842050Y-79826003D01*
X165275384Y-78216479D02*
X166142050Y-78216479D01*
X165275384Y-78773622D02*
X165956336Y-78773622D01*
X165956336Y-78773622D02*
X166080146Y-78711717D01*
X166080146Y-78711717D02*
X166142050Y-78587907D01*
X166142050Y-78587907D02*
X166142050Y-78402193D01*
X166142050Y-78402193D02*
X166080146Y-78278384D01*
X166080146Y-78278384D02*
X166018241Y-78216479D01*
X166142050Y-77597432D02*
X164842050Y-77597432D01*
X165646812Y-77473622D02*
X166142050Y-77102194D01*
X165275384Y-77102194D02*
X165770622Y-77597432D01*
X166142050Y-75987908D02*
X165461098Y-75987908D01*
X165461098Y-75987908D02*
X165337288Y-76049813D01*
X165337288Y-76049813D02*
X165275384Y-76173622D01*
X165275384Y-76173622D02*
X165275384Y-76421241D01*
X165275384Y-76421241D02*
X165337288Y-76545051D01*
X166080146Y-75987908D02*
X166142050Y-76111717D01*
X166142050Y-76111717D02*
X166142050Y-76421241D01*
X166142050Y-76421241D02*
X166080146Y-76545051D01*
X166080146Y-76545051D02*
X165956336Y-76606955D01*
X165956336Y-76606955D02*
X165832526Y-76606955D01*
X165832526Y-76606955D02*
X165708717Y-76545051D01*
X165708717Y-76545051D02*
X165646812Y-76421241D01*
X165646812Y-76421241D02*
X165646812Y-76111717D01*
X165646812Y-76111717D02*
X165584907Y-75987908D01*
X164842050Y-74502194D02*
X164842050Y-73635528D01*
X164842050Y-73635528D02*
X166142050Y-74502194D01*
X166142050Y-74502194D02*
X166142050Y-73635528D01*
X166080146Y-72645052D02*
X166142050Y-72768861D01*
X166142050Y-72768861D02*
X166142050Y-73016480D01*
X166142050Y-73016480D02*
X166080146Y-73140290D01*
X166080146Y-73140290D02*
X165956336Y-73202194D01*
X165956336Y-73202194D02*
X165461098Y-73202194D01*
X165461098Y-73202194D02*
X165337288Y-73140290D01*
X165337288Y-73140290D02*
X165275384Y-73016480D01*
X165275384Y-73016480D02*
X165275384Y-72768861D01*
X165275384Y-72768861D02*
X165337288Y-72645052D01*
X165337288Y-72645052D02*
X165461098Y-72583147D01*
X165461098Y-72583147D02*
X165584907Y-72583147D01*
X165584907Y-72583147D02*
X165708717Y-73202194D01*
X166142050Y-71840289D02*
X166080146Y-71964099D01*
X166080146Y-71964099D02*
X165956336Y-72026004D01*
X165956336Y-72026004D02*
X164842050Y-72026004D01*
X165275384Y-71345052D02*
X166389669Y-71345052D01*
X166389669Y-71345052D02*
X166513479Y-71406956D01*
X166513479Y-71406956D02*
X166575384Y-71530766D01*
X166575384Y-71530766D02*
X166575384Y-71592671D01*
X164842050Y-71345052D02*
X164903955Y-71406956D01*
X164903955Y-71406956D02*
X164965860Y-71345052D01*
X164965860Y-71345052D02*
X164903955Y-71283147D01*
X164903955Y-71283147D02*
X164842050Y-71345052D01*
X164842050Y-71345052D02*
X164965860Y-71345052D01*
X166142050Y-70726004D02*
X164842050Y-70726004D01*
X165646812Y-70602194D02*
X166142050Y-70230766D01*
X165275384Y-70230766D02*
X165770622Y-70726004D01*
X166142050Y-69487908D02*
X166080146Y-69611718D01*
X166080146Y-69611718D02*
X166018241Y-69673623D01*
X166018241Y-69673623D02*
X165894431Y-69735527D01*
X165894431Y-69735527D02*
X165523003Y-69735527D01*
X165523003Y-69735527D02*
X165399193Y-69673623D01*
X165399193Y-69673623D02*
X165337288Y-69611718D01*
X165337288Y-69611718D02*
X165275384Y-69487908D01*
X165275384Y-69487908D02*
X165275384Y-69302194D01*
X165275384Y-69302194D02*
X165337288Y-69178385D01*
X165337288Y-69178385D02*
X165399193Y-69116480D01*
X165399193Y-69116480D02*
X165523003Y-69054575D01*
X165523003Y-69054575D02*
X165894431Y-69054575D01*
X165894431Y-69054575D02*
X166018241Y-69116480D01*
X166018241Y-69116480D02*
X166080146Y-69178385D01*
X166080146Y-69178385D02*
X166142050Y-69302194D01*
X166142050Y-69302194D02*
X166142050Y-69487908D01*
X167863549Y-79887907D02*
X167863549Y-79268860D01*
X168234977Y-80011717D02*
X166934977Y-79578384D01*
X166934977Y-79578384D02*
X168234977Y-79145050D01*
X167368311Y-78711717D02*
X168234977Y-78711717D01*
X167492120Y-78711717D02*
X167430215Y-78649812D01*
X167430215Y-78649812D02*
X167368311Y-78526002D01*
X167368311Y-78526002D02*
X167368311Y-78340288D01*
X167368311Y-78340288D02*
X167430215Y-78216479D01*
X167430215Y-78216479D02*
X167554025Y-78154574D01*
X167554025Y-78154574D02*
X168234977Y-78154574D01*
X168234977Y-76978384D02*
X167554025Y-76978384D01*
X167554025Y-76978384D02*
X167430215Y-77040289D01*
X167430215Y-77040289D02*
X167368311Y-77164098D01*
X167368311Y-77164098D02*
X167368311Y-77411717D01*
X167368311Y-77411717D02*
X167430215Y-77535527D01*
X168173073Y-76978384D02*
X168234977Y-77102193D01*
X168234977Y-77102193D02*
X168234977Y-77411717D01*
X168234977Y-77411717D02*
X168173073Y-77535527D01*
X168173073Y-77535527D02*
X168049263Y-77597431D01*
X168049263Y-77597431D02*
X167925453Y-77597431D01*
X167925453Y-77597431D02*
X167801644Y-77535527D01*
X167801644Y-77535527D02*
X167739739Y-77411717D01*
X167739739Y-77411717D02*
X167739739Y-77102193D01*
X167739739Y-77102193D02*
X167677834Y-76978384D01*
X166934977Y-75554575D02*
X168234977Y-75121242D01*
X168234977Y-75121242D02*
X166934977Y-74687908D01*
X167368311Y-73697432D02*
X168234977Y-73697432D01*
X167368311Y-74254575D02*
X168049263Y-74254575D01*
X168049263Y-74254575D02*
X168173073Y-74192670D01*
X168173073Y-74192670D02*
X168234977Y-74068860D01*
X168234977Y-74068860D02*
X168234977Y-73883146D01*
X168234977Y-73883146D02*
X168173073Y-73759337D01*
X168173073Y-73759337D02*
X168111168Y-73697432D01*
X168234977Y-72892670D02*
X168173073Y-73016480D01*
X168173073Y-73016480D02*
X168049263Y-73078385D01*
X168049263Y-73078385D02*
X166934977Y-73078385D01*
X168234977Y-72397433D02*
X167368311Y-72397433D01*
X166934977Y-72397433D02*
X166996882Y-72459337D01*
X166996882Y-72459337D02*
X167058787Y-72397433D01*
X167058787Y-72397433D02*
X166996882Y-72335528D01*
X166996882Y-72335528D02*
X166934977Y-72397433D01*
X166934977Y-72397433D02*
X167058787Y-72397433D01*
X167368311Y-71778385D02*
X168234977Y-71778385D01*
X167492120Y-71778385D02*
X167430215Y-71716480D01*
X167430215Y-71716480D02*
X167368311Y-71592670D01*
X167368311Y-71592670D02*
X167368311Y-71406956D01*
X167368311Y-71406956D02*
X167430215Y-71283147D01*
X167430215Y-71283147D02*
X167554025Y-71221242D01*
X167554025Y-71221242D02*
X168234977Y-71221242D01*
X169956476Y-79887907D02*
X169956476Y-79268860D01*
X170327904Y-80011717D02*
X169027904Y-79578384D01*
X169027904Y-79578384D02*
X170327904Y-79145050D01*
X169461238Y-78711717D02*
X170327904Y-78711717D01*
X169585047Y-78711717D02*
X169523142Y-78649812D01*
X169523142Y-78649812D02*
X169461238Y-78526002D01*
X169461238Y-78526002D02*
X169461238Y-78340288D01*
X169461238Y-78340288D02*
X169523142Y-78216479D01*
X169523142Y-78216479D02*
X169646952Y-78154574D01*
X169646952Y-78154574D02*
X170327904Y-78154574D01*
X170327904Y-76978384D02*
X169027904Y-76978384D01*
X170266000Y-76978384D02*
X170327904Y-77102193D01*
X170327904Y-77102193D02*
X170327904Y-77349812D01*
X170327904Y-77349812D02*
X170266000Y-77473622D01*
X170266000Y-77473622D02*
X170204095Y-77535527D01*
X170204095Y-77535527D02*
X170080285Y-77597431D01*
X170080285Y-77597431D02*
X169708857Y-77597431D01*
X169708857Y-77597431D02*
X169585047Y-77535527D01*
X169585047Y-77535527D02*
X169523142Y-77473622D01*
X169523142Y-77473622D02*
X169461238Y-77349812D01*
X169461238Y-77349812D02*
X169461238Y-77102193D01*
X169461238Y-77102193D02*
X169523142Y-76978384D01*
X169151714Y-77287908D02*
X169151714Y-76792670D01*
X170266000Y-75864099D02*
X170327904Y-75987908D01*
X170327904Y-75987908D02*
X170327904Y-76235527D01*
X170327904Y-76235527D02*
X170266000Y-76359337D01*
X170266000Y-76359337D02*
X170142190Y-76421241D01*
X170142190Y-76421241D02*
X169646952Y-76421241D01*
X169646952Y-76421241D02*
X169523142Y-76359337D01*
X169523142Y-76359337D02*
X169461238Y-76235527D01*
X169461238Y-76235527D02*
X169461238Y-75987908D01*
X169461238Y-75987908D02*
X169523142Y-75864099D01*
X169523142Y-75864099D02*
X169646952Y-75802194D01*
X169646952Y-75802194D02*
X169770761Y-75802194D01*
X169770761Y-75802194D02*
X169894571Y-76421241D01*
X170327904Y-75059336D02*
X170266000Y-75183146D01*
X170266000Y-75183146D02*
X170142190Y-75245051D01*
X170142190Y-75245051D02*
X169027904Y-75245051D01*
X170327904Y-74006956D02*
X169646952Y-74006956D01*
X169646952Y-74006956D02*
X169523142Y-74068861D01*
X169523142Y-74068861D02*
X169461238Y-74192670D01*
X169461238Y-74192670D02*
X169461238Y-74440289D01*
X169461238Y-74440289D02*
X169523142Y-74564099D01*
X170266000Y-74006956D02*
X170327904Y-74130765D01*
X170327904Y-74130765D02*
X170327904Y-74440289D01*
X170327904Y-74440289D02*
X170266000Y-74564099D01*
X170266000Y-74564099D02*
X170142190Y-74626003D01*
X170142190Y-74626003D02*
X170018380Y-74626003D01*
X170018380Y-74626003D02*
X169894571Y-74564099D01*
X169894571Y-74564099D02*
X169832666Y-74440289D01*
X169832666Y-74440289D02*
X169832666Y-74130765D01*
X169832666Y-74130765D02*
X169770761Y-74006956D01*
X170266000Y-72459337D02*
X170327904Y-72273623D01*
X170327904Y-72273623D02*
X170327904Y-71964099D01*
X170327904Y-71964099D02*
X170266000Y-71840290D01*
X170266000Y-71840290D02*
X170204095Y-71778385D01*
X170204095Y-71778385D02*
X170080285Y-71716480D01*
X170080285Y-71716480D02*
X169956476Y-71716480D01*
X169956476Y-71716480D02*
X169832666Y-71778385D01*
X169832666Y-71778385D02*
X169770761Y-71840290D01*
X169770761Y-71840290D02*
X169708857Y-71964099D01*
X169708857Y-71964099D02*
X169646952Y-72211718D01*
X169646952Y-72211718D02*
X169585047Y-72335528D01*
X169585047Y-72335528D02*
X169523142Y-72397433D01*
X169523142Y-72397433D02*
X169399333Y-72459337D01*
X169399333Y-72459337D02*
X169275523Y-72459337D01*
X169275523Y-72459337D02*
X169151714Y-72397433D01*
X169151714Y-72397433D02*
X169089809Y-72335528D01*
X169089809Y-72335528D02*
X169027904Y-72211718D01*
X169027904Y-72211718D02*
X169027904Y-71902195D01*
X169027904Y-71902195D02*
X169089809Y-71716480D01*
X170327904Y-70602195D02*
X169646952Y-70602195D01*
X169646952Y-70602195D02*
X169523142Y-70664100D01*
X169523142Y-70664100D02*
X169461238Y-70787909D01*
X169461238Y-70787909D02*
X169461238Y-71035528D01*
X169461238Y-71035528D02*
X169523142Y-71159338D01*
X170266000Y-70602195D02*
X170327904Y-70726004D01*
X170327904Y-70726004D02*
X170327904Y-71035528D01*
X170327904Y-71035528D02*
X170266000Y-71159338D01*
X170266000Y-71159338D02*
X170142190Y-71221242D01*
X170142190Y-71221242D02*
X170018380Y-71221242D01*
X170018380Y-71221242D02*
X169894571Y-71159338D01*
X169894571Y-71159338D02*
X169832666Y-71035528D01*
X169832666Y-71035528D02*
X169832666Y-70726004D01*
X169832666Y-70726004D02*
X169770761Y-70602195D01*
X169461238Y-70106957D02*
X170327904Y-69797433D01*
X170327904Y-69797433D02*
X169461238Y-69487910D01*
X170327904Y-68992672D02*
X169461238Y-68992672D01*
X169027904Y-68992672D02*
X169089809Y-69054576D01*
X169089809Y-69054576D02*
X169151714Y-68992672D01*
X169151714Y-68992672D02*
X169089809Y-68930767D01*
X169089809Y-68930767D02*
X169027904Y-68992672D01*
X169027904Y-68992672D02*
X169151714Y-68992672D01*
X170266000Y-67816481D02*
X170327904Y-67940290D01*
X170327904Y-67940290D02*
X170327904Y-68187909D01*
X170327904Y-68187909D02*
X170266000Y-68311719D01*
X170266000Y-68311719D02*
X170204095Y-68373624D01*
X170204095Y-68373624D02*
X170080285Y-68435528D01*
X170080285Y-68435528D02*
X169708857Y-68435528D01*
X169708857Y-68435528D02*
X169585047Y-68373624D01*
X169585047Y-68373624D02*
X169523142Y-68311719D01*
X169523142Y-68311719D02*
X169461238Y-68187909D01*
X169461238Y-68187909D02*
X169461238Y-67940290D01*
X169461238Y-67940290D02*
X169523142Y-67816481D01*
X168966000Y-68311719D02*
X169151714Y-68064100D01*
X169151714Y-68064100D02*
X168966000Y-67816481D01*
X170327904Y-67259338D02*
X169461238Y-67259338D01*
X169027904Y-67259338D02*
X169089809Y-67321242D01*
X169089809Y-67321242D02*
X169151714Y-67259338D01*
X169151714Y-67259338D02*
X169089809Y-67197433D01*
X169089809Y-67197433D02*
X169027904Y-67259338D01*
X169027904Y-67259338D02*
X169151714Y-67259338D01*
X170266000Y-66083147D02*
X170327904Y-66206956D01*
X170327904Y-66206956D02*
X170327904Y-66454575D01*
X170327904Y-66454575D02*
X170266000Y-66578385D01*
X170266000Y-66578385D02*
X170204095Y-66640290D01*
X170204095Y-66640290D02*
X170080285Y-66702194D01*
X170080285Y-66702194D02*
X169708857Y-66702194D01*
X169708857Y-66702194D02*
X169585047Y-66640290D01*
X169585047Y-66640290D02*
X169523142Y-66578385D01*
X169523142Y-66578385D02*
X169461238Y-66454575D01*
X169461238Y-66454575D02*
X169461238Y-66206956D01*
X169461238Y-66206956D02*
X169523142Y-66083147D01*
X168966000Y-66206956D02*
X169151714Y-66392671D01*
D10*
X154900000Y-59215228D02*
X154871428Y-59243800D01*
X154871428Y-59243800D02*
X154785714Y-59272371D01*
X154785714Y-59272371D02*
X154728571Y-59272371D01*
X154728571Y-59272371D02*
X154642857Y-59243800D01*
X154642857Y-59243800D02*
X154585714Y-59186657D01*
X154585714Y-59186657D02*
X154557143Y-59129514D01*
X154557143Y-59129514D02*
X154528571Y-59015228D01*
X154528571Y-59015228D02*
X154528571Y-58929514D01*
X154528571Y-58929514D02*
X154557143Y-58815228D01*
X154557143Y-58815228D02*
X154585714Y-58758085D01*
X154585714Y-58758085D02*
X154642857Y-58700942D01*
X154642857Y-58700942D02*
X154728571Y-58672371D01*
X154728571Y-58672371D02*
X154785714Y-58672371D01*
X154785714Y-58672371D02*
X154871428Y-58700942D01*
X154871428Y-58700942D02*
X154900000Y-58729514D01*
X155128571Y-58729514D02*
X155157143Y-58700942D01*
X155157143Y-58700942D02*
X155214286Y-58672371D01*
X155214286Y-58672371D02*
X155357143Y-58672371D01*
X155357143Y-58672371D02*
X155414286Y-58700942D01*
X155414286Y-58700942D02*
X155442857Y-58729514D01*
X155442857Y-58729514D02*
X155471428Y-58786657D01*
X155471428Y-58786657D02*
X155471428Y-58843800D01*
X155471428Y-58843800D02*
X155442857Y-58929514D01*
X155442857Y-58929514D02*
X155100000Y-59272371D01*
X155100000Y-59272371D02*
X155471428Y-59272371D01*
X149900000Y-60715228D02*
X149871428Y-60743800D01*
X149871428Y-60743800D02*
X149785714Y-60772371D01*
X149785714Y-60772371D02*
X149728571Y-60772371D01*
X149728571Y-60772371D02*
X149642857Y-60743800D01*
X149642857Y-60743800D02*
X149585714Y-60686657D01*
X149585714Y-60686657D02*
X149557143Y-60629514D01*
X149557143Y-60629514D02*
X149528571Y-60515228D01*
X149528571Y-60515228D02*
X149528571Y-60429514D01*
X149528571Y-60429514D02*
X149557143Y-60315228D01*
X149557143Y-60315228D02*
X149585714Y-60258085D01*
X149585714Y-60258085D02*
X149642857Y-60200942D01*
X149642857Y-60200942D02*
X149728571Y-60172371D01*
X149728571Y-60172371D02*
X149785714Y-60172371D01*
X149785714Y-60172371D02*
X149871428Y-60200942D01*
X149871428Y-60200942D02*
X149900000Y-60229514D01*
X150471428Y-60772371D02*
X150128571Y-60772371D01*
X150300000Y-60772371D02*
X150300000Y-60172371D01*
X150300000Y-60172371D02*
X150242857Y-60258085D01*
X150242857Y-60258085D02*
X150185714Y-60315228D01*
X150185714Y-60315228D02*
X150128571Y-60343800D01*
D11*
X121419048Y-55018666D02*
X122180953Y-55018666D01*
X121800000Y-55399619D02*
X121800000Y-54637714D01*
D10*
X128400000Y-77215228D02*
X128371428Y-77243800D01*
X128371428Y-77243800D02*
X128285714Y-77272371D01*
X128285714Y-77272371D02*
X128228571Y-77272371D01*
X128228571Y-77272371D02*
X128142857Y-77243800D01*
X128142857Y-77243800D02*
X128085714Y-77186657D01*
X128085714Y-77186657D02*
X128057143Y-77129514D01*
X128057143Y-77129514D02*
X128028571Y-77015228D01*
X128028571Y-77015228D02*
X128028571Y-76929514D01*
X128028571Y-76929514D02*
X128057143Y-76815228D01*
X128057143Y-76815228D02*
X128085714Y-76758085D01*
X128085714Y-76758085D02*
X128142857Y-76700942D01*
X128142857Y-76700942D02*
X128228571Y-76672371D01*
X128228571Y-76672371D02*
X128285714Y-76672371D01*
X128285714Y-76672371D02*
X128371428Y-76700942D01*
X128371428Y-76700942D02*
X128400000Y-76729514D01*
X128942857Y-76672371D02*
X128657143Y-76672371D01*
X128657143Y-76672371D02*
X128628571Y-76958085D01*
X128628571Y-76958085D02*
X128657143Y-76929514D01*
X128657143Y-76929514D02*
X128714286Y-76900942D01*
X128714286Y-76900942D02*
X128857143Y-76900942D01*
X128857143Y-76900942D02*
X128914286Y-76929514D01*
X128914286Y-76929514D02*
X128942857Y-76958085D01*
X128942857Y-76958085D02*
X128971428Y-77015228D01*
X128971428Y-77015228D02*
X128971428Y-77158085D01*
X128971428Y-77158085D02*
X128942857Y-77215228D01*
X128942857Y-77215228D02*
X128914286Y-77243800D01*
X128914286Y-77243800D02*
X128857143Y-77272371D01*
X128857143Y-77272371D02*
X128714286Y-77272371D01*
X128714286Y-77272371D02*
X128657143Y-77243800D01*
X128657143Y-77243800D02*
X128628571Y-77215228D01*
X158114285Y-73715228D02*
X158085713Y-73743800D01*
X158085713Y-73743800D02*
X157999999Y-73772371D01*
X157999999Y-73772371D02*
X157942856Y-73772371D01*
X157942856Y-73772371D02*
X157857142Y-73743800D01*
X157857142Y-73743800D02*
X157799999Y-73686657D01*
X157799999Y-73686657D02*
X157771428Y-73629514D01*
X157771428Y-73629514D02*
X157742856Y-73515228D01*
X157742856Y-73515228D02*
X157742856Y-73429514D01*
X157742856Y-73429514D02*
X157771428Y-73315228D01*
X157771428Y-73315228D02*
X157799999Y-73258085D01*
X157799999Y-73258085D02*
X157857142Y-73200942D01*
X157857142Y-73200942D02*
X157942856Y-73172371D01*
X157942856Y-73172371D02*
X157999999Y-73172371D01*
X157999999Y-73172371D02*
X158085713Y-73200942D01*
X158085713Y-73200942D02*
X158114285Y-73229514D01*
X158685713Y-73772371D02*
X158342856Y-73772371D01*
X158514285Y-73772371D02*
X158514285Y-73172371D01*
X158514285Y-73172371D02*
X158457142Y-73258085D01*
X158457142Y-73258085D02*
X158399999Y-73315228D01*
X158399999Y-73315228D02*
X158342856Y-73343800D01*
X158885714Y-73172371D02*
X159257142Y-73172371D01*
X159257142Y-73172371D02*
X159057142Y-73400942D01*
X159057142Y-73400942D02*
X159142857Y-73400942D01*
X159142857Y-73400942D02*
X159200000Y-73429514D01*
X159200000Y-73429514D02*
X159228571Y-73458085D01*
X159228571Y-73458085D02*
X159257142Y-73515228D01*
X159257142Y-73515228D02*
X159257142Y-73658085D01*
X159257142Y-73658085D02*
X159228571Y-73715228D01*
X159228571Y-73715228D02*
X159200000Y-73743800D01*
X159200000Y-73743800D02*
X159142857Y-73772371D01*
X159142857Y-73772371D02*
X158971428Y-73772371D01*
X158971428Y-73772371D02*
X158914285Y-73743800D01*
X158914285Y-73743800D02*
X158885714Y-73715228D01*
X127885714Y-63172371D02*
X128085714Y-63772371D01*
X128085714Y-63772371D02*
X128285714Y-63172371D01*
X128485715Y-63772371D02*
X128485715Y-63372371D01*
X128485715Y-63172371D02*
X128457143Y-63200942D01*
X128457143Y-63200942D02*
X128485715Y-63229514D01*
X128485715Y-63229514D02*
X128514286Y-63200942D01*
X128514286Y-63200942D02*
X128485715Y-63172371D01*
X128485715Y-63172371D02*
X128485715Y-63229514D01*
X128771429Y-63372371D02*
X128771429Y-63772371D01*
X128771429Y-63429514D02*
X128800000Y-63400942D01*
X128800000Y-63400942D02*
X128857143Y-63372371D01*
X128857143Y-63372371D02*
X128942857Y-63372371D01*
X128942857Y-63372371D02*
X129000000Y-63400942D01*
X129000000Y-63400942D02*
X129028572Y-63458085D01*
X129028572Y-63458085D02*
X129028572Y-63772371D01*
X144900000Y-77215228D02*
X144871428Y-77243800D01*
X144871428Y-77243800D02*
X144785714Y-77272371D01*
X144785714Y-77272371D02*
X144728571Y-77272371D01*
X144728571Y-77272371D02*
X144642857Y-77243800D01*
X144642857Y-77243800D02*
X144585714Y-77186657D01*
X144585714Y-77186657D02*
X144557143Y-77129514D01*
X144557143Y-77129514D02*
X144528571Y-77015228D01*
X144528571Y-77015228D02*
X144528571Y-76929514D01*
X144528571Y-76929514D02*
X144557143Y-76815228D01*
X144557143Y-76815228D02*
X144585714Y-76758085D01*
X144585714Y-76758085D02*
X144642857Y-76700942D01*
X144642857Y-76700942D02*
X144728571Y-76672371D01*
X144728571Y-76672371D02*
X144785714Y-76672371D01*
X144785714Y-76672371D02*
X144871428Y-76700942D01*
X144871428Y-76700942D02*
X144900000Y-76729514D01*
X145414286Y-76872371D02*
X145414286Y-77272371D01*
X145271428Y-76643800D02*
X145128571Y-77072371D01*
X145128571Y-77072371D02*
X145500000Y-77072371D01*
X149400000Y-54715228D02*
X149371428Y-54743800D01*
X149371428Y-54743800D02*
X149285714Y-54772371D01*
X149285714Y-54772371D02*
X149228571Y-54772371D01*
X149228571Y-54772371D02*
X149142857Y-54743800D01*
X149142857Y-54743800D02*
X149085714Y-54686657D01*
X149085714Y-54686657D02*
X149057143Y-54629514D01*
X149057143Y-54629514D02*
X149028571Y-54515228D01*
X149028571Y-54515228D02*
X149028571Y-54429514D01*
X149028571Y-54429514D02*
X149057143Y-54315228D01*
X149057143Y-54315228D02*
X149085714Y-54258085D01*
X149085714Y-54258085D02*
X149142857Y-54200942D01*
X149142857Y-54200942D02*
X149228571Y-54172371D01*
X149228571Y-54172371D02*
X149285714Y-54172371D01*
X149285714Y-54172371D02*
X149371428Y-54200942D01*
X149371428Y-54200942D02*
X149400000Y-54229514D01*
X149685714Y-54772371D02*
X149800000Y-54772371D01*
X149800000Y-54772371D02*
X149857143Y-54743800D01*
X149857143Y-54743800D02*
X149885714Y-54715228D01*
X149885714Y-54715228D02*
X149942857Y-54629514D01*
X149942857Y-54629514D02*
X149971428Y-54515228D01*
X149971428Y-54515228D02*
X149971428Y-54286657D01*
X149971428Y-54286657D02*
X149942857Y-54229514D01*
X149942857Y-54229514D02*
X149914286Y-54200942D01*
X149914286Y-54200942D02*
X149857143Y-54172371D01*
X149857143Y-54172371D02*
X149742857Y-54172371D01*
X149742857Y-54172371D02*
X149685714Y-54200942D01*
X149685714Y-54200942D02*
X149657143Y-54229514D01*
X149657143Y-54229514D02*
X149628571Y-54286657D01*
X149628571Y-54286657D02*
X149628571Y-54429514D01*
X149628571Y-54429514D02*
X149657143Y-54486657D01*
X149657143Y-54486657D02*
X149685714Y-54515228D01*
X149685714Y-54515228D02*
X149742857Y-54543800D01*
X149742857Y-54543800D02*
X149857143Y-54543800D01*
X149857143Y-54543800D02*
X149914286Y-54515228D01*
X149914286Y-54515228D02*
X149942857Y-54486657D01*
X149942857Y-54486657D02*
X149971428Y-54429514D01*
X150400000Y-66215228D02*
X150371428Y-66243800D01*
X150371428Y-66243800D02*
X150285714Y-66272371D01*
X150285714Y-66272371D02*
X150228571Y-66272371D01*
X150228571Y-66272371D02*
X150142857Y-66243800D01*
X150142857Y-66243800D02*
X150085714Y-66186657D01*
X150085714Y-66186657D02*
X150057143Y-66129514D01*
X150057143Y-66129514D02*
X150028571Y-66015228D01*
X150028571Y-66015228D02*
X150028571Y-65929514D01*
X150028571Y-65929514D02*
X150057143Y-65815228D01*
X150057143Y-65815228D02*
X150085714Y-65758085D01*
X150085714Y-65758085D02*
X150142857Y-65700942D01*
X150142857Y-65700942D02*
X150228571Y-65672371D01*
X150228571Y-65672371D02*
X150285714Y-65672371D01*
X150285714Y-65672371D02*
X150371428Y-65700942D01*
X150371428Y-65700942D02*
X150400000Y-65729514D01*
X150914286Y-65672371D02*
X150800000Y-65672371D01*
X150800000Y-65672371D02*
X150742857Y-65700942D01*
X150742857Y-65700942D02*
X150714286Y-65729514D01*
X150714286Y-65729514D02*
X150657143Y-65815228D01*
X150657143Y-65815228D02*
X150628571Y-65929514D01*
X150628571Y-65929514D02*
X150628571Y-66158085D01*
X150628571Y-66158085D02*
X150657143Y-66215228D01*
X150657143Y-66215228D02*
X150685714Y-66243800D01*
X150685714Y-66243800D02*
X150742857Y-66272371D01*
X150742857Y-66272371D02*
X150857143Y-66272371D01*
X150857143Y-66272371D02*
X150914286Y-66243800D01*
X150914286Y-66243800D02*
X150942857Y-66215228D01*
X150942857Y-66215228D02*
X150971428Y-66158085D01*
X150971428Y-66158085D02*
X150971428Y-66015228D01*
X150971428Y-66015228D02*
X150942857Y-65958085D01*
X150942857Y-65958085D02*
X150914286Y-65929514D01*
X150914286Y-65929514D02*
X150857143Y-65900942D01*
X150857143Y-65900942D02*
X150742857Y-65900942D01*
X150742857Y-65900942D02*
X150685714Y-65929514D01*
X150685714Y-65929514D02*
X150657143Y-65958085D01*
X150657143Y-65958085D02*
X150628571Y-66015228D01*
X131614285Y-60215228D02*
X131585713Y-60243800D01*
X131585713Y-60243800D02*
X131499999Y-60272371D01*
X131499999Y-60272371D02*
X131442856Y-60272371D01*
X131442856Y-60272371D02*
X131357142Y-60243800D01*
X131357142Y-60243800D02*
X131299999Y-60186657D01*
X131299999Y-60186657D02*
X131271428Y-60129514D01*
X131271428Y-60129514D02*
X131242856Y-60015228D01*
X131242856Y-60015228D02*
X131242856Y-59929514D01*
X131242856Y-59929514D02*
X131271428Y-59815228D01*
X131271428Y-59815228D02*
X131299999Y-59758085D01*
X131299999Y-59758085D02*
X131357142Y-59700942D01*
X131357142Y-59700942D02*
X131442856Y-59672371D01*
X131442856Y-59672371D02*
X131499999Y-59672371D01*
X131499999Y-59672371D02*
X131585713Y-59700942D01*
X131585713Y-59700942D02*
X131614285Y-59729514D01*
X132185713Y-60272371D02*
X131842856Y-60272371D01*
X132014285Y-60272371D02*
X132014285Y-59672371D01*
X132014285Y-59672371D02*
X131957142Y-59758085D01*
X131957142Y-59758085D02*
X131899999Y-59815228D01*
X131899999Y-59815228D02*
X131842856Y-59843800D01*
X132700000Y-59672371D02*
X132585714Y-59672371D01*
X132585714Y-59672371D02*
X132528571Y-59700942D01*
X132528571Y-59700942D02*
X132500000Y-59729514D01*
X132500000Y-59729514D02*
X132442857Y-59815228D01*
X132442857Y-59815228D02*
X132414285Y-59929514D01*
X132414285Y-59929514D02*
X132414285Y-60158085D01*
X132414285Y-60158085D02*
X132442857Y-60215228D01*
X132442857Y-60215228D02*
X132471428Y-60243800D01*
X132471428Y-60243800D02*
X132528571Y-60272371D01*
X132528571Y-60272371D02*
X132642857Y-60272371D01*
X132642857Y-60272371D02*
X132700000Y-60243800D01*
X132700000Y-60243800D02*
X132728571Y-60215228D01*
X132728571Y-60215228D02*
X132757142Y-60158085D01*
X132757142Y-60158085D02*
X132757142Y-60015228D01*
X132757142Y-60015228D02*
X132728571Y-59958085D01*
X132728571Y-59958085D02*
X132700000Y-59929514D01*
X132700000Y-59929514D02*
X132642857Y-59900942D01*
X132642857Y-59900942D02*
X132528571Y-59900942D01*
X132528571Y-59900942D02*
X132471428Y-59929514D01*
X132471428Y-59929514D02*
X132442857Y-59958085D01*
X132442857Y-59958085D02*
X132414285Y-60015228D01*
X155157143Y-53272371D02*
X155157143Y-52672371D01*
X155157143Y-52672371D02*
X155385714Y-52672371D01*
X155385714Y-52672371D02*
X155442857Y-52700942D01*
X155442857Y-52700942D02*
X155471428Y-52729514D01*
X155471428Y-52729514D02*
X155500000Y-52786657D01*
X155500000Y-52786657D02*
X155500000Y-52872371D01*
X155500000Y-52872371D02*
X155471428Y-52929514D01*
X155471428Y-52929514D02*
X155442857Y-52958085D01*
X155442857Y-52958085D02*
X155385714Y-52986657D01*
X155385714Y-52986657D02*
X155157143Y-52986657D01*
X155700000Y-52672371D02*
X155842857Y-53272371D01*
X155842857Y-53272371D02*
X155957143Y-52843800D01*
X155957143Y-52843800D02*
X156071428Y-53272371D01*
X156071428Y-53272371D02*
X156214286Y-52672371D01*
X156442857Y-53272371D02*
X156442857Y-52672371D01*
X156442857Y-52672371D02*
X156642857Y-53100942D01*
X156642857Y-53100942D02*
X156842857Y-52672371D01*
X156842857Y-52672371D02*
X156842857Y-53272371D01*
X153385714Y-52672371D02*
X153585714Y-53272371D01*
X153585714Y-53272371D02*
X153785714Y-52672371D01*
X153985715Y-53272371D02*
X153985715Y-52872371D01*
X153985715Y-52672371D02*
X153957143Y-52700942D01*
X153957143Y-52700942D02*
X153985715Y-52729514D01*
X153985715Y-52729514D02*
X154014286Y-52700942D01*
X154014286Y-52700942D02*
X153985715Y-52672371D01*
X153985715Y-52672371D02*
X153985715Y-52729514D01*
X154271429Y-52872371D02*
X154271429Y-53272371D01*
X154271429Y-52929514D02*
X154300000Y-52900942D01*
X154300000Y-52900942D02*
X154357143Y-52872371D01*
X154357143Y-52872371D02*
X154442857Y-52872371D01*
X154442857Y-52872371D02*
X154500000Y-52900942D01*
X154500000Y-52900942D02*
X154528572Y-52958085D01*
X154528572Y-52958085D02*
X154528572Y-53272371D01*
X132114285Y-69215228D02*
X132085713Y-69243800D01*
X132085713Y-69243800D02*
X131999999Y-69272371D01*
X131999999Y-69272371D02*
X131942856Y-69272371D01*
X131942856Y-69272371D02*
X131857142Y-69243800D01*
X131857142Y-69243800D02*
X131799999Y-69186657D01*
X131799999Y-69186657D02*
X131771428Y-69129514D01*
X131771428Y-69129514D02*
X131742856Y-69015228D01*
X131742856Y-69015228D02*
X131742856Y-68929514D01*
X131742856Y-68929514D02*
X131771428Y-68815228D01*
X131771428Y-68815228D02*
X131799999Y-68758085D01*
X131799999Y-68758085D02*
X131857142Y-68700942D01*
X131857142Y-68700942D02*
X131942856Y-68672371D01*
X131942856Y-68672371D02*
X131999999Y-68672371D01*
X131999999Y-68672371D02*
X132085713Y-68700942D01*
X132085713Y-68700942D02*
X132114285Y-68729514D01*
X132685713Y-69272371D02*
X132342856Y-69272371D01*
X132514285Y-69272371D02*
X132514285Y-68672371D01*
X132514285Y-68672371D02*
X132457142Y-68758085D01*
X132457142Y-68758085D02*
X132399999Y-68815228D01*
X132399999Y-68815228D02*
X132342856Y-68843800D01*
X133228571Y-68672371D02*
X132942857Y-68672371D01*
X132942857Y-68672371D02*
X132914285Y-68958085D01*
X132914285Y-68958085D02*
X132942857Y-68929514D01*
X132942857Y-68929514D02*
X133000000Y-68900942D01*
X133000000Y-68900942D02*
X133142857Y-68900942D01*
X133142857Y-68900942D02*
X133200000Y-68929514D01*
X133200000Y-68929514D02*
X133228571Y-68958085D01*
X133228571Y-68958085D02*
X133257142Y-69015228D01*
X133257142Y-69015228D02*
X133257142Y-69158085D01*
X133257142Y-69158085D02*
X133228571Y-69215228D01*
X133228571Y-69215228D02*
X133200000Y-69243800D01*
X133200000Y-69243800D02*
X133142857Y-69272371D01*
X133142857Y-69272371D02*
X133000000Y-69272371D01*
X133000000Y-69272371D02*
X132942857Y-69243800D01*
X132942857Y-69243800D02*
X132914285Y-69215228D01*
X153114285Y-67715228D02*
X153085713Y-67743800D01*
X153085713Y-67743800D02*
X152999999Y-67772371D01*
X152999999Y-67772371D02*
X152942856Y-67772371D01*
X152942856Y-67772371D02*
X152857142Y-67743800D01*
X152857142Y-67743800D02*
X152799999Y-67686657D01*
X152799999Y-67686657D02*
X152771428Y-67629514D01*
X152771428Y-67629514D02*
X152742856Y-67515228D01*
X152742856Y-67515228D02*
X152742856Y-67429514D01*
X152742856Y-67429514D02*
X152771428Y-67315228D01*
X152771428Y-67315228D02*
X152799999Y-67258085D01*
X152799999Y-67258085D02*
X152857142Y-67200942D01*
X152857142Y-67200942D02*
X152942856Y-67172371D01*
X152942856Y-67172371D02*
X152999999Y-67172371D01*
X152999999Y-67172371D02*
X153085713Y-67200942D01*
X153085713Y-67200942D02*
X153114285Y-67229514D01*
X153685713Y-67772371D02*
X153342856Y-67772371D01*
X153514285Y-67772371D02*
X153514285Y-67172371D01*
X153514285Y-67172371D02*
X153457142Y-67258085D01*
X153457142Y-67258085D02*
X153399999Y-67315228D01*
X153399999Y-67315228D02*
X153342856Y-67343800D01*
X154257142Y-67772371D02*
X153914285Y-67772371D01*
X154085714Y-67772371D02*
X154085714Y-67172371D01*
X154085714Y-67172371D02*
X154028571Y-67258085D01*
X154028571Y-67258085D02*
X153971428Y-67315228D01*
X153971428Y-67315228D02*
X153914285Y-67343800D01*
X125114285Y-55215228D02*
X125085713Y-55243800D01*
X125085713Y-55243800D02*
X124999999Y-55272371D01*
X124999999Y-55272371D02*
X124942856Y-55272371D01*
X124942856Y-55272371D02*
X124857142Y-55243800D01*
X124857142Y-55243800D02*
X124799999Y-55186657D01*
X124799999Y-55186657D02*
X124771428Y-55129514D01*
X124771428Y-55129514D02*
X124742856Y-55015228D01*
X124742856Y-55015228D02*
X124742856Y-54929514D01*
X124742856Y-54929514D02*
X124771428Y-54815228D01*
X124771428Y-54815228D02*
X124799999Y-54758085D01*
X124799999Y-54758085D02*
X124857142Y-54700942D01*
X124857142Y-54700942D02*
X124942856Y-54672371D01*
X124942856Y-54672371D02*
X124999999Y-54672371D01*
X124999999Y-54672371D02*
X125085713Y-54700942D01*
X125085713Y-54700942D02*
X125114285Y-54729514D01*
X125685713Y-55272371D02*
X125342856Y-55272371D01*
X125514285Y-55272371D02*
X125514285Y-54672371D01*
X125514285Y-54672371D02*
X125457142Y-54758085D01*
X125457142Y-54758085D02*
X125399999Y-54815228D01*
X125399999Y-54815228D02*
X125342856Y-54843800D01*
X126057142Y-54672371D02*
X126114285Y-54672371D01*
X126114285Y-54672371D02*
X126171428Y-54700942D01*
X126171428Y-54700942D02*
X126200000Y-54729514D01*
X126200000Y-54729514D02*
X126228571Y-54786657D01*
X126228571Y-54786657D02*
X126257142Y-54900942D01*
X126257142Y-54900942D02*
X126257142Y-55043800D01*
X126257142Y-55043800D02*
X126228571Y-55158085D01*
X126228571Y-55158085D02*
X126200000Y-55215228D01*
X126200000Y-55215228D02*
X126171428Y-55243800D01*
X126171428Y-55243800D02*
X126114285Y-55272371D01*
X126114285Y-55272371D02*
X126057142Y-55272371D01*
X126057142Y-55272371D02*
X126000000Y-55243800D01*
X126000000Y-55243800D02*
X125971428Y-55215228D01*
X125971428Y-55215228D02*
X125942857Y-55158085D01*
X125942857Y-55158085D02*
X125914285Y-55043800D01*
X125914285Y-55043800D02*
X125914285Y-54900942D01*
X125914285Y-54900942D02*
X125942857Y-54786657D01*
X125942857Y-54786657D02*
X125971428Y-54729514D01*
X125971428Y-54729514D02*
X126000000Y-54700942D01*
X126000000Y-54700942D02*
X126057142Y-54672371D01*
X130857142Y-66672371D02*
X130971428Y-66672371D01*
X130971428Y-66672371D02*
X131028571Y-66700942D01*
X131028571Y-66700942D02*
X131085714Y-66758085D01*
X131085714Y-66758085D02*
X131114285Y-66872371D01*
X131114285Y-66872371D02*
X131114285Y-67072371D01*
X131114285Y-67072371D02*
X131085714Y-67186657D01*
X131085714Y-67186657D02*
X131028571Y-67243800D01*
X131028571Y-67243800D02*
X130971428Y-67272371D01*
X130971428Y-67272371D02*
X130857142Y-67272371D01*
X130857142Y-67272371D02*
X130800000Y-67243800D01*
X130800000Y-67243800D02*
X130742857Y-67186657D01*
X130742857Y-67186657D02*
X130714285Y-67072371D01*
X130714285Y-67072371D02*
X130714285Y-66872371D01*
X130714285Y-66872371D02*
X130742857Y-66758085D01*
X130742857Y-66758085D02*
X130800000Y-66700942D01*
X130800000Y-66700942D02*
X130857142Y-66672371D01*
X131342856Y-67243800D02*
X131428571Y-67272371D01*
X131428571Y-67272371D02*
X131571428Y-67272371D01*
X131571428Y-67272371D02*
X131628571Y-67243800D01*
X131628571Y-67243800D02*
X131657142Y-67215228D01*
X131657142Y-67215228D02*
X131685713Y-67158085D01*
X131685713Y-67158085D02*
X131685713Y-67100942D01*
X131685713Y-67100942D02*
X131657142Y-67043800D01*
X131657142Y-67043800D02*
X131628571Y-67015228D01*
X131628571Y-67015228D02*
X131571428Y-66986657D01*
X131571428Y-66986657D02*
X131457142Y-66958085D01*
X131457142Y-66958085D02*
X131399999Y-66929514D01*
X131399999Y-66929514D02*
X131371428Y-66900942D01*
X131371428Y-66900942D02*
X131342856Y-66843800D01*
X131342856Y-66843800D02*
X131342856Y-66786657D01*
X131342856Y-66786657D02*
X131371428Y-66729514D01*
X131371428Y-66729514D02*
X131399999Y-66700942D01*
X131399999Y-66700942D02*
X131457142Y-66672371D01*
X131457142Y-66672371D02*
X131599999Y-66672371D01*
X131599999Y-66672371D02*
X131685713Y-66700942D01*
X132285714Y-67215228D02*
X132257142Y-67243800D01*
X132257142Y-67243800D02*
X132171428Y-67272371D01*
X132171428Y-67272371D02*
X132114285Y-67272371D01*
X132114285Y-67272371D02*
X132028571Y-67243800D01*
X132028571Y-67243800D02*
X131971428Y-67186657D01*
X131971428Y-67186657D02*
X131942857Y-67129514D01*
X131942857Y-67129514D02*
X131914285Y-67015228D01*
X131914285Y-67015228D02*
X131914285Y-66929514D01*
X131914285Y-66929514D02*
X131942857Y-66815228D01*
X131942857Y-66815228D02*
X131971428Y-66758085D01*
X131971428Y-66758085D02*
X132028571Y-66700942D01*
X132028571Y-66700942D02*
X132114285Y-66672371D01*
X132114285Y-66672371D02*
X132171428Y-66672371D01*
X132171428Y-66672371D02*
X132257142Y-66700942D01*
X132257142Y-66700942D02*
X132285714Y-66729514D01*
X118192857Y-64822371D02*
X118192857Y-64222371D01*
X118192857Y-64222371D02*
X118421428Y-64222371D01*
X118421428Y-64222371D02*
X118478571Y-64250942D01*
X118478571Y-64250942D02*
X118507142Y-64279514D01*
X118507142Y-64279514D02*
X118535714Y-64336657D01*
X118535714Y-64336657D02*
X118535714Y-64422371D01*
X118535714Y-64422371D02*
X118507142Y-64479514D01*
X118507142Y-64479514D02*
X118478571Y-64508085D01*
X118478571Y-64508085D02*
X118421428Y-64536657D01*
X118421428Y-64536657D02*
X118192857Y-64536657D01*
X119107142Y-64250942D02*
X119050000Y-64222371D01*
X119050000Y-64222371D02*
X118964285Y-64222371D01*
X118964285Y-64222371D02*
X118878571Y-64250942D01*
X118878571Y-64250942D02*
X118821428Y-64308085D01*
X118821428Y-64308085D02*
X118792857Y-64365228D01*
X118792857Y-64365228D02*
X118764285Y-64479514D01*
X118764285Y-64479514D02*
X118764285Y-64565228D01*
X118764285Y-64565228D02*
X118792857Y-64679514D01*
X118792857Y-64679514D02*
X118821428Y-64736657D01*
X118821428Y-64736657D02*
X118878571Y-64793800D01*
X118878571Y-64793800D02*
X118964285Y-64822371D01*
X118964285Y-64822371D02*
X119021428Y-64822371D01*
X119021428Y-64822371D02*
X119107142Y-64793800D01*
X119107142Y-64793800D02*
X119135714Y-64765228D01*
X119135714Y-64765228D02*
X119135714Y-64565228D01*
X119135714Y-64565228D02*
X119021428Y-64565228D01*
X119392857Y-64822371D02*
X119392857Y-64222371D01*
X119392857Y-64222371D02*
X119535714Y-64222371D01*
X119535714Y-64222371D02*
X119621428Y-64250942D01*
X119621428Y-64250942D02*
X119678571Y-64308085D01*
X119678571Y-64308085D02*
X119707142Y-64365228D01*
X119707142Y-64365228D02*
X119735714Y-64479514D01*
X119735714Y-64479514D02*
X119735714Y-64565228D01*
X119735714Y-64565228D02*
X119707142Y-64679514D01*
X119707142Y-64679514D02*
X119678571Y-64736657D01*
X119678571Y-64736657D02*
X119621428Y-64793800D01*
X119621428Y-64793800D02*
X119535714Y-64822371D01*
X119535714Y-64822371D02*
X119392857Y-64822371D01*
X134871428Y-79672371D02*
X135242856Y-79672371D01*
X135242856Y-79672371D02*
X135042856Y-79900942D01*
X135042856Y-79900942D02*
X135128571Y-79900942D01*
X135128571Y-79900942D02*
X135185714Y-79929514D01*
X135185714Y-79929514D02*
X135214285Y-79958085D01*
X135214285Y-79958085D02*
X135242856Y-80015228D01*
X135242856Y-80015228D02*
X135242856Y-80158085D01*
X135242856Y-80158085D02*
X135214285Y-80215228D01*
X135214285Y-80215228D02*
X135185714Y-80243800D01*
X135185714Y-80243800D02*
X135128571Y-80272371D01*
X135128571Y-80272371D02*
X134957142Y-80272371D01*
X134957142Y-80272371D02*
X134899999Y-80243800D01*
X134899999Y-80243800D02*
X134871428Y-80215228D01*
X135500000Y-80215228D02*
X135528571Y-80243800D01*
X135528571Y-80243800D02*
X135500000Y-80272371D01*
X135500000Y-80272371D02*
X135471428Y-80243800D01*
X135471428Y-80243800D02*
X135500000Y-80215228D01*
X135500000Y-80215228D02*
X135500000Y-80272371D01*
X135728571Y-79672371D02*
X136099999Y-79672371D01*
X136099999Y-79672371D02*
X135899999Y-79900942D01*
X135899999Y-79900942D02*
X135985714Y-79900942D01*
X135985714Y-79900942D02*
X136042857Y-79929514D01*
X136042857Y-79929514D02*
X136071428Y-79958085D01*
X136071428Y-79958085D02*
X136099999Y-80015228D01*
X136099999Y-80015228D02*
X136099999Y-80158085D01*
X136099999Y-80158085D02*
X136071428Y-80215228D01*
X136071428Y-80215228D02*
X136042857Y-80243800D01*
X136042857Y-80243800D02*
X135985714Y-80272371D01*
X135985714Y-80272371D02*
X135814285Y-80272371D01*
X135814285Y-80272371D02*
X135757142Y-80243800D01*
X135757142Y-80243800D02*
X135728571Y-80215228D01*
X121150000Y-75922371D02*
X121150000Y-76350942D01*
X121150000Y-76350942D02*
X121121429Y-76436657D01*
X121121429Y-76436657D02*
X121064286Y-76493800D01*
X121064286Y-76493800D02*
X120978572Y-76522371D01*
X120978572Y-76522371D02*
X120921429Y-76522371D01*
X121435715Y-76522371D02*
X121435715Y-75922371D01*
X121435715Y-75922371D02*
X121635715Y-76350942D01*
X121635715Y-76350942D02*
X121835715Y-75922371D01*
X121835715Y-75922371D02*
X121835715Y-76522371D01*
X122121429Y-76522371D02*
X122121429Y-75922371D01*
X122121429Y-75922371D02*
X122350000Y-75922371D01*
X122350000Y-75922371D02*
X122407143Y-75950942D01*
X122407143Y-75950942D02*
X122435714Y-75979514D01*
X122435714Y-75979514D02*
X122464286Y-76036657D01*
X122464286Y-76036657D02*
X122464286Y-76122371D01*
X122464286Y-76122371D02*
X122435714Y-76179514D01*
X122435714Y-76179514D02*
X122407143Y-76208085D01*
X122407143Y-76208085D02*
X122350000Y-76236657D01*
X122350000Y-76236657D02*
X122121429Y-76236657D01*
X122578572Y-76579514D02*
X123035714Y-76579514D01*
X123178572Y-76522371D02*
X123178572Y-75922371D01*
X123178572Y-75922371D02*
X123407143Y-75922371D01*
X123407143Y-75922371D02*
X123464286Y-75950942D01*
X123464286Y-75950942D02*
X123492857Y-75979514D01*
X123492857Y-75979514D02*
X123521429Y-76036657D01*
X123521429Y-76036657D02*
X123521429Y-76122371D01*
X123521429Y-76122371D02*
X123492857Y-76179514D01*
X123492857Y-76179514D02*
X123464286Y-76208085D01*
X123464286Y-76208085D02*
X123407143Y-76236657D01*
X123407143Y-76236657D02*
X123178572Y-76236657D01*
X124121429Y-76522371D02*
X123921429Y-76236657D01*
X123778572Y-76522371D02*
X123778572Y-75922371D01*
X123778572Y-75922371D02*
X124007143Y-75922371D01*
X124007143Y-75922371D02*
X124064286Y-75950942D01*
X124064286Y-75950942D02*
X124092857Y-75979514D01*
X124092857Y-75979514D02*
X124121429Y-76036657D01*
X124121429Y-76036657D02*
X124121429Y-76122371D01*
X124121429Y-76122371D02*
X124092857Y-76179514D01*
X124092857Y-76179514D02*
X124064286Y-76208085D01*
X124064286Y-76208085D02*
X124007143Y-76236657D01*
X124007143Y-76236657D02*
X123778572Y-76236657D01*
X124492857Y-75922371D02*
X124607143Y-75922371D01*
X124607143Y-75922371D02*
X124664286Y-75950942D01*
X124664286Y-75950942D02*
X124721429Y-76008085D01*
X124721429Y-76008085D02*
X124750000Y-76122371D01*
X124750000Y-76122371D02*
X124750000Y-76322371D01*
X124750000Y-76322371D02*
X124721429Y-76436657D01*
X124721429Y-76436657D02*
X124664286Y-76493800D01*
X124664286Y-76493800D02*
X124607143Y-76522371D01*
X124607143Y-76522371D02*
X124492857Y-76522371D01*
X124492857Y-76522371D02*
X124435715Y-76493800D01*
X124435715Y-76493800D02*
X124378572Y-76436657D01*
X124378572Y-76436657D02*
X124350000Y-76322371D01*
X124350000Y-76322371D02*
X124350000Y-76122371D01*
X124350000Y-76122371D02*
X124378572Y-76008085D01*
X124378572Y-76008085D02*
X124435715Y-75950942D01*
X124435715Y-75950942D02*
X124492857Y-75922371D01*
X125321428Y-75950942D02*
X125264286Y-75922371D01*
X125264286Y-75922371D02*
X125178571Y-75922371D01*
X125178571Y-75922371D02*
X125092857Y-75950942D01*
X125092857Y-75950942D02*
X125035714Y-76008085D01*
X125035714Y-76008085D02*
X125007143Y-76065228D01*
X125007143Y-76065228D02*
X124978571Y-76179514D01*
X124978571Y-76179514D02*
X124978571Y-76265228D01*
X124978571Y-76265228D02*
X125007143Y-76379514D01*
X125007143Y-76379514D02*
X125035714Y-76436657D01*
X125035714Y-76436657D02*
X125092857Y-76493800D01*
X125092857Y-76493800D02*
X125178571Y-76522371D01*
X125178571Y-76522371D02*
X125235714Y-76522371D01*
X125235714Y-76522371D02*
X125321428Y-76493800D01*
X125321428Y-76493800D02*
X125350000Y-76465228D01*
X125350000Y-76465228D02*
X125350000Y-76265228D01*
X125350000Y-76265228D02*
X125235714Y-76265228D01*
X150257142Y-76172371D02*
X150371428Y-76172371D01*
X150371428Y-76172371D02*
X150428571Y-76200942D01*
X150428571Y-76200942D02*
X150485714Y-76258085D01*
X150485714Y-76258085D02*
X150514285Y-76372371D01*
X150514285Y-76372371D02*
X150514285Y-76572371D01*
X150514285Y-76572371D02*
X150485714Y-76686657D01*
X150485714Y-76686657D02*
X150428571Y-76743800D01*
X150428571Y-76743800D02*
X150371428Y-76772371D01*
X150371428Y-76772371D02*
X150257142Y-76772371D01*
X150257142Y-76772371D02*
X150200000Y-76743800D01*
X150200000Y-76743800D02*
X150142857Y-76686657D01*
X150142857Y-76686657D02*
X150114285Y-76572371D01*
X150114285Y-76572371D02*
X150114285Y-76372371D01*
X150114285Y-76372371D02*
X150142857Y-76258085D01*
X150142857Y-76258085D02*
X150200000Y-76200942D01*
X150200000Y-76200942D02*
X150257142Y-76172371D01*
X151114285Y-76715228D02*
X151085713Y-76743800D01*
X151085713Y-76743800D02*
X150999999Y-76772371D01*
X150999999Y-76772371D02*
X150942856Y-76772371D01*
X150942856Y-76772371D02*
X150857142Y-76743800D01*
X150857142Y-76743800D02*
X150799999Y-76686657D01*
X150799999Y-76686657D02*
X150771428Y-76629514D01*
X150771428Y-76629514D02*
X150742856Y-76515228D01*
X150742856Y-76515228D02*
X150742856Y-76429514D01*
X150742856Y-76429514D02*
X150771428Y-76315228D01*
X150771428Y-76315228D02*
X150799999Y-76258085D01*
X150799999Y-76258085D02*
X150857142Y-76200942D01*
X150857142Y-76200942D02*
X150942856Y-76172371D01*
X150942856Y-76172371D02*
X150999999Y-76172371D01*
X150999999Y-76172371D02*
X151085713Y-76200942D01*
X151085713Y-76200942D02*
X151114285Y-76229514D01*
X151371428Y-76772371D02*
X151371428Y-76172371D01*
X151371428Y-76172371D02*
X151571428Y-76600942D01*
X151571428Y-76600942D02*
X151771428Y-76172371D01*
X151771428Y-76172371D02*
X151771428Y-76772371D01*
X152371427Y-76772371D02*
X152028570Y-76772371D01*
X152199999Y-76772371D02*
X152199999Y-76172371D01*
X152199999Y-76172371D02*
X152142856Y-76258085D01*
X152142856Y-76258085D02*
X152085713Y-76315228D01*
X152085713Y-76315228D02*
X152028570Y-76343800D01*
X152599999Y-76600942D02*
X152885714Y-76600942D01*
X152542856Y-76772371D02*
X152742856Y-76172371D01*
X152742856Y-76172371D02*
X152942856Y-76772371D01*
X137542857Y-55172371D02*
X137542857Y-55658085D01*
X137542857Y-55658085D02*
X137571428Y-55715228D01*
X137571428Y-55715228D02*
X137600000Y-55743800D01*
X137600000Y-55743800D02*
X137657142Y-55772371D01*
X137657142Y-55772371D02*
X137771428Y-55772371D01*
X137771428Y-55772371D02*
X137828571Y-55743800D01*
X137828571Y-55743800D02*
X137857142Y-55715228D01*
X137857142Y-55715228D02*
X137885714Y-55658085D01*
X137885714Y-55658085D02*
X137885714Y-55172371D01*
X138114285Y-55172371D02*
X138485713Y-55172371D01*
X138485713Y-55172371D02*
X138285713Y-55400942D01*
X138285713Y-55400942D02*
X138371428Y-55400942D01*
X138371428Y-55400942D02*
X138428571Y-55429514D01*
X138428571Y-55429514D02*
X138457142Y-55458085D01*
X138457142Y-55458085D02*
X138485713Y-55515228D01*
X138485713Y-55515228D02*
X138485713Y-55658085D01*
X138485713Y-55658085D02*
X138457142Y-55715228D01*
X138457142Y-55715228D02*
X138428571Y-55743800D01*
X138428571Y-55743800D02*
X138371428Y-55772371D01*
X138371428Y-55772371D02*
X138199999Y-55772371D01*
X138199999Y-55772371D02*
X138142856Y-55743800D01*
X138142856Y-55743800D02*
X138114285Y-55715228D01*
X155985713Y-76743800D02*
X156071428Y-76772371D01*
X156071428Y-76772371D02*
X156214285Y-76772371D01*
X156214285Y-76772371D02*
X156271428Y-76743800D01*
X156271428Y-76743800D02*
X156299999Y-76715228D01*
X156299999Y-76715228D02*
X156328570Y-76658085D01*
X156328570Y-76658085D02*
X156328570Y-76600942D01*
X156328570Y-76600942D02*
X156299999Y-76543800D01*
X156299999Y-76543800D02*
X156271428Y-76515228D01*
X156271428Y-76515228D02*
X156214285Y-76486657D01*
X156214285Y-76486657D02*
X156099999Y-76458085D01*
X156099999Y-76458085D02*
X156042856Y-76429514D01*
X156042856Y-76429514D02*
X156014285Y-76400942D01*
X156014285Y-76400942D02*
X155985713Y-76343800D01*
X155985713Y-76343800D02*
X155985713Y-76286657D01*
X155985713Y-76286657D02*
X156014285Y-76229514D01*
X156014285Y-76229514D02*
X156042856Y-76200942D01*
X156042856Y-76200942D02*
X156099999Y-76172371D01*
X156099999Y-76172371D02*
X156242856Y-76172371D01*
X156242856Y-76172371D02*
X156328570Y-76200942D01*
X156585714Y-76772371D02*
X156585714Y-76172371D01*
X156585714Y-76172371D02*
X156728571Y-76172371D01*
X156728571Y-76172371D02*
X156814285Y-76200942D01*
X156814285Y-76200942D02*
X156871428Y-76258085D01*
X156871428Y-76258085D02*
X156899999Y-76315228D01*
X156899999Y-76315228D02*
X156928571Y-76429514D01*
X156928571Y-76429514D02*
X156928571Y-76515228D01*
X156928571Y-76515228D02*
X156899999Y-76629514D01*
X156899999Y-76629514D02*
X156871428Y-76686657D01*
X156871428Y-76686657D02*
X156814285Y-76743800D01*
X156814285Y-76743800D02*
X156728571Y-76772371D01*
X156728571Y-76772371D02*
X156585714Y-76772371D01*
X157157142Y-76600942D02*
X157442857Y-76600942D01*
X157099999Y-76772371D02*
X157299999Y-76172371D01*
X157299999Y-76172371D02*
X157499999Y-76772371D01*
X158014285Y-76772371D02*
X157671428Y-76772371D01*
X157842857Y-76772371D02*
X157842857Y-76172371D01*
X157842857Y-76172371D02*
X157785714Y-76258085D01*
X157785714Y-76258085D02*
X157728571Y-76315228D01*
X157728571Y-76315228D02*
X157671428Y-76343800D01*
X158871428Y-76172371D02*
X159242856Y-76172371D01*
X159242856Y-76172371D02*
X159042856Y-76400942D01*
X159042856Y-76400942D02*
X159128571Y-76400942D01*
X159128571Y-76400942D02*
X159185714Y-76429514D01*
X159185714Y-76429514D02*
X159214285Y-76458085D01*
X159214285Y-76458085D02*
X159242856Y-76515228D01*
X159242856Y-76515228D02*
X159242856Y-76658085D01*
X159242856Y-76658085D02*
X159214285Y-76715228D01*
X159214285Y-76715228D02*
X159185714Y-76743800D01*
X159185714Y-76743800D02*
X159128571Y-76772371D01*
X159128571Y-76772371D02*
X158957142Y-76772371D01*
X158957142Y-76772371D02*
X158899999Y-76743800D01*
X158899999Y-76743800D02*
X158871428Y-76715228D01*
X159500000Y-76715228D02*
X159528571Y-76743800D01*
X159528571Y-76743800D02*
X159500000Y-76772371D01*
X159500000Y-76772371D02*
X159471428Y-76743800D01*
X159471428Y-76743800D02*
X159500000Y-76715228D01*
X159500000Y-76715228D02*
X159500000Y-76772371D01*
X159728571Y-76172371D02*
X160099999Y-76172371D01*
X160099999Y-76172371D02*
X159899999Y-76400942D01*
X159899999Y-76400942D02*
X159985714Y-76400942D01*
X159985714Y-76400942D02*
X160042857Y-76429514D01*
X160042857Y-76429514D02*
X160071428Y-76458085D01*
X160071428Y-76458085D02*
X160099999Y-76515228D01*
X160099999Y-76515228D02*
X160099999Y-76658085D01*
X160099999Y-76658085D02*
X160071428Y-76715228D01*
X160071428Y-76715228D02*
X160042857Y-76743800D01*
X160042857Y-76743800D02*
X159985714Y-76772371D01*
X159985714Y-76772371D02*
X159814285Y-76772371D01*
X159814285Y-76772371D02*
X159757142Y-76743800D01*
X159757142Y-76743800D02*
X159728571Y-76715228D01*
X127871428Y-61172371D02*
X128242856Y-61172371D01*
X128242856Y-61172371D02*
X128042856Y-61400942D01*
X128042856Y-61400942D02*
X128128571Y-61400942D01*
X128128571Y-61400942D02*
X128185714Y-61429514D01*
X128185714Y-61429514D02*
X128214285Y-61458085D01*
X128214285Y-61458085D02*
X128242856Y-61515228D01*
X128242856Y-61515228D02*
X128242856Y-61658085D01*
X128242856Y-61658085D02*
X128214285Y-61715228D01*
X128214285Y-61715228D02*
X128185714Y-61743800D01*
X128185714Y-61743800D02*
X128128571Y-61772371D01*
X128128571Y-61772371D02*
X127957142Y-61772371D01*
X127957142Y-61772371D02*
X127899999Y-61743800D01*
X127899999Y-61743800D02*
X127871428Y-61715228D01*
X128500000Y-61715228D02*
X128528571Y-61743800D01*
X128528571Y-61743800D02*
X128500000Y-61772371D01*
X128500000Y-61772371D02*
X128471428Y-61743800D01*
X128471428Y-61743800D02*
X128500000Y-61715228D01*
X128500000Y-61715228D02*
X128500000Y-61772371D01*
X128728571Y-61172371D02*
X129099999Y-61172371D01*
X129099999Y-61172371D02*
X128899999Y-61400942D01*
X128899999Y-61400942D02*
X128985714Y-61400942D01*
X128985714Y-61400942D02*
X129042857Y-61429514D01*
X129042857Y-61429514D02*
X129071428Y-61458085D01*
X129071428Y-61458085D02*
X129099999Y-61515228D01*
X129099999Y-61515228D02*
X129099999Y-61658085D01*
X129099999Y-61658085D02*
X129071428Y-61715228D01*
X129071428Y-61715228D02*
X129042857Y-61743800D01*
X129042857Y-61743800D02*
X128985714Y-61772371D01*
X128985714Y-61772371D02*
X128814285Y-61772371D01*
X128814285Y-61772371D02*
X128757142Y-61743800D01*
X128757142Y-61743800D02*
X128728571Y-61715228D01*
D11*
X121419048Y-53168666D02*
X122180953Y-53168666D01*
D10*
X125500000Y-56958085D02*
X125585714Y-56986657D01*
X125585714Y-56986657D02*
X125614285Y-57015228D01*
X125614285Y-57015228D02*
X125642857Y-57072371D01*
X125642857Y-57072371D02*
X125642857Y-57158085D01*
X125642857Y-57158085D02*
X125614285Y-57215228D01*
X125614285Y-57215228D02*
X125585714Y-57243800D01*
X125585714Y-57243800D02*
X125528571Y-57272371D01*
X125528571Y-57272371D02*
X125300000Y-57272371D01*
X125300000Y-57272371D02*
X125300000Y-56672371D01*
X125300000Y-56672371D02*
X125500000Y-56672371D01*
X125500000Y-56672371D02*
X125557143Y-56700942D01*
X125557143Y-56700942D02*
X125585714Y-56729514D01*
X125585714Y-56729514D02*
X125614285Y-56786657D01*
X125614285Y-56786657D02*
X125614285Y-56843800D01*
X125614285Y-56843800D02*
X125585714Y-56900942D01*
X125585714Y-56900942D02*
X125557143Y-56929514D01*
X125557143Y-56929514D02*
X125500000Y-56958085D01*
X125500000Y-56958085D02*
X125300000Y-56958085D01*
X125900000Y-56672371D02*
X125900000Y-57158085D01*
X125900000Y-57158085D02*
X125928571Y-57215228D01*
X125928571Y-57215228D02*
X125957143Y-57243800D01*
X125957143Y-57243800D02*
X126014285Y-57272371D01*
X126014285Y-57272371D02*
X126128571Y-57272371D01*
X126128571Y-57272371D02*
X126185714Y-57243800D01*
X126185714Y-57243800D02*
X126214285Y-57215228D01*
X126214285Y-57215228D02*
X126242857Y-57158085D01*
X126242857Y-57158085D02*
X126242857Y-56672371D01*
X126442856Y-56672371D02*
X126785714Y-56672371D01*
X126614285Y-57272371D02*
X126614285Y-56672371D01*
X129900000Y-55715228D02*
X129871428Y-55743800D01*
X129871428Y-55743800D02*
X129785714Y-55772371D01*
X129785714Y-55772371D02*
X129728571Y-55772371D01*
X129728571Y-55772371D02*
X129642857Y-55743800D01*
X129642857Y-55743800D02*
X129585714Y-55686657D01*
X129585714Y-55686657D02*
X129557143Y-55629514D01*
X129557143Y-55629514D02*
X129528571Y-55515228D01*
X129528571Y-55515228D02*
X129528571Y-55429514D01*
X129528571Y-55429514D02*
X129557143Y-55315228D01*
X129557143Y-55315228D02*
X129585714Y-55258085D01*
X129585714Y-55258085D02*
X129642857Y-55200942D01*
X129642857Y-55200942D02*
X129728571Y-55172371D01*
X129728571Y-55172371D02*
X129785714Y-55172371D01*
X129785714Y-55172371D02*
X129871428Y-55200942D01*
X129871428Y-55200942D02*
X129900000Y-55229514D01*
X130100000Y-55172371D02*
X130500000Y-55172371D01*
X130500000Y-55172371D02*
X130242857Y-55772371D01*
X124900000Y-72272371D02*
X124700000Y-71986657D01*
X124557143Y-72272371D02*
X124557143Y-71672371D01*
X124557143Y-71672371D02*
X124785714Y-71672371D01*
X124785714Y-71672371D02*
X124842857Y-71700942D01*
X124842857Y-71700942D02*
X124871428Y-71729514D01*
X124871428Y-71729514D02*
X124900000Y-71786657D01*
X124900000Y-71786657D02*
X124900000Y-71872371D01*
X124900000Y-71872371D02*
X124871428Y-71929514D01*
X124871428Y-71929514D02*
X124842857Y-71958085D01*
X124842857Y-71958085D02*
X124785714Y-71986657D01*
X124785714Y-71986657D02*
X124557143Y-71986657D01*
X125471428Y-72272371D02*
X125128571Y-72272371D01*
X125300000Y-72272371D02*
X125300000Y-71672371D01*
X125300000Y-71672371D02*
X125242857Y-71758085D01*
X125242857Y-71758085D02*
X125185714Y-71815228D01*
X125185714Y-71815228D02*
X125128571Y-71843800D01*
X133042857Y-79700942D02*
X132985715Y-79672371D01*
X132985715Y-79672371D02*
X132900000Y-79672371D01*
X132900000Y-79672371D02*
X132814286Y-79700942D01*
X132814286Y-79700942D02*
X132757143Y-79758085D01*
X132757143Y-79758085D02*
X132728572Y-79815228D01*
X132728572Y-79815228D02*
X132700000Y-79929514D01*
X132700000Y-79929514D02*
X132700000Y-80015228D01*
X132700000Y-80015228D02*
X132728572Y-80129514D01*
X132728572Y-80129514D02*
X132757143Y-80186657D01*
X132757143Y-80186657D02*
X132814286Y-80243800D01*
X132814286Y-80243800D02*
X132900000Y-80272371D01*
X132900000Y-80272371D02*
X132957143Y-80272371D01*
X132957143Y-80272371D02*
X133042857Y-80243800D01*
X133042857Y-80243800D02*
X133071429Y-80215228D01*
X133071429Y-80215228D02*
X133071429Y-80015228D01*
X133071429Y-80015228D02*
X132957143Y-80015228D01*
X133328572Y-80272371D02*
X133328572Y-79672371D01*
X133328572Y-79672371D02*
X133671429Y-80272371D01*
X133671429Y-80272371D02*
X133671429Y-79672371D01*
X133957143Y-80272371D02*
X133957143Y-79672371D01*
X133957143Y-79672371D02*
X134100000Y-79672371D01*
X134100000Y-79672371D02*
X134185714Y-79700942D01*
X134185714Y-79700942D02*
X134242857Y-79758085D01*
X134242857Y-79758085D02*
X134271428Y-79815228D01*
X134271428Y-79815228D02*
X134300000Y-79929514D01*
X134300000Y-79929514D02*
X134300000Y-80015228D01*
X134300000Y-80015228D02*
X134271428Y-80129514D01*
X134271428Y-80129514D02*
X134242857Y-80186657D01*
X134242857Y-80186657D02*
X134185714Y-80243800D01*
X134185714Y-80243800D02*
X134100000Y-80272371D01*
X134100000Y-80272371D02*
X133957143Y-80272371D01*
X118371428Y-59172371D02*
X118742856Y-59172371D01*
X118742856Y-59172371D02*
X118542856Y-59400942D01*
X118542856Y-59400942D02*
X118628571Y-59400942D01*
X118628571Y-59400942D02*
X118685714Y-59429514D01*
X118685714Y-59429514D02*
X118714285Y-59458085D01*
X118714285Y-59458085D02*
X118742856Y-59515228D01*
X118742856Y-59515228D02*
X118742856Y-59658085D01*
X118742856Y-59658085D02*
X118714285Y-59715228D01*
X118714285Y-59715228D02*
X118685714Y-59743800D01*
X118685714Y-59743800D02*
X118628571Y-59772371D01*
X118628571Y-59772371D02*
X118457142Y-59772371D01*
X118457142Y-59772371D02*
X118399999Y-59743800D01*
X118399999Y-59743800D02*
X118371428Y-59715228D01*
X119000000Y-59715228D02*
X119028571Y-59743800D01*
X119028571Y-59743800D02*
X119000000Y-59772371D01*
X119000000Y-59772371D02*
X118971428Y-59743800D01*
X118971428Y-59743800D02*
X119000000Y-59715228D01*
X119000000Y-59715228D02*
X119000000Y-59772371D01*
X119228571Y-59172371D02*
X119599999Y-59172371D01*
X119599999Y-59172371D02*
X119399999Y-59400942D01*
X119399999Y-59400942D02*
X119485714Y-59400942D01*
X119485714Y-59400942D02*
X119542857Y-59429514D01*
X119542857Y-59429514D02*
X119571428Y-59458085D01*
X119571428Y-59458085D02*
X119599999Y-59515228D01*
X119599999Y-59515228D02*
X119599999Y-59658085D01*
X119599999Y-59658085D02*
X119571428Y-59715228D01*
X119571428Y-59715228D02*
X119542857Y-59743800D01*
X119542857Y-59743800D02*
X119485714Y-59772371D01*
X119485714Y-59772371D02*
X119314285Y-59772371D01*
X119314285Y-59772371D02*
X119257142Y-59743800D01*
X119257142Y-59743800D02*
X119228571Y-59715228D01*
X153185714Y-49743800D02*
X153271429Y-49772371D01*
X153271429Y-49772371D02*
X153414286Y-49772371D01*
X153414286Y-49772371D02*
X153471429Y-49743800D01*
X153471429Y-49743800D02*
X153500000Y-49715228D01*
X153500000Y-49715228D02*
X153528571Y-49658085D01*
X153528571Y-49658085D02*
X153528571Y-49600942D01*
X153528571Y-49600942D02*
X153500000Y-49543800D01*
X153500000Y-49543800D02*
X153471429Y-49515228D01*
X153471429Y-49515228D02*
X153414286Y-49486657D01*
X153414286Y-49486657D02*
X153300000Y-49458085D01*
X153300000Y-49458085D02*
X153242857Y-49429514D01*
X153242857Y-49429514D02*
X153214286Y-49400942D01*
X153214286Y-49400942D02*
X153185714Y-49343800D01*
X153185714Y-49343800D02*
X153185714Y-49286657D01*
X153185714Y-49286657D02*
X153214286Y-49229514D01*
X153214286Y-49229514D02*
X153242857Y-49200942D01*
X153242857Y-49200942D02*
X153300000Y-49172371D01*
X153300000Y-49172371D02*
X153442857Y-49172371D01*
X153442857Y-49172371D02*
X153528571Y-49200942D01*
X153785715Y-49458085D02*
X153985715Y-49458085D01*
X154071429Y-49772371D02*
X153785715Y-49772371D01*
X153785715Y-49772371D02*
X153785715Y-49172371D01*
X153785715Y-49172371D02*
X154071429Y-49172371D01*
X154671429Y-49772371D02*
X154471429Y-49486657D01*
X154328572Y-49772371D02*
X154328572Y-49172371D01*
X154328572Y-49172371D02*
X154557143Y-49172371D01*
X154557143Y-49172371D02*
X154614286Y-49200942D01*
X154614286Y-49200942D02*
X154642857Y-49229514D01*
X154642857Y-49229514D02*
X154671429Y-49286657D01*
X154671429Y-49286657D02*
X154671429Y-49372371D01*
X154671429Y-49372371D02*
X154642857Y-49429514D01*
X154642857Y-49429514D02*
X154614286Y-49458085D01*
X154614286Y-49458085D02*
X154557143Y-49486657D01*
X154557143Y-49486657D02*
X154328572Y-49486657D01*
X154842857Y-49172371D02*
X155042857Y-49772371D01*
X155042857Y-49772371D02*
X155242857Y-49172371D01*
X155557143Y-49172371D02*
X155671429Y-49172371D01*
X155671429Y-49172371D02*
X155728572Y-49200942D01*
X155728572Y-49200942D02*
X155785715Y-49258085D01*
X155785715Y-49258085D02*
X155814286Y-49372371D01*
X155814286Y-49372371D02*
X155814286Y-49572371D01*
X155814286Y-49572371D02*
X155785715Y-49686657D01*
X155785715Y-49686657D02*
X155728572Y-49743800D01*
X155728572Y-49743800D02*
X155671429Y-49772371D01*
X155671429Y-49772371D02*
X155557143Y-49772371D01*
X155557143Y-49772371D02*
X155500001Y-49743800D01*
X155500001Y-49743800D02*
X155442858Y-49686657D01*
X155442858Y-49686657D02*
X155414286Y-49572371D01*
X155414286Y-49572371D02*
X155414286Y-49372371D01*
X155414286Y-49372371D02*
X155442858Y-49258085D01*
X155442858Y-49258085D02*
X155500001Y-49200942D01*
X155500001Y-49200942D02*
X155557143Y-49172371D01*
X132400000Y-72215228D02*
X132371428Y-72243800D01*
X132371428Y-72243800D02*
X132285714Y-72272371D01*
X132285714Y-72272371D02*
X132228571Y-72272371D01*
X132228571Y-72272371D02*
X132142857Y-72243800D01*
X132142857Y-72243800D02*
X132085714Y-72186657D01*
X132085714Y-72186657D02*
X132057143Y-72129514D01*
X132057143Y-72129514D02*
X132028571Y-72015228D01*
X132028571Y-72015228D02*
X132028571Y-71929514D01*
X132028571Y-71929514D02*
X132057143Y-71815228D01*
X132057143Y-71815228D02*
X132085714Y-71758085D01*
X132085714Y-71758085D02*
X132142857Y-71700942D01*
X132142857Y-71700942D02*
X132228571Y-71672371D01*
X132228571Y-71672371D02*
X132285714Y-71672371D01*
X132285714Y-71672371D02*
X132371428Y-71700942D01*
X132371428Y-71700942D02*
X132400000Y-71729514D01*
X132600000Y-71672371D02*
X132971428Y-71672371D01*
X132971428Y-71672371D02*
X132771428Y-71900942D01*
X132771428Y-71900942D02*
X132857143Y-71900942D01*
X132857143Y-71900942D02*
X132914286Y-71929514D01*
X132914286Y-71929514D02*
X132942857Y-71958085D01*
X132942857Y-71958085D02*
X132971428Y-72015228D01*
X132971428Y-72015228D02*
X132971428Y-72158085D01*
X132971428Y-72158085D02*
X132942857Y-72215228D01*
X132942857Y-72215228D02*
X132914286Y-72243800D01*
X132914286Y-72243800D02*
X132857143Y-72272371D01*
X132857143Y-72272371D02*
X132685714Y-72272371D01*
X132685714Y-72272371D02*
X132628571Y-72243800D01*
X132628571Y-72243800D02*
X132600000Y-72215228D01*
X117957143Y-62272371D02*
X117957143Y-61672371D01*
X117957143Y-61672371D02*
X118157143Y-62100942D01*
X118157143Y-62100942D02*
X118357143Y-61672371D01*
X118357143Y-61672371D02*
X118357143Y-62272371D01*
X118985714Y-62215228D02*
X118957142Y-62243800D01*
X118957142Y-62243800D02*
X118871428Y-62272371D01*
X118871428Y-62272371D02*
X118814285Y-62272371D01*
X118814285Y-62272371D02*
X118728571Y-62243800D01*
X118728571Y-62243800D02*
X118671428Y-62186657D01*
X118671428Y-62186657D02*
X118642857Y-62129514D01*
X118642857Y-62129514D02*
X118614285Y-62015228D01*
X118614285Y-62015228D02*
X118614285Y-61929514D01*
X118614285Y-61929514D02*
X118642857Y-61815228D01*
X118642857Y-61815228D02*
X118671428Y-61758085D01*
X118671428Y-61758085D02*
X118728571Y-61700942D01*
X118728571Y-61700942D02*
X118814285Y-61672371D01*
X118814285Y-61672371D02*
X118871428Y-61672371D01*
X118871428Y-61672371D02*
X118957142Y-61700942D01*
X118957142Y-61700942D02*
X118985714Y-61729514D01*
X119528571Y-62272371D02*
X119242857Y-62272371D01*
X119242857Y-62272371D02*
X119242857Y-61672371D01*
X120071428Y-62272371D02*
X119871428Y-61986657D01*
X119728571Y-62272371D02*
X119728571Y-61672371D01*
X119728571Y-61672371D02*
X119957142Y-61672371D01*
X119957142Y-61672371D02*
X120014285Y-61700942D01*
X120014285Y-61700942D02*
X120042856Y-61729514D01*
X120042856Y-61729514D02*
X120071428Y-61786657D01*
X120071428Y-61786657D02*
X120071428Y-61872371D01*
X120071428Y-61872371D02*
X120042856Y-61929514D01*
X120042856Y-61929514D02*
X120014285Y-61958085D01*
X120014285Y-61958085D02*
X119957142Y-61986657D01*
X119957142Y-61986657D02*
X119728571Y-61986657D01*
X136885714Y-79672371D02*
X137085714Y-80272371D01*
X137085714Y-80272371D02*
X137285714Y-79672371D01*
X137485715Y-80272371D02*
X137485715Y-79872371D01*
X137485715Y-79672371D02*
X137457143Y-79700942D01*
X137457143Y-79700942D02*
X137485715Y-79729514D01*
X137485715Y-79729514D02*
X137514286Y-79700942D01*
X137514286Y-79700942D02*
X137485715Y-79672371D01*
X137485715Y-79672371D02*
X137485715Y-79729514D01*
X137771429Y-79872371D02*
X137771429Y-80272371D01*
X137771429Y-79929514D02*
X137800000Y-79900942D01*
X137800000Y-79900942D02*
X137857143Y-79872371D01*
X137857143Y-79872371D02*
X137942857Y-79872371D01*
X137942857Y-79872371D02*
X138000000Y-79900942D01*
X138000000Y-79900942D02*
X138028572Y-79958085D01*
X138028572Y-79958085D02*
X138028572Y-80272371D01*
X128042857Y-58700942D02*
X127985715Y-58672371D01*
X127985715Y-58672371D02*
X127900000Y-58672371D01*
X127900000Y-58672371D02*
X127814286Y-58700942D01*
X127814286Y-58700942D02*
X127757143Y-58758085D01*
X127757143Y-58758085D02*
X127728572Y-58815228D01*
X127728572Y-58815228D02*
X127700000Y-58929514D01*
X127700000Y-58929514D02*
X127700000Y-59015228D01*
X127700000Y-59015228D02*
X127728572Y-59129514D01*
X127728572Y-59129514D02*
X127757143Y-59186657D01*
X127757143Y-59186657D02*
X127814286Y-59243800D01*
X127814286Y-59243800D02*
X127900000Y-59272371D01*
X127900000Y-59272371D02*
X127957143Y-59272371D01*
X127957143Y-59272371D02*
X128042857Y-59243800D01*
X128042857Y-59243800D02*
X128071429Y-59215228D01*
X128071429Y-59215228D02*
X128071429Y-59015228D01*
X128071429Y-59015228D02*
X127957143Y-59015228D01*
X128328572Y-59272371D02*
X128328572Y-58672371D01*
X128328572Y-58672371D02*
X128671429Y-59272371D01*
X128671429Y-59272371D02*
X128671429Y-58672371D01*
X128957143Y-59272371D02*
X128957143Y-58672371D01*
X128957143Y-58672371D02*
X129100000Y-58672371D01*
X129100000Y-58672371D02*
X129185714Y-58700942D01*
X129185714Y-58700942D02*
X129242857Y-58758085D01*
X129242857Y-58758085D02*
X129271428Y-58815228D01*
X129271428Y-58815228D02*
X129300000Y-58929514D01*
X129300000Y-58929514D02*
X129300000Y-59015228D01*
X129300000Y-59015228D02*
X129271428Y-59129514D01*
X129271428Y-59129514D02*
X129242857Y-59186657D01*
X129242857Y-59186657D02*
X129185714Y-59243800D01*
X129185714Y-59243800D02*
X129100000Y-59272371D01*
X129100000Y-59272371D02*
X128957143Y-59272371D01*
D12*
X186024819Y-53621904D02*
X186834342Y-53621904D01*
X186834342Y-53621904D02*
X186929580Y-53574285D01*
X186929580Y-53574285D02*
X186977200Y-53526666D01*
X186977200Y-53526666D02*
X187024819Y-53431428D01*
X187024819Y-53431428D02*
X187024819Y-53240952D01*
X187024819Y-53240952D02*
X186977200Y-53145714D01*
X186977200Y-53145714D02*
X186929580Y-53098095D01*
X186929580Y-53098095D02*
X186834342Y-53050476D01*
X186834342Y-53050476D02*
X186024819Y-53050476D01*
X186120057Y-52621904D02*
X186072438Y-52574285D01*
X186072438Y-52574285D02*
X186024819Y-52479047D01*
X186024819Y-52479047D02*
X186024819Y-52240952D01*
X186024819Y-52240952D02*
X186072438Y-52145714D01*
X186072438Y-52145714D02*
X186120057Y-52098095D01*
X186120057Y-52098095D02*
X186215295Y-52050476D01*
X186215295Y-52050476D02*
X186310533Y-52050476D01*
X186310533Y-52050476D02*
X186453390Y-52098095D01*
X186453390Y-52098095D02*
X187024819Y-52669523D01*
X187024819Y-52669523D02*
X187024819Y-52050476D01*
D10*
X133114286Y-76772371D02*
X132828572Y-76772371D01*
X132828572Y-76772371D02*
X132828572Y-76172371D01*
X133314286Y-76458085D02*
X133514286Y-76458085D01*
X133600000Y-76772371D02*
X133314286Y-76772371D01*
X133314286Y-76772371D02*
X133314286Y-76172371D01*
X133314286Y-76172371D02*
X133600000Y-76172371D01*
X133857143Y-76772371D02*
X133857143Y-76172371D01*
X133857143Y-76172371D02*
X134000000Y-76172371D01*
X134000000Y-76172371D02*
X134085714Y-76200942D01*
X134085714Y-76200942D02*
X134142857Y-76258085D01*
X134142857Y-76258085D02*
X134171428Y-76315228D01*
X134171428Y-76315228D02*
X134200000Y-76429514D01*
X134200000Y-76429514D02*
X134200000Y-76515228D01*
X134200000Y-76515228D02*
X134171428Y-76629514D01*
X134171428Y-76629514D02*
X134142857Y-76686657D01*
X134142857Y-76686657D02*
X134085714Y-76743800D01*
X134085714Y-76743800D02*
X134000000Y-76772371D01*
X134000000Y-76772371D02*
X133857143Y-76772371D01*
D13*
X141487380Y-65954318D02*
X141487380Y-66982413D01*
X141487380Y-66982413D02*
X141547857Y-67103365D01*
X141547857Y-67103365D02*
X141608333Y-67163842D01*
X141608333Y-67163842D02*
X141729285Y-67224318D01*
X141729285Y-67224318D02*
X141971190Y-67224318D01*
X141971190Y-67224318D02*
X142092142Y-67163842D01*
X142092142Y-67163842D02*
X142152619Y-67103365D01*
X142152619Y-67103365D02*
X142213095Y-66982413D01*
X142213095Y-66982413D02*
X142213095Y-65954318D01*
X143483095Y-67224318D02*
X142757380Y-67224318D01*
X143120237Y-67224318D02*
X143120237Y-65954318D01*
X143120237Y-65954318D02*
X142999285Y-66135746D01*
X142999285Y-66135746D02*
X142878333Y-66256699D01*
X142878333Y-66256699D02*
X142757380Y-66317175D01*
D14*
X152000000Y-51210000D02*
G75*
G02*
X147000000Y-51210000I-2500000J0D01*
G01*
X147000000Y-51210000D02*
G75*
G02*
X152000000Y-51210000I2500000J0D01*
G01*
X152825000Y-51500000D02*
X152825000Y-52500000D01*
X152825000Y-52500000D02*
X159175000Y-52500000D01*
X159175000Y-50500000D02*
X154000000Y-50500000D01*
X159175000Y-52500000D02*
X159175000Y-50500000D01*
X150550000Y-70250000D02*
G75*
G02*
X150450000Y-70250000I-50000J0D01*
G01*
X150450000Y-70250000D02*
G75*
G02*
X150550000Y-70250000I50000J0D01*
G01*
X144800000Y-78000000D02*
G75*
G02*
X144700000Y-78000000I-50000J0D01*
G01*
X144700000Y-78000000D02*
G75*
G02*
X144800000Y-78000000I50000J0D01*
G01*
X153550000Y-60700000D02*
G75*
G02*
X153450000Y-60700000I-50000J0D01*
G01*
X153450000Y-60700000D02*
G75*
G02*
X153550000Y-60700000I50000J0D01*
G01*
X128000000Y-52000000D02*
G75*
G02*
X123000000Y-52000000I-2500000J0D01*
G01*
X123000000Y-52000000D02*
G75*
G02*
X128000000Y-52000000I2500000J0D01*
G01*
X127000000Y-68325000D02*
X127000000Y-69675000D01*
D15*
X160950000Y-50490000D02*
X178950000Y-50490000D01*
X160950000Y-64890000D02*
X160950000Y-50490000D01*
X178950000Y-50490000D02*
X185650000Y-50490000D01*
X178950000Y-64890000D02*
X160950000Y-64890000D01*
X178950000Y-64890000D02*
X178950000Y-50490000D01*
X185650000Y-50490000D02*
X185650000Y-64890000D01*
X185650000Y-64890000D02*
X178950000Y-64890000D01*
D14*
X165090000Y-49740000D02*
G75*
G02*
X164890000Y-49740000I-100000J0D01*
G01*
X164890000Y-49740000D02*
G75*
G02*
X165090000Y-49740000I100000J0D01*
G01*
X132837000Y-67063000D02*
X132837000Y-67063000D01*
X133037000Y-67063000D02*
X133037000Y-67063000D01*
X132837000Y-67063000D02*
G75*
G02*
X133037000Y-67063000I100000J0D01*
G01*
X133037000Y-67063000D02*
G75*
G02*
X132837000Y-67063000I-100000J0D01*
G01*
X147935000Y-78500000D02*
X147935000Y-79770000D01*
X147935000Y-79770000D02*
X160985000Y-79770000D01*
X160985000Y-77230000D02*
X149380000Y-77230000D01*
X160985000Y-79770000D02*
X160985000Y-77230000D01*
X150550000Y-60000000D02*
G75*
G02*
X150450000Y-60000000I-50000J0D01*
G01*
X150450000Y-60000000D02*
G75*
G02*
X150550000Y-60000000I50000J0D01*
G01*
X141350000Y-56475000D02*
X141350000Y-50850000D01*
X145650000Y-54075000D02*
X145650000Y-50850000D01*
X126900000Y-72700000D02*
X125100000Y-72700000D01*
X126900000Y-74300000D02*
X125100000Y-74300000D01*
X128800000Y-73400000D02*
X128800000Y-73400000D01*
X128800000Y-73600000D02*
X128800000Y-73600000D01*
X128800000Y-73400000D02*
G75*
G02*
X128800000Y-73600000I0J-100000D01*
G01*
X128800000Y-73600000D02*
G75*
G02*
X128800000Y-73400000I0J100000D01*
G01*
X129850000Y-56475000D02*
X129850000Y-50850000D01*
X134150000Y-54075000D02*
X134150000Y-50850000D01*
X153050000Y-71850000D02*
G75*
G02*
X152950000Y-71850000I-50000J0D01*
G01*
X152950000Y-71850000D02*
G75*
G02*
X153050000Y-71850000I50000J0D01*
G01*
X119050000Y-52150000D02*
X119050000Y-56150000D01*
X119050000Y-56150000D02*
X121050000Y-56150000D01*
X120050000Y-52150000D02*
X119050000Y-52150000D01*
X121050000Y-56150000D02*
X121050000Y-53150000D01*
X125250000Y-58075000D02*
X125250000Y-63250000D01*
X126250000Y-64425000D02*
X127250000Y-64425000D01*
X127250000Y-58075000D02*
X125250000Y-58075000D01*
X127250000Y-64425000D02*
X127250000Y-58075000D01*
X122150000Y-77000000D02*
X122150000Y-79000000D01*
X122150000Y-79000000D02*
X125150000Y-79000000D01*
X126150000Y-77000000D02*
X122150000Y-77000000D01*
X126150000Y-78000000D02*
X126150000Y-77000000D01*
X120230000Y-57975000D02*
X120230000Y-71025000D01*
X120230000Y-71025000D02*
X122770000Y-71025000D01*
X121500000Y-57975000D02*
X120230000Y-57975000D01*
X122770000Y-71025000D02*
X122770000Y-59420000D01*
X132300000Y-72300000D02*
G75*
G02*
X132200000Y-72300000I-50000J0D01*
G01*
X132200000Y-72300000D02*
G75*
G02*
X132300000Y-72300000I50000J0D01*
G01*
X132325000Y-77500000D02*
X132325000Y-79500000D01*
X132325000Y-79500000D02*
X137500000Y-79500000D01*
X138675000Y-77500000D02*
X132325000Y-77500000D01*
X138675000Y-78500000D02*
X138675000Y-77500000D01*
X129550000Y-78000000D02*
G75*
G02*
X129450000Y-78000000I-50000J0D01*
G01*
X129450000Y-78000000D02*
G75*
G02*
X129550000Y-78000000I50000J0D01*
G01*
X156800000Y-70250000D02*
G75*
G02*
X156700000Y-70250000I-50000J0D01*
G01*
X156700000Y-70250000D02*
G75*
G02*
X156800000Y-70250000I50000J0D01*
G01*
D16*
X136050000Y-54360000D02*
X140050000Y-54360000D01*
X136160000Y-50140000D02*
X140050000Y-50140000D01*
X135920000Y-50690000D02*
X135440000Y-50690000D01*
X135920000Y-50210000D01*
X135920000Y-50690000D01*
G36*
X135920000Y-50690000D02*
G01*
X135440000Y-50690000D01*
X135920000Y-50210000D01*
X135920000Y-50690000D01*
G37*
D14*
X153550000Y-69950000D02*
G75*
G02*
X153450000Y-69950000I-50000J0D01*
G01*
X153450000Y-69950000D02*
G75*
G02*
X153550000Y-69950000I50000J0D01*
G01*
X156800000Y-72050000D02*
G75*
G02*
X156700000Y-72050000I-50000J0D01*
G01*
X156700000Y-72050000D02*
G75*
G02*
X156800000Y-72050000I50000J0D01*
G01*
X136855000Y-57720000D02*
X138705000Y-57720000D01*
X139055000Y-57700000D02*
X145855000Y-57700000D01*
X139055000Y-75600000D02*
X139055000Y-57700000D01*
X145855000Y-57700000D02*
X145855000Y-75600000D01*
X145855000Y-75600000D02*
X139055000Y-75600000D01*
%LPC*%
D17*
X132465000Y-69750000D03*
X133135000Y-69750000D03*
D18*
X149500000Y-52210000D03*
D19*
X149500000Y-50210000D03*
D20*
X154000000Y-51500000D03*
D21*
X156000000Y-51500000D03*
X158000000Y-51500000D03*
D22*
X150500000Y-69400000D03*
X150500000Y-67600000D03*
D23*
X143900000Y-78000000D03*
X142100000Y-78000000D03*
D22*
X153500000Y-59850000D03*
X153500000Y-58050000D03*
D18*
X125500000Y-53000000D03*
D19*
X125500000Y-51000000D03*
D24*
X125500000Y-69000000D03*
X128500000Y-69000000D03*
D25*
X164990000Y-53990000D03*
D26*
X164990000Y-56530000D03*
X164990000Y-59070000D03*
X164990000Y-61610000D03*
X162450000Y-53990000D03*
X162450000Y-56530000D03*
X162450000Y-59070000D03*
X162450000Y-61610000D03*
D27*
X132924000Y-66000000D03*
X132924000Y-64726000D03*
X131950000Y-64726000D03*
X131950000Y-66000000D03*
D28*
X149380000Y-78500000D03*
D29*
X151920000Y-78500000D03*
X154460000Y-78500000D03*
X157000000Y-78500000D03*
X159540000Y-78500000D03*
D30*
X150500000Y-59450000D03*
X150500000Y-58550000D03*
D31*
X143500000Y-55100000D03*
X143500000Y-50900000D03*
D32*
X127725000Y-73500000D03*
X124275000Y-73500000D03*
D31*
X132000000Y-55100000D03*
X132000000Y-50900000D03*
D22*
X153000000Y-72700000D03*
X153000000Y-74500000D03*
D20*
X120050000Y-53150000D03*
D21*
X120050000Y-55150000D03*
D20*
X126250000Y-63250000D03*
D21*
X126250000Y-61250000D03*
X126250000Y-59250000D03*
D20*
X125150000Y-78000000D03*
D21*
X123150000Y-78000000D03*
D28*
X121500000Y-59420000D03*
D29*
X121500000Y-61960000D03*
X121500000Y-64500000D03*
X121500000Y-67040000D03*
X121500000Y-69580000D03*
D30*
X132250000Y-72850000D03*
X132250000Y-73750000D03*
D20*
X137500000Y-78500000D03*
D21*
X135500000Y-78500000D03*
X133500000Y-78500000D03*
D30*
X128950000Y-78000000D03*
X128050000Y-78000000D03*
D17*
X130885000Y-60000000D03*
X130215000Y-60000000D03*
D22*
X156750000Y-69400000D03*
X156750000Y-67600000D03*
D33*
X136400000Y-51050000D03*
X136400000Y-51850000D03*
X136400000Y-52650000D03*
X136400000Y-53450000D03*
X139700000Y-53450000D03*
X139700000Y-52650000D03*
X139700000Y-51850000D03*
X139700000Y-51050000D03*
D34*
X138050000Y-52250000D03*
D30*
X153500000Y-69400000D03*
X153500000Y-68500000D03*
X156750000Y-72600000D03*
X156750000Y-73500000D03*
D35*
X137780000Y-58395000D03*
X137780000Y-59665000D03*
X137780000Y-60935000D03*
X137780000Y-62205000D03*
X137780000Y-63475000D03*
X137780000Y-64745000D03*
X137780000Y-66015000D03*
X137780000Y-67285000D03*
X137780000Y-68555000D03*
X137780000Y-69825000D03*
X137780000Y-71095000D03*
X137780000Y-72365000D03*
X137780000Y-73635000D03*
X137780000Y-74905000D03*
X147130000Y-74905000D03*
X147130000Y-73635000D03*
X147130000Y-72365000D03*
X147130000Y-71095000D03*
X147130000Y-69825000D03*
X147130000Y-68555000D03*
X147130000Y-67285000D03*
X147130000Y-66015000D03*
X147130000Y-64745000D03*
X147130000Y-63475000D03*
X147130000Y-62205000D03*
X147130000Y-60935000D03*
X147130000Y-59665000D03*
X147130000Y-58395000D03*
%LPD*%
M02*
