G04 #@! TF.GenerationSoftware,KiCad,Pcbnew,8.0.7*
G04 #@! TF.CreationDate,2025-01-30T16:18:45+01:00*
G04 #@! TF.ProjectId,schematics,73636865-6d61-4746-9963-732e6b696361,rev?*
G04 #@! TF.SameCoordinates,Original*
G04 #@! TF.FileFunction,Copper,L1,Top*
G04 #@! TF.FilePolarity,Positive*
%FSLAX46Y46*%
G04 Gerber Fmt 4.6, Leading zero omitted, Abs format (unit mm)*
G04 Created by KiCad (PCBNEW 8.0.7) date 2025-01-30 16:18:45*
%MOMM*%
%LPD*%
G01*
G04 APERTURE LIST*
G04 Aperture macros list*
%AMRoundRect*
0 Rectangle with rounded corners*
0 $1 Rounding radius*
0 $2 $3 $4 $5 $6 $7 $8 $9 X,Y pos of 4 corners*
0 Add a 4 corners polygon primitive as box body*
4,1,4,$2,$3,$4,$5,$6,$7,$8,$9,$2,$3,0*
0 Add four circle primitives for the rounded corners*
1,1,$1+$1,$2,$3*
1,1,$1+$1,$4,$5*
1,1,$1+$1,$6,$7*
1,1,$1+$1,$8,$9*
0 Add four rect primitives between the rounded corners*
20,1,$1+$1,$2,$3,$4,$5,0*
20,1,$1+$1,$4,$5,$6,$7,0*
20,1,$1+$1,$6,$7,$8,$9,0*
20,1,$1+$1,$8,$9,$2,$3,0*%
G04 Aperture macros list end*
G04 #@! TA.AperFunction,SMDPad,CuDef*
%ADD10R,0.470000X0.440000*%
G04 #@! TD*
G04 #@! TA.AperFunction,ComponentPad*
%ADD11R,1.100000X1.100000*%
G04 #@! TD*
G04 #@! TA.AperFunction,ComponentPad*
%ADD12C,1.100000*%
G04 #@! TD*
G04 #@! TA.AperFunction,ComponentPad*
%ADD13R,1.200000X1.200000*%
G04 #@! TD*
G04 #@! TA.AperFunction,ComponentPad*
%ADD14C,1.200000*%
G04 #@! TD*
G04 #@! TA.AperFunction,SMDPad,CuDef*
%ADD15R,1.450000X1.150000*%
G04 #@! TD*
G04 #@! TA.AperFunction,SMDPad,CuDef*
%ADD16R,1.150000X1.450000*%
G04 #@! TD*
G04 #@! TA.AperFunction,SMDPad,CuDef*
%ADD17R,1.150000X1.700000*%
G04 #@! TD*
G04 #@! TA.AperFunction,ComponentPad*
%ADD18R,1.500000X1.500000*%
G04 #@! TD*
G04 #@! TA.AperFunction,ComponentPad*
%ADD19C,1.500000*%
G04 #@! TD*
G04 #@! TA.AperFunction,SMDPad,CuDef*
%ADD20RoundRect,0.180000X0.180000X0.230000X-0.180000X0.230000X-0.180000X-0.230000X0.180000X-0.230000X0*%
G04 #@! TD*
G04 #@! TA.AperFunction,ComponentPad*
%ADD21R,1.650000X1.650000*%
G04 #@! TD*
G04 #@! TA.AperFunction,ComponentPad*
%ADD22C,1.650000*%
G04 #@! TD*
G04 #@! TA.AperFunction,SMDPad,CuDef*
%ADD23R,0.620000X0.620000*%
G04 #@! TD*
G04 #@! TA.AperFunction,SMDPad,CuDef*
%ADD24R,1.850000X2.750000*%
G04 #@! TD*
G04 #@! TA.AperFunction,SMDPad,CuDef*
%ADD25R,1.250000X1.500000*%
G04 #@! TD*
G04 #@! TA.AperFunction,SMDPad,CuDef*
%ADD26RoundRect,0.100000X-0.225000X-0.100000X0.225000X-0.100000X0.225000X0.100000X-0.225000X0.100000X0*%
G04 #@! TD*
G04 #@! TA.AperFunction,HeatsinkPad*
%ADD27R,2.200000X3.000000*%
G04 #@! TD*
G04 #@! TA.AperFunction,SMDPad,CuDef*
%ADD28R,1.850000X0.650000*%
G04 #@! TD*
G04 #@! TA.AperFunction,ViaPad*
%ADD29C,2.200000*%
G04 #@! TD*
G04 #@! TA.AperFunction,ViaPad*
%ADD30C,0.600000*%
G04 #@! TD*
G04 #@! TA.AperFunction,Conductor*
%ADD31C,0.200000*%
G04 #@! TD*
G04 #@! TA.AperFunction,Conductor*
%ADD32C,0.300000*%
G04 #@! TD*
G04 #@! TA.AperFunction,Conductor*
%ADD33C,0.500000*%
G04 #@! TD*
G04 #@! TA.AperFunction,Conductor*
%ADD34C,0.400000*%
G04 #@! TD*
G04 APERTURE END LIST*
D10*
X132465000Y-69750000D03*
X133135000Y-69750000D03*
D11*
X149500000Y-52210000D03*
D12*
X149500000Y-50210000D03*
D13*
X154000000Y-51500000D03*
D14*
X156000000Y-51500000D03*
X158000000Y-51500000D03*
D15*
X150500000Y-69400000D03*
X150500000Y-67600000D03*
D16*
X143900000Y-78000000D03*
X142100000Y-78000000D03*
D15*
X153500000Y-59850000D03*
X153500000Y-58050000D03*
D11*
X125500000Y-53000000D03*
D12*
X125500000Y-51000000D03*
D17*
X125500000Y-69000000D03*
X128500000Y-69000000D03*
D18*
X164990000Y-53990000D03*
D19*
X164990000Y-56530000D03*
X164990000Y-59070000D03*
X164990000Y-61610000D03*
X162450000Y-53990000D03*
X162450000Y-56530000D03*
X162450000Y-59070000D03*
X162450000Y-61610000D03*
D20*
X132924000Y-66000000D03*
X132924000Y-64726000D03*
X131950000Y-64726000D03*
X131950000Y-66000000D03*
D21*
X149380000Y-78500000D03*
D22*
X151920000Y-78500000D03*
X154460000Y-78500000D03*
X157000000Y-78500000D03*
X159540000Y-78500000D03*
D23*
X150500000Y-59450000D03*
X150500000Y-58550000D03*
D24*
X143500000Y-55100000D03*
X143500000Y-50900000D03*
D25*
X127725000Y-73500000D03*
X124275000Y-73500000D03*
D24*
X132000000Y-55100000D03*
X132000000Y-50900000D03*
D15*
X153000000Y-72700000D03*
X153000000Y-74500000D03*
D13*
X120050000Y-53150000D03*
D14*
X120050000Y-55150000D03*
D13*
X126250000Y-63250000D03*
D14*
X126250000Y-61250000D03*
X126250000Y-59250000D03*
D13*
X125150000Y-78000000D03*
D14*
X123150000Y-78000000D03*
D21*
X121500000Y-59420000D03*
D22*
X121500000Y-61960000D03*
X121500000Y-64500000D03*
X121500000Y-67040000D03*
X121500000Y-69580000D03*
D23*
X132250000Y-72850000D03*
X132250000Y-73750000D03*
D13*
X137500000Y-78500000D03*
D14*
X135500000Y-78500000D03*
X133500000Y-78500000D03*
D23*
X128950000Y-78000000D03*
X128050000Y-78000000D03*
D10*
X130885000Y-60000000D03*
X130215000Y-60000000D03*
D15*
X156750000Y-69400000D03*
X156750000Y-67600000D03*
D26*
X136400000Y-51050000D03*
X136400000Y-51850000D03*
X136400000Y-52650000D03*
X136400000Y-53450000D03*
X139700000Y-53450000D03*
X139700000Y-52650000D03*
X139700000Y-51850000D03*
X139700000Y-51050000D03*
D27*
X138050000Y-52250000D03*
D23*
X153500000Y-69400000D03*
X153500000Y-68500000D03*
X156750000Y-72600000D03*
X156750000Y-73500000D03*
D28*
X137780000Y-58395000D03*
X137780000Y-59665000D03*
X137780000Y-60935000D03*
X137780000Y-62205000D03*
X137780000Y-63475000D03*
X137780000Y-64745000D03*
X137780000Y-66015000D03*
X137780000Y-67285000D03*
X137780000Y-68555000D03*
X137780000Y-69825000D03*
X137780000Y-71095000D03*
X137780000Y-72365000D03*
X137780000Y-73635000D03*
X137780000Y-74905000D03*
X147130000Y-74905000D03*
X147130000Y-73635000D03*
X147130000Y-72365000D03*
X147130000Y-71095000D03*
X147130000Y-69825000D03*
X147130000Y-68555000D03*
X147130000Y-67285000D03*
X147130000Y-66015000D03*
X147130000Y-64745000D03*
X147130000Y-63475000D03*
X147130000Y-62205000D03*
X147130000Y-60935000D03*
X147130000Y-59665000D03*
X147130000Y-58395000D03*
D29*
X120050000Y-50200000D03*
X119950000Y-78500000D03*
X172550000Y-50400000D03*
X172450000Y-78400000D03*
D30*
X131500000Y-73000000D03*
X145000000Y-70000000D03*
X153000000Y-61000000D03*
X131000000Y-66000000D03*
X129500000Y-60000000D03*
X151000000Y-60500000D03*
X139500000Y-67000000D03*
X145500000Y-50500000D03*
X154000000Y-70500000D03*
X145500000Y-60000000D03*
X130000000Y-78000000D03*
X134000000Y-64500000D03*
X155500000Y-72500000D03*
X130000000Y-50500000D03*
X131500000Y-69500000D03*
X155500000Y-69500000D03*
X153000000Y-71500000D03*
X150000000Y-70500000D03*
X131875735Y-59124265D03*
X153500000Y-56500000D03*
X133000000Y-58000000D03*
X151500000Y-55000000D03*
X152000000Y-53500000D03*
X147000000Y-53500000D03*
X135500000Y-49500000D03*
X135000000Y-52000000D03*
X135500000Y-69000000D03*
X135433235Y-66933235D03*
X131500000Y-63000000D03*
X131500000Y-61000000D03*
X127650000Y-65000000D03*
X126350000Y-65000000D03*
X119000000Y-65500000D03*
X119154265Y-63845735D03*
X135500000Y-61000000D03*
X136000000Y-63000000D03*
X136500000Y-76000000D03*
X135000000Y-74500000D03*
X139500000Y-70500000D03*
X136000000Y-70500000D03*
X157500000Y-64500000D03*
X159000000Y-66000000D03*
D31*
X147130000Y-69825000D02*
X145175000Y-69825000D01*
D32*
X143500000Y-50900000D02*
X145100000Y-50900000D01*
X131950000Y-66000000D02*
X131000000Y-66000000D01*
X145835000Y-59665000D02*
X145500000Y-60000000D01*
X132000000Y-50900000D02*
X130400000Y-50900000D01*
D31*
X147345000Y-59450000D02*
X147130000Y-59665000D01*
D32*
X153000000Y-72000000D02*
X153000000Y-71500000D01*
D31*
X132000000Y-50900000D02*
X132400000Y-50900000D01*
D32*
X153500000Y-59850000D02*
X153500000Y-60500000D01*
X153000000Y-72700000D02*
X153000000Y-72000000D01*
D31*
X155600000Y-72600000D02*
X155500000Y-72500000D01*
X133774000Y-64726000D02*
X134000000Y-64500000D01*
D32*
X132550000Y-51050000D02*
X136400000Y-51050000D01*
D31*
X153500000Y-69400000D02*
X153500000Y-69500000D01*
D32*
X150500000Y-70000000D02*
X150000000Y-70500000D01*
X154000000Y-70000000D02*
X154000000Y-70500000D01*
D31*
X155600000Y-69400000D02*
X155500000Y-69500000D01*
X132500000Y-50110000D02*
X132610000Y-50110000D01*
D32*
X131750000Y-69750000D02*
X131500000Y-69500000D01*
X143900000Y-78000000D02*
X148880000Y-78000000D01*
D31*
X132400000Y-50900000D02*
X132550000Y-51050000D01*
D32*
X150500000Y-60000000D02*
X151000000Y-60500000D01*
D31*
X148880000Y-78000000D02*
X149380000Y-78500000D01*
D32*
X132465000Y-69750000D02*
X131750000Y-69750000D01*
X147130000Y-59665000D02*
X145835000Y-59665000D01*
X145100000Y-50900000D02*
X145500000Y-50500000D01*
X132924000Y-64726000D02*
X133774000Y-64726000D01*
X130215000Y-60000000D02*
X129500000Y-60000000D01*
X156750000Y-69400000D02*
X155600000Y-69400000D01*
D31*
X149400000Y-50110000D02*
X149500000Y-50210000D01*
X131650000Y-72850000D02*
X131500000Y-73000000D01*
D32*
X130400000Y-50900000D02*
X130000000Y-50500000D01*
X139215000Y-67285000D02*
X139500000Y-67000000D01*
X137780000Y-67285000D02*
X139215000Y-67285000D01*
X153500000Y-60500000D02*
X153000000Y-61000000D01*
X150500000Y-69400000D02*
X150500000Y-70000000D01*
X150500000Y-59450000D02*
X150500000Y-60000000D01*
X132250000Y-72850000D02*
X131650000Y-72850000D01*
X153500000Y-69500000D02*
X154000000Y-70000000D01*
X128950000Y-78000000D02*
X130000000Y-78000000D01*
X156750000Y-72600000D02*
X155600000Y-72600000D01*
D31*
X145175000Y-69825000D02*
X145000000Y-70000000D01*
D33*
X123330000Y-61250000D02*
X121500000Y-59420000D01*
X133000000Y-58000000D02*
X134350000Y-58000000D01*
X142100000Y-79600000D02*
X142500000Y-80000000D01*
X158040000Y-80000000D02*
X144100000Y-80000000D01*
X159540000Y-76290000D02*
X156750000Y-73500000D01*
X136365000Y-73635000D02*
X137780000Y-73635000D01*
X142100000Y-78150000D02*
X140875000Y-79375000D01*
X126250000Y-61250000D02*
X128375735Y-59124265D01*
X141850000Y-53450000D02*
X143500000Y-55100000D01*
X150500000Y-58550000D02*
X153000000Y-58550000D01*
X140250000Y-80000000D02*
X140875000Y-79375000D01*
X156750000Y-67600000D02*
X156750000Y-66750000D01*
X136400000Y-79400000D02*
X137000000Y-80000000D01*
X132250000Y-73750000D02*
X131500000Y-74500000D01*
X139700000Y-53450000D02*
X141850000Y-53450000D01*
X162450000Y-59070000D02*
X162450000Y-61610000D01*
X128725000Y-74500000D02*
X127725000Y-73500000D01*
X157600000Y-67600000D02*
X156750000Y-67600000D01*
X153500000Y-68500000D02*
X154000000Y-68500000D01*
D34*
X138050000Y-52250000D02*
X139250000Y-53450000D01*
D33*
X132250000Y-75250000D02*
X135500000Y-78500000D01*
X157260000Y-73500000D02*
X159000000Y-71760000D01*
X153000000Y-58550000D02*
X153500000Y-58050000D01*
X138050000Y-54300000D02*
X138050000Y-52250000D01*
D34*
X139250000Y-53450000D02*
X139700000Y-53450000D01*
D33*
X137000000Y-80000000D02*
X140250000Y-80000000D01*
X128375735Y-59124265D02*
X131875735Y-59124265D01*
X158520000Y-79520000D02*
X159540000Y-78500000D01*
X158520000Y-79520000D02*
X158040000Y-80000000D01*
D32*
X156750000Y-73500000D02*
X157260000Y-73500000D01*
D33*
X153500000Y-56500000D02*
X153500000Y-58050000D01*
X153000000Y-74500000D02*
X155750000Y-74500000D01*
X149500000Y-52210000D02*
X149500000Y-53000000D01*
X147130000Y-58395000D02*
X150345000Y-58395000D01*
X135500000Y-75335000D02*
X135917500Y-74917500D01*
X154900000Y-67600000D02*
X156750000Y-67600000D01*
X151500000Y-55000000D02*
X149500000Y-53000000D01*
X126250000Y-61250000D02*
X123330000Y-61250000D01*
X132250000Y-73750000D02*
X132250000Y-75250000D01*
X146610000Y-55100000D02*
X149500000Y-52210000D01*
X143500000Y-55100000D02*
X146610000Y-55100000D01*
X153500000Y-58050000D02*
X161430000Y-58050000D01*
X134350000Y-58000000D02*
X138050000Y-54300000D01*
X159000000Y-69000000D02*
X157600000Y-67600000D01*
D31*
X135917500Y-74917500D02*
X136000000Y-74835000D01*
D33*
X135500000Y-78500000D02*
X135500000Y-75335000D01*
D31*
X142100000Y-78000000D02*
X142100000Y-78150000D01*
D33*
X159540000Y-78500000D02*
X159540000Y-76290000D01*
X139700000Y-52650000D02*
X139700000Y-51850000D01*
D32*
X158415000Y-79625000D02*
X158520000Y-79520000D01*
D33*
X155750000Y-74500000D02*
X156750000Y-73500000D01*
X162450000Y-61610000D02*
X161640000Y-61610000D01*
X139700000Y-53450000D02*
X139700000Y-52650000D01*
X131500000Y-74500000D02*
X128725000Y-74500000D01*
X136000000Y-74000000D02*
X136365000Y-73635000D01*
X161640000Y-61610000D02*
X156750000Y-66500000D01*
X161430000Y-58050000D02*
X162450000Y-59070000D01*
X159000000Y-71760000D02*
X159000000Y-69000000D01*
X136400000Y-79400000D02*
X135500000Y-78500000D01*
X142500000Y-80000000D02*
X144100000Y-80000000D01*
X154000000Y-68500000D02*
X154900000Y-67600000D01*
X142100000Y-78000000D02*
X142100000Y-79600000D01*
X136000000Y-74835000D02*
X136000000Y-74000000D01*
D31*
X150345000Y-58395000D02*
X150500000Y-58550000D01*
D33*
X156750000Y-66500000D02*
X156750000Y-66750000D01*
D32*
X125150000Y-78000000D02*
X128050000Y-78000000D01*
X147342500Y-68342500D02*
X149757500Y-68342500D01*
X149757500Y-68342500D02*
X150500000Y-67600000D01*
D31*
X147130000Y-68555000D02*
X147342500Y-68342500D01*
D32*
X147385000Y-68300000D02*
X147130000Y-68555000D01*
D33*
X141500000Y-50500000D02*
X140000000Y-49000000D01*
X141500000Y-52000000D02*
X141500000Y-50500000D01*
X135000000Y-52050000D02*
X136400000Y-53450000D01*
X129900000Y-53000000D02*
X132000000Y-55100000D01*
X136500000Y-49000000D02*
X136000000Y-49000000D01*
X145000000Y-53000000D02*
X146500000Y-53000000D01*
X134750000Y-55100000D02*
X136400000Y-53450000D01*
D31*
X135000000Y-52000000D02*
X135000000Y-52050000D01*
D33*
X136000000Y-49000000D02*
X135500000Y-49500000D01*
X146500000Y-53000000D02*
X147000000Y-53500000D01*
X125500000Y-53000000D02*
X129900000Y-53000000D01*
X138700000Y-49000000D02*
X136500000Y-49000000D01*
X132000000Y-55100000D02*
X134750000Y-55100000D01*
X152000000Y-53500000D02*
X154000000Y-51500000D01*
D31*
X132500000Y-54310000D02*
X132690000Y-54310000D01*
D33*
X145000000Y-53000000D02*
X142500000Y-53000000D01*
X120050000Y-55150000D02*
X123350000Y-55150000D01*
D31*
X132810000Y-54310000D02*
X132500000Y-54310000D01*
D33*
X123350000Y-55150000D02*
X125500000Y-53000000D01*
X142500000Y-53000000D02*
X141500000Y-52000000D01*
X140000000Y-49000000D02*
X138700000Y-49000000D01*
D32*
X136400000Y-53000000D02*
X136400000Y-52650000D01*
D33*
X136400000Y-53000000D02*
X136400000Y-51850000D01*
X136400000Y-53450000D02*
X136400000Y-53000000D01*
D32*
X154000000Y-51500000D02*
X153560000Y-51060000D01*
X135000000Y-69000000D02*
X134250000Y-69750000D01*
D31*
X135433235Y-66933235D02*
X135566765Y-66933235D01*
D32*
X136485000Y-66015000D02*
X137780000Y-66015000D01*
X135566765Y-66933235D02*
X136485000Y-66015000D01*
D31*
X137780000Y-66015000D02*
X138360000Y-66015000D01*
D32*
X135500000Y-69000000D02*
X135000000Y-69000000D01*
X134500000Y-66000000D02*
X132924000Y-66000000D01*
X135433235Y-66933235D02*
X134500000Y-66000000D01*
X133135000Y-69750000D02*
X134250000Y-69750000D01*
X136593529Y-64745000D02*
X137780000Y-64745000D01*
X135424264Y-63575736D02*
X136593529Y-64745000D01*
X131950000Y-64201471D02*
X132825735Y-63325735D01*
X132825735Y-63325735D02*
X135174263Y-63325735D01*
D31*
X138380000Y-64745000D02*
X137780000Y-64745000D01*
D32*
X135174263Y-63325735D02*
X135424264Y-63575736D01*
X131500000Y-60615000D02*
X130885000Y-60000000D01*
X131950000Y-64726000D02*
X131950000Y-64201471D01*
X131500000Y-64276000D02*
X131950000Y-64726000D01*
X131500000Y-63000000D02*
X131500000Y-64276000D01*
X131500000Y-61000000D02*
X131500000Y-60615000D01*
X127650000Y-65000000D02*
X130650000Y-62000000D01*
X135500000Y-62000000D02*
X137575000Y-62000000D01*
D31*
X121500000Y-64500000D02*
X122000000Y-65000000D01*
D32*
X122000000Y-65000000D02*
X126350000Y-65000000D01*
X130650000Y-62000000D02*
X135500000Y-62000000D01*
D31*
X137575000Y-62000000D02*
X137780000Y-62205000D01*
D32*
X121329009Y-71000000D02*
X123500000Y-71000000D01*
X119000000Y-68670991D02*
X119000000Y-70000000D01*
D31*
X124275000Y-73500000D02*
X124275000Y-73225000D01*
D32*
X123500000Y-71000000D02*
X125500000Y-69000000D01*
X119000000Y-70000000D02*
X120000000Y-71000000D01*
X119000000Y-65500000D02*
X119000000Y-68670991D01*
X124275000Y-73225000D02*
X125500000Y-72000000D01*
X120000000Y-71000000D02*
X121329009Y-71000000D01*
X121500000Y-61960000D02*
X119614265Y-63845735D01*
X123150000Y-74625000D02*
X124275000Y-73500000D01*
X123150000Y-78000000D02*
X123150000Y-74625000D01*
X119614265Y-63845735D02*
X119154265Y-63845735D01*
X125500000Y-72000000D02*
X125500000Y-69000000D01*
X134500000Y-60500000D02*
X132295000Y-58295000D01*
X119230000Y-64770000D02*
X119000000Y-64770000D01*
X123795000Y-58295000D02*
X123000000Y-57500000D01*
X135000000Y-60500000D02*
X134500000Y-60500000D01*
X124000000Y-58295000D02*
X123795000Y-58295000D01*
X118500000Y-60000000D02*
X120205000Y-58295000D01*
X121500000Y-67040000D02*
X119480000Y-65020000D01*
X137780000Y-63475000D02*
X136475000Y-63475000D01*
X119480000Y-65020000D02*
X119230000Y-64770000D01*
X135500000Y-61000000D02*
X135000000Y-60500000D01*
X124000000Y-58295000D02*
X132295000Y-58295000D01*
X121000000Y-57500000D02*
X120205000Y-58295000D01*
X118500000Y-64000000D02*
X118500000Y-60000000D01*
X118500000Y-64270000D02*
X118500000Y-64000000D01*
X136475000Y-63475000D02*
X136000000Y-63000000D01*
X136875000Y-63475000D02*
X137780000Y-63475000D01*
X123000000Y-57500000D02*
X121000000Y-57500000D01*
X119000000Y-64770000D02*
X118500000Y-64270000D01*
X148500000Y-75080000D02*
X148500000Y-74500000D01*
X147635000Y-73635000D02*
X147130000Y-73635000D01*
X148500000Y-74500000D02*
X147635000Y-73635000D01*
X151920000Y-78500000D02*
X148500000Y-75080000D01*
X148576206Y-73211206D02*
X148576206Y-73423794D01*
X147730000Y-72365000D02*
X148576206Y-73211206D01*
X153460000Y-77500000D02*
X154460000Y-78500000D01*
X152652412Y-77500000D02*
X153460000Y-77500000D01*
X148576206Y-73423794D02*
X152652412Y-77500000D01*
X147130000Y-72365000D02*
X147730000Y-72365000D01*
X147730000Y-71095000D02*
X147130000Y-71095000D01*
X154500000Y-76500000D02*
X153135000Y-76500000D01*
X153135000Y-76500000D02*
X147730000Y-71095000D01*
D31*
X157000000Y-78500000D02*
X156500000Y-78500000D01*
D32*
X156500000Y-78500000D02*
X154500000Y-76500000D01*
X151000000Y-56500000D02*
X145100000Y-56500000D01*
X156000000Y-51500000D02*
X151500000Y-56000000D01*
X143500000Y-65500000D02*
X145285000Y-67285000D01*
X145285000Y-67285000D02*
X147130000Y-67285000D01*
X143500000Y-58100000D02*
X143500000Y-65500000D01*
X151500000Y-56000000D02*
X151000000Y-56500000D01*
X144500000Y-57100000D02*
X143500000Y-58100000D01*
X145100000Y-56500000D02*
X144500000Y-57100000D01*
D31*
X138380000Y-71095000D02*
X137780000Y-71095000D01*
D32*
X139500000Y-76500000D02*
X139005000Y-76995000D01*
X137500000Y-78500000D02*
X139005000Y-76995000D01*
X139500000Y-76500000D02*
X139500000Y-72215000D01*
X138380000Y-71095000D02*
X139285000Y-72000000D01*
X139500000Y-72215000D02*
X139285000Y-72000000D01*
X134000000Y-71500000D02*
X134500000Y-72000000D01*
X127000000Y-64000000D02*
X127000000Y-69500000D01*
X127000000Y-69500000D02*
X127625000Y-70125000D01*
X137500000Y-76000000D02*
X137780000Y-75720000D01*
X132000000Y-71500000D02*
X134000000Y-71500000D01*
X136500000Y-76000000D02*
X137500000Y-76000000D01*
X134500000Y-74000000D02*
X135000000Y-74500000D01*
X137780000Y-75720000D02*
X137780000Y-74905000D01*
X129000000Y-71500000D02*
X132000000Y-71500000D01*
X127625000Y-70125000D02*
X129000000Y-71500000D01*
X126250000Y-63250000D02*
X127000000Y-64000000D01*
X134500000Y-72000000D02*
X134500000Y-74000000D01*
X140500000Y-60500000D02*
X140500000Y-69500000D01*
X139500000Y-70500000D02*
X140100000Y-69900000D01*
X140015000Y-60015000D02*
X140500000Y-60500000D01*
X130000000Y-70500000D02*
X130500000Y-70500000D01*
X128500000Y-69000000D02*
X130000000Y-70500000D01*
X140000000Y-60015000D02*
X138380000Y-58395000D01*
X140500000Y-69500000D02*
X140100000Y-69900000D01*
D31*
X138380000Y-58395000D02*
X137780000Y-58395000D01*
D32*
X140100000Y-60115000D02*
X140000000Y-60015000D01*
D31*
X140000000Y-60015000D02*
X140015000Y-60015000D01*
D32*
X130500000Y-70500000D02*
X136000000Y-70500000D01*
X157000000Y-64500000D02*
X157500000Y-64500000D01*
X160600000Y-66000000D02*
X164990000Y-61610000D01*
X159000000Y-66000000D02*
X160040000Y-66000000D01*
X160040000Y-66000000D02*
X160600000Y-66000000D01*
X155975000Y-63475000D02*
X147130000Y-63475000D01*
X157000000Y-64500000D02*
X155975000Y-63475000D01*
X145730000Y-57770000D02*
X144400000Y-59100000D01*
X154350000Y-54150000D02*
X154510000Y-53990000D01*
X146000000Y-57500000D02*
X151000000Y-57500000D01*
X154510000Y-53990000D02*
X162450000Y-53990000D01*
X145745000Y-64745000D02*
X147130000Y-64745000D01*
X144400000Y-63400000D02*
X145745000Y-64745000D01*
X151000000Y-57500000D02*
X154350000Y-54150000D01*
X144400000Y-59100000D02*
X144400000Y-63400000D01*
X145730000Y-57770000D02*
X146000000Y-57500000D01*
M02*
