G04 #@! TF.GenerationSoftware,KiCad,Pcbnew,8.0.7*
G04 #@! TF.CreationDate,2025-01-30T16:18:45+01:00*
G04 #@! TF.ProjectId,schematics,73636865-6d61-4746-9963-732e6b696361,rev?*
G04 #@! TF.SameCoordinates,Original*
G04 #@! TF.FileFunction,Paste,Top*
G04 #@! TF.FilePolarity,Positive*
%FSLAX46Y46*%
G04 Gerber Fmt 4.6, Leading zero omitted, Abs format (unit mm)*
G04 Created by KiCad (PCBNEW 8.0.7) date 2025-01-30 16:18:45*
%MOMM*%
%LPD*%
G01*
G04 APERTURE LIST*
G04 Aperture macros list*
%AMRoundRect*
0 Rectangle with rounded corners*
0 $1 Rounding radius*
0 $2 $3 $4 $5 $6 $7 $8 $9 X,Y pos of 4 corners*
0 Add a 4 corners polygon primitive as box body*
4,1,4,$2,$3,$4,$5,$6,$7,$8,$9,$2,$3,0*
0 Add four circle primitives for the rounded corners*
1,1,$1+$1,$2,$3*
1,1,$1+$1,$4,$5*
1,1,$1+$1,$6,$7*
1,1,$1+$1,$8,$9*
0 Add four rect primitives between the rounded corners*
20,1,$1+$1,$2,$3,$4,$5,0*
20,1,$1+$1,$4,$5,$6,$7,0*
20,1,$1+$1,$6,$7,$8,$9,0*
20,1,$1+$1,$8,$9,$2,$3,0*%
G04 Aperture macros list end*
%ADD10R,0.470000X0.440000*%
%ADD11R,1.450000X1.150000*%
%ADD12R,1.150000X1.450000*%
%ADD13R,1.150000X1.700000*%
%ADD14RoundRect,0.180000X0.180000X0.230000X-0.180000X0.230000X-0.180000X-0.230000X0.180000X-0.230000X0*%
%ADD15R,0.620000X0.620000*%
%ADD16R,1.850000X2.750000*%
%ADD17R,1.250000X1.500000*%
%ADD18RoundRect,0.222500X-0.222500X-0.382500X0.222500X-0.382500X0.222500X0.382500X-0.222500X0.382500X0*%
%ADD19RoundRect,0.100000X-0.225000X-0.100000X0.225000X-0.100000X0.225000X0.100000X-0.225000X0.100000X0*%
%ADD20R,1.850000X0.650000*%
G04 APERTURE END LIST*
D10*
X132465000Y-69750000D03*
X133135000Y-69750000D03*
D11*
X150500000Y-69400000D03*
X150500000Y-67600000D03*
D12*
X143900000Y-78000000D03*
X142100000Y-78000000D03*
D11*
X153500000Y-59850000D03*
X153500000Y-58050000D03*
D13*
X125500000Y-69000000D03*
X128500000Y-69000000D03*
D14*
X132924000Y-66000000D03*
X132924000Y-64726000D03*
X131950000Y-64726000D03*
X131950000Y-66000000D03*
D15*
X150500000Y-59450000D03*
X150500000Y-58550000D03*
D16*
X143500000Y-55100000D03*
X143500000Y-50900000D03*
D17*
X127725000Y-73500000D03*
X124275000Y-73500000D03*
D16*
X132000000Y-55100000D03*
X132000000Y-50900000D03*
D11*
X153000000Y-72700000D03*
X153000000Y-74500000D03*
D15*
X132250000Y-72850000D03*
X132250000Y-73750000D03*
X128950000Y-78000000D03*
X128050000Y-78000000D03*
D10*
X130885000Y-60000000D03*
X130215000Y-60000000D03*
D11*
X156750000Y-69400000D03*
X156750000Y-67600000D03*
D18*
X137500000Y-51500000D03*
X137500000Y-53000000D03*
X138600000Y-51500000D03*
X138600000Y-53000000D03*
D19*
X136400000Y-51050000D03*
X136400000Y-51850000D03*
X136400000Y-52650000D03*
X136400000Y-53450000D03*
X139700000Y-53450000D03*
X139700000Y-52650000D03*
X139700000Y-51850000D03*
X139700000Y-51050000D03*
D15*
X153500000Y-69400000D03*
X153500000Y-68500000D03*
X156750000Y-72600000D03*
X156750000Y-73500000D03*
D20*
X137780000Y-58395000D03*
X137780000Y-59665000D03*
X137780000Y-60935000D03*
X137780000Y-62205000D03*
X137780000Y-63475000D03*
X137780000Y-64745000D03*
X137780000Y-66015000D03*
X137780000Y-67285000D03*
X137780000Y-68555000D03*
X137780000Y-69825000D03*
X137780000Y-71095000D03*
X137780000Y-72365000D03*
X137780000Y-73635000D03*
X137780000Y-74905000D03*
X147130000Y-74905000D03*
X147130000Y-73635000D03*
X147130000Y-72365000D03*
X147130000Y-71095000D03*
X147130000Y-69825000D03*
X147130000Y-68555000D03*
X147130000Y-67285000D03*
X147130000Y-66015000D03*
X147130000Y-64745000D03*
X147130000Y-63475000D03*
X147130000Y-62205000D03*
X147130000Y-60935000D03*
X147130000Y-59665000D03*
X147130000Y-58395000D03*
M02*
