M48
; DRILL file {KiCad 8.0.7} date 2025-01-30T16:20:38+0100
; FORMAT={-:-/ absolute / metric / decimal}
; #@! TF.CreationDate,2025-01-30T16:20:38+01:00
; #@! TF.GenerationSoftware,Kicad,Pcbnew,8.0.7
; #@! TF.FileFunction,Plated,1,2,PTH
FMAT,2
METRIC
; #@! TA.AperFunction,Plated,PTH,ViaDrill
T1C0.300
; #@! TA.AperFunction,Plated,PTH,ComponentDrill
T2C0.700
; #@! TA.AperFunction,Plated,PTH,ComponentDrill
T3C0.800
; #@! TA.AperFunction,Plated,PTH,ComponentDrill
T4C1.100
; #@! TA.AperFunction,Plated,PTH,ViaDrill
T5C2.000
%
G90
G05
T1
X119.0Y-65.5
X119.154Y-63.846
X126.35Y-65.0
X127.65Y-65.0
X129.5Y-60.0
X130.0Y-50.5
X130.0Y-78.0
X131.0Y-66.0
X131.5Y-61.0
X131.5Y-63.0
X131.5Y-69.5
X131.5Y-73.0
X131.876Y-59.124
X133.0Y-58.0
X134.0Y-64.5
X135.0Y-52.0
X135.0Y-74.5
X135.433Y-66.933
X135.5Y-49.5
X135.5Y-61.0
X135.5Y-69.0
X136.0Y-63.0
X136.0Y-70.5
X136.5Y-76.0
X139.5Y-67.0
X139.5Y-70.5
X145.0Y-70.0
X145.5Y-50.5
X145.5Y-60.0
X147.0Y-53.5
X150.0Y-70.5
X151.0Y-60.5
X151.5Y-55.0
X152.0Y-53.5
X153.0Y-61.0
X153.0Y-71.5
X153.5Y-56.5
X154.0Y-70.5
X155.5Y-69.5
X155.5Y-72.5
X157.5Y-64.5
X159.0Y-66.0
T2
X125.5Y-51.0
X125.5Y-53.0
X149.5Y-50.21
X149.5Y-52.21
T3
X120.05Y-53.15
X120.05Y-55.15
X123.15Y-78.0
X125.15Y-78.0
X126.25Y-59.25
X126.25Y-61.25
X126.25Y-63.25
X133.5Y-78.5
X135.5Y-78.5
X137.5Y-78.5
X154.0Y-51.5
X156.0Y-51.5
X158.0Y-51.5
X162.45Y-53.99
X162.45Y-56.53
X162.45Y-59.07
X162.45Y-61.61
X164.99Y-53.99
X164.99Y-56.53
X164.99Y-59.07
X164.99Y-61.61
T4
X121.5Y-59.42
X121.5Y-61.96
X121.5Y-64.5
X121.5Y-67.04
X121.5Y-69.58
X149.38Y-78.5
X151.92Y-78.5
X154.46Y-78.5
X157.0Y-78.5
X159.54Y-78.5
T5
X119.95Y-78.5
X120.05Y-50.2
X172.45Y-78.4
X172.55Y-50.4
M30
