G04 #@! TF.GenerationSoftware,KiCad,Pcbnew,8.0.7*
G04 #@! TF.CreationDate,2025-01-30T16:18:45+01:00*
G04 #@! TF.ProjectId,schematics,73636865-6d61-4746-9963-732e6b696361,rev?*
G04 #@! TF.SameCoordinates,Original*
G04 #@! TF.FileFunction,Copper,L2,Bot*
G04 #@! TF.FilePolarity,Positive*
%FSLAX46Y46*%
G04 Gerber Fmt 4.6, Leading zero omitted, Abs format (unit mm)*
G04 Created by KiCad (PCBNEW 8.0.7) date 2025-01-30 16:18:45*
%MOMM*%
%LPD*%
G01*
G04 APERTURE LIST*
G04 #@! TA.AperFunction,ComponentPad*
%ADD10R,1.100000X1.100000*%
G04 #@! TD*
G04 #@! TA.AperFunction,ComponentPad*
%ADD11C,1.100000*%
G04 #@! TD*
G04 #@! TA.AperFunction,ComponentPad*
%ADD12R,1.200000X1.200000*%
G04 #@! TD*
G04 #@! TA.AperFunction,ComponentPad*
%ADD13C,1.200000*%
G04 #@! TD*
G04 #@! TA.AperFunction,ComponentPad*
%ADD14R,1.500000X1.500000*%
G04 #@! TD*
G04 #@! TA.AperFunction,ComponentPad*
%ADD15C,1.500000*%
G04 #@! TD*
G04 #@! TA.AperFunction,ComponentPad*
%ADD16R,1.650000X1.650000*%
G04 #@! TD*
G04 #@! TA.AperFunction,ComponentPad*
%ADD17C,1.650000*%
G04 #@! TD*
G04 #@! TA.AperFunction,ViaPad*
%ADD18C,2.200000*%
G04 #@! TD*
G04 #@! TA.AperFunction,ViaPad*
%ADD19C,0.600000*%
G04 #@! TD*
G04 #@! TA.AperFunction,Conductor*
%ADD20C,0.200000*%
G04 #@! TD*
G04 #@! TA.AperFunction,Conductor*
%ADD21C,0.500000*%
G04 #@! TD*
G04 #@! TA.AperFunction,Conductor*
%ADD22C,0.300000*%
G04 #@! TD*
G04 APERTURE END LIST*
D10*
X149500000Y-52210000D03*
D11*
X149500000Y-50210000D03*
D12*
X154000000Y-51500000D03*
D13*
X156000000Y-51500000D03*
X158000000Y-51500000D03*
D10*
X125500000Y-53000000D03*
D11*
X125500000Y-51000000D03*
D14*
X164990000Y-53990000D03*
D15*
X164990000Y-56530000D03*
X164990000Y-59070000D03*
X164990000Y-61610000D03*
X162450000Y-53990000D03*
X162450000Y-56530000D03*
X162450000Y-59070000D03*
X162450000Y-61610000D03*
D16*
X149380000Y-78500000D03*
D17*
X151920000Y-78500000D03*
X154460000Y-78500000D03*
X157000000Y-78500000D03*
X159540000Y-78500000D03*
D12*
X120050000Y-53150000D03*
D13*
X120050000Y-55150000D03*
D12*
X126250000Y-63250000D03*
D13*
X126250000Y-61250000D03*
X126250000Y-59250000D03*
D12*
X125150000Y-78000000D03*
D13*
X123150000Y-78000000D03*
D16*
X121500000Y-59420000D03*
D17*
X121500000Y-61960000D03*
X121500000Y-64500000D03*
X121500000Y-67040000D03*
X121500000Y-69580000D03*
D12*
X137500000Y-78500000D03*
D13*
X135500000Y-78500000D03*
X133500000Y-78500000D03*
D18*
X120050000Y-50200000D03*
X119950000Y-78500000D03*
X172550000Y-50400000D03*
X172450000Y-78400000D03*
D19*
X131500000Y-73000000D03*
X145000000Y-70000000D03*
X153000000Y-61000000D03*
X131000000Y-66000000D03*
X129500000Y-60000000D03*
X151000000Y-60500000D03*
X139500000Y-67000000D03*
X145500000Y-50500000D03*
X154000000Y-70500000D03*
X145500000Y-60000000D03*
X130000000Y-78000000D03*
X134000000Y-64500000D03*
X155500000Y-72500000D03*
X130000000Y-50500000D03*
X131500000Y-69500000D03*
X155500000Y-69500000D03*
X153000000Y-71500000D03*
X150000000Y-70500000D03*
X131875735Y-59124265D03*
X153500000Y-56500000D03*
X133000000Y-58000000D03*
X151500000Y-55000000D03*
X152000000Y-53500000D03*
X147000000Y-53500000D03*
X135500000Y-49500000D03*
X135000000Y-52000000D03*
X135500000Y-69000000D03*
X135433235Y-66933235D03*
X131500000Y-63000000D03*
X131500000Y-61000000D03*
X127650000Y-65000000D03*
X126350000Y-65000000D03*
X119000000Y-65500000D03*
X119154265Y-63845735D03*
X135500000Y-61000000D03*
X136000000Y-63000000D03*
X136500000Y-76000000D03*
X135000000Y-74500000D03*
X139500000Y-70500000D03*
X136000000Y-70500000D03*
X157500000Y-64500000D03*
X159000000Y-66000000D03*
D20*
X149380000Y-78500000D02*
X150000000Y-78500000D01*
D21*
X131875735Y-59124265D02*
X133000000Y-58000000D01*
X153500000Y-56500000D02*
X152000000Y-55000000D01*
X152000000Y-55000000D02*
X151500000Y-55000000D01*
X135000000Y-50000000D02*
X135000000Y-52000000D01*
X147000000Y-53500000D02*
X152000000Y-53500000D01*
X135500000Y-49500000D02*
X135000000Y-50000000D01*
D20*
X135500000Y-67000000D02*
X135433235Y-66933235D01*
D22*
X135500000Y-67000000D02*
X135500000Y-69000000D01*
X131500000Y-63000000D02*
X131500000Y-61000000D01*
X126350000Y-65000000D02*
X127650000Y-65000000D01*
D20*
X119154265Y-65345735D02*
X119000000Y-65500000D01*
D22*
X119154265Y-63845735D02*
X119154265Y-65345735D01*
X136000000Y-61500000D02*
X135500000Y-61000000D01*
X136000000Y-63000000D02*
X136000000Y-61500000D01*
X135000000Y-74500000D02*
X136500000Y-76000000D01*
X136000000Y-70500000D02*
X139500000Y-70500000D01*
X157500000Y-64500000D02*
X159000000Y-66000000D01*
G04 #@! TA.AperFunction,Conductor*
G36*
X119414295Y-48520185D02*
G01*
X119460050Y-48572989D01*
X119469994Y-48642147D01*
X119440969Y-48705703D01*
X119394708Y-48739061D01*
X119321144Y-48769531D01*
X119321141Y-48769533D01*
X119106346Y-48901160D01*
X119106343Y-48901161D01*
X118914776Y-49064776D01*
X118751161Y-49256343D01*
X118751160Y-49256346D01*
X118619533Y-49471140D01*
X118523126Y-49703889D01*
X118464317Y-49948848D01*
X118444551Y-50200000D01*
X118464317Y-50451151D01*
X118523126Y-50696110D01*
X118619533Y-50928859D01*
X118751160Y-51143653D01*
X118751161Y-51143656D01*
X118770166Y-51165908D01*
X118914776Y-51335224D01*
X119011301Y-51417664D01*
X119106343Y-51498838D01*
X119106345Y-51498838D01*
X119126661Y-51511288D01*
X119321140Y-51630466D01*
X119539944Y-51721097D01*
X119553889Y-51726873D01*
X119798852Y-51785683D01*
X120050000Y-51805449D01*
X120301148Y-51785683D01*
X120546111Y-51726873D01*
X120778859Y-51630466D01*
X120993659Y-51498836D01*
X121185224Y-51335224D01*
X121348836Y-51143659D01*
X121436871Y-51000000D01*
X124444919Y-51000000D01*
X124465191Y-51205834D01*
X124525233Y-51403764D01*
X124600976Y-51545468D01*
X125146446Y-51000000D01*
X125100368Y-50953922D01*
X125150000Y-50953922D01*
X125150000Y-51046078D01*
X125173852Y-51135095D01*
X125219930Y-51214905D01*
X125285095Y-51280070D01*
X125364905Y-51326148D01*
X125453922Y-51350000D01*
X125546078Y-51350000D01*
X125635095Y-51326148D01*
X125714905Y-51280070D01*
X125780070Y-51214905D01*
X125826148Y-51135095D01*
X125850000Y-51046078D01*
X125850000Y-50999999D01*
X125853554Y-50999999D01*
X125853554Y-51000000D01*
X126399023Y-51545469D01*
X126474766Y-51403764D01*
X126534808Y-51205834D01*
X126555080Y-51000000D01*
X126534808Y-50794165D01*
X126474766Y-50596235D01*
X126399022Y-50454530D01*
X125853554Y-50999999D01*
X125850000Y-50999999D01*
X125850000Y-50953922D01*
X125826148Y-50864905D01*
X125780070Y-50785095D01*
X125714905Y-50719930D01*
X125635095Y-50673852D01*
X125546078Y-50650000D01*
X125453922Y-50650000D01*
X125364905Y-50673852D01*
X125285095Y-50719930D01*
X125219930Y-50785095D01*
X125173852Y-50864905D01*
X125150000Y-50953922D01*
X125100368Y-50953922D01*
X124600976Y-50454530D01*
X124600975Y-50454530D01*
X124525233Y-50596233D01*
X124465191Y-50794165D01*
X124444919Y-51000000D01*
X121436871Y-51000000D01*
X121480466Y-50928859D01*
X121576873Y-50696111D01*
X121635683Y-50451148D01*
X121655449Y-50200000D01*
X121647655Y-50100975D01*
X124954530Y-50100975D01*
X124954530Y-50100976D01*
X125500000Y-50646446D01*
X125500001Y-50646446D01*
X126045468Y-50100976D01*
X125903764Y-50025233D01*
X125705834Y-49965191D01*
X125500000Y-49944919D01*
X125294165Y-49965191D01*
X125096233Y-50025233D01*
X124954530Y-50100975D01*
X121647655Y-50100975D01*
X121635683Y-49948852D01*
X121576873Y-49703889D01*
X121552277Y-49644508D01*
X121480466Y-49471140D01*
X121348839Y-49256346D01*
X121348838Y-49256343D01*
X121263782Y-49156756D01*
X121185224Y-49064776D01*
X121058571Y-48956604D01*
X120993656Y-48901161D01*
X120993653Y-48901160D01*
X120778858Y-48769533D01*
X120778855Y-48769531D01*
X120705292Y-48739061D01*
X120650888Y-48695220D01*
X120628823Y-48628926D01*
X120646102Y-48561227D01*
X120697239Y-48513616D01*
X120752744Y-48500500D01*
X135202886Y-48500500D01*
X135269925Y-48520185D01*
X135315680Y-48572989D01*
X135325624Y-48642147D01*
X135296599Y-48705703D01*
X135243840Y-48741542D01*
X135150478Y-48774210D01*
X134997737Y-48870184D01*
X134870184Y-48997737D01*
X134774211Y-49150478D01*
X134771188Y-49156756D01*
X134769362Y-49155876D01*
X134746694Y-49191937D01*
X134417047Y-49521585D01*
X134382080Y-49573916D01*
X134382081Y-49573917D01*
X134334913Y-49644508D01*
X134278343Y-49781082D01*
X134278340Y-49781092D01*
X134249500Y-49926079D01*
X134249500Y-51700028D01*
X134242542Y-51740982D01*
X134214631Y-51820747D01*
X134194435Y-51999996D01*
X134194435Y-52000003D01*
X134214630Y-52179249D01*
X134214631Y-52179254D01*
X134274211Y-52349523D01*
X134361786Y-52488897D01*
X134370184Y-52502262D01*
X134497738Y-52629816D01*
X134572848Y-52677011D01*
X134632721Y-52714632D01*
X134650478Y-52725789D01*
X134730509Y-52753793D01*
X134820745Y-52785368D01*
X134820750Y-52785369D01*
X134999996Y-52805565D01*
X135000000Y-52805565D01*
X135000004Y-52805565D01*
X135179249Y-52785369D01*
X135179252Y-52785368D01*
X135179255Y-52785368D01*
X135349522Y-52725789D01*
X135502262Y-52629816D01*
X135629816Y-52502262D01*
X135725789Y-52349522D01*
X135785368Y-52179255D01*
X135788904Y-52147872D01*
X135805565Y-52000003D01*
X135805565Y-51999996D01*
X135791226Y-51872741D01*
X135785368Y-51820745D01*
X135757458Y-51740982D01*
X135750500Y-51700028D01*
X135750500Y-50362230D01*
X135770185Y-50295191D01*
X135786819Y-50274549D01*
X135808061Y-50253307D01*
X135844130Y-50230647D01*
X135843246Y-50228811D01*
X135849518Y-50225790D01*
X135849522Y-50225789D01*
X135874650Y-50210000D01*
X148444919Y-50210000D01*
X148465191Y-50415834D01*
X148525233Y-50613764D01*
X148600976Y-50755468D01*
X149146446Y-50210000D01*
X149100368Y-50163922D01*
X149150000Y-50163922D01*
X149150000Y-50256078D01*
X149173852Y-50345095D01*
X149219930Y-50424905D01*
X149285095Y-50490070D01*
X149364905Y-50536148D01*
X149453922Y-50560000D01*
X149546078Y-50560000D01*
X149635095Y-50536148D01*
X149714905Y-50490070D01*
X149780070Y-50424905D01*
X149826148Y-50345095D01*
X149850000Y-50256078D01*
X149850000Y-50209999D01*
X149853554Y-50209999D01*
X149853554Y-50210000D01*
X150399023Y-50755469D01*
X150474766Y-50613764D01*
X150534808Y-50415834D01*
X150555080Y-50210000D01*
X150534808Y-50004165D01*
X150474766Y-49806235D01*
X150399022Y-49664530D01*
X149853554Y-50209999D01*
X149850000Y-50209999D01*
X149850000Y-50163922D01*
X149826148Y-50074905D01*
X149780070Y-49995095D01*
X149714905Y-49929930D01*
X149635095Y-49883852D01*
X149546078Y-49860000D01*
X149453922Y-49860000D01*
X149364905Y-49883852D01*
X149285095Y-49929930D01*
X149219930Y-49995095D01*
X149173852Y-50074905D01*
X149150000Y-50163922D01*
X149100368Y-50163922D01*
X148600976Y-49664530D01*
X148600975Y-49664530D01*
X148525233Y-49806233D01*
X148465191Y-50004165D01*
X148444919Y-50210000D01*
X135874650Y-50210000D01*
X136002262Y-50129816D01*
X136129816Y-50002262D01*
X136225789Y-49849522D01*
X136285368Y-49679255D01*
X136285369Y-49679249D01*
X136305565Y-49500003D01*
X136305565Y-49499996D01*
X136285369Y-49320750D01*
X136285368Y-49320745D01*
X136281949Y-49310975D01*
X148954530Y-49310975D01*
X148954530Y-49310976D01*
X149500000Y-49856446D01*
X149500001Y-49856446D01*
X150045468Y-49310976D01*
X149903764Y-49235233D01*
X149705834Y-49175191D01*
X149500000Y-49154919D01*
X149294165Y-49175191D01*
X149096233Y-49235233D01*
X148954530Y-49310975D01*
X136281949Y-49310975D01*
X136234436Y-49175191D01*
X136225789Y-49150478D01*
X136129816Y-48997738D01*
X136002262Y-48870184D01*
X135849521Y-48774210D01*
X135756160Y-48741542D01*
X135699383Y-48700820D01*
X135673636Y-48635867D01*
X135687092Y-48567306D01*
X135735479Y-48516903D01*
X135797114Y-48500500D01*
X174375500Y-48500500D01*
X174442539Y-48520185D01*
X174488294Y-48572989D01*
X174499500Y-48624500D01*
X174499500Y-80375500D01*
X174479815Y-80442539D01*
X174427011Y-80488294D01*
X174375500Y-80499500D01*
X118124500Y-80499500D01*
X118057461Y-80479815D01*
X118011706Y-80427011D01*
X118000500Y-80375500D01*
X118000500Y-78500000D01*
X118344551Y-78500000D01*
X118364317Y-78751151D01*
X118423126Y-78996110D01*
X118519533Y-79228859D01*
X118651160Y-79443653D01*
X118651161Y-79443656D01*
X118690183Y-79489344D01*
X118814776Y-79635224D01*
X118889260Y-79698839D01*
X119006343Y-79798838D01*
X119006346Y-79798839D01*
X119221140Y-79930466D01*
X119453889Y-80026873D01*
X119698852Y-80085683D01*
X119950000Y-80105449D01*
X120201148Y-80085683D01*
X120446111Y-80026873D01*
X120678859Y-79930466D01*
X120893659Y-79798836D01*
X121085224Y-79635224D01*
X121248836Y-79443659D01*
X121380466Y-79228859D01*
X121476873Y-78996111D01*
X121535683Y-78751148D01*
X121555449Y-78500000D01*
X121535683Y-78248852D01*
X121476873Y-78003889D01*
X121475262Y-77999999D01*
X122044785Y-77999999D01*
X122044785Y-78000000D01*
X122063602Y-78203082D01*
X122119417Y-78399247D01*
X122119422Y-78399260D01*
X122210327Y-78581821D01*
X122333237Y-78744581D01*
X122483958Y-78881980D01*
X122483960Y-78881982D01*
X122577841Y-78940110D01*
X122657363Y-78989348D01*
X122847544Y-79063024D01*
X123048024Y-79100500D01*
X123048026Y-79100500D01*
X123251974Y-79100500D01*
X123251976Y-79100500D01*
X123452456Y-79063024D01*
X123642637Y-78989348D01*
X123816041Y-78881981D01*
X123908017Y-78798133D01*
X123970818Y-78767518D01*
X124040205Y-78775715D01*
X124094146Y-78820125D01*
X124101673Y-78834698D01*
X124101953Y-78834546D01*
X124106206Y-78842335D01*
X124192452Y-78957544D01*
X124192455Y-78957547D01*
X124307664Y-79043793D01*
X124307671Y-79043797D01*
X124442517Y-79094091D01*
X124442516Y-79094091D01*
X124449444Y-79094835D01*
X124502127Y-79100500D01*
X125797872Y-79100499D01*
X125857483Y-79094091D01*
X125992331Y-79043796D01*
X126107546Y-78957546D01*
X126193796Y-78842331D01*
X126244091Y-78707483D01*
X126250500Y-78647873D01*
X126250500Y-78499999D01*
X132395287Y-78499999D01*
X132395287Y-78500000D01*
X132414096Y-78702989D01*
X132414097Y-78702992D01*
X132469883Y-78899063D01*
X132469886Y-78899069D01*
X132560751Y-79081551D01*
X132562533Y-79083911D01*
X133100000Y-78546445D01*
X133100000Y-78552661D01*
X133127259Y-78654394D01*
X133179920Y-78745606D01*
X133254394Y-78820080D01*
X133345606Y-78872741D01*
X133447339Y-78900000D01*
X133453553Y-78900000D01*
X132919311Y-79434240D01*
X133007585Y-79488897D01*
X133197678Y-79562539D01*
X133398072Y-79600000D01*
X133601928Y-79600000D01*
X133802322Y-79562539D01*
X133992412Y-79488899D01*
X133992416Y-79488897D01*
X134080686Y-79434241D01*
X134080686Y-79434240D01*
X133546448Y-78900000D01*
X133552661Y-78900000D01*
X133654394Y-78872741D01*
X133745606Y-78820080D01*
X133820080Y-78745606D01*
X133872741Y-78654394D01*
X133900000Y-78552661D01*
X133900000Y-78546447D01*
X134437465Y-79083912D01*
X134488683Y-79080363D01*
X134556923Y-79095365D01*
X134596210Y-79129339D01*
X134683237Y-79244580D01*
X134833958Y-79381980D01*
X134833960Y-79381982D01*
X134833962Y-79381983D01*
X135007363Y-79489348D01*
X135197544Y-79563024D01*
X135398024Y-79600500D01*
X135398026Y-79600500D01*
X135601974Y-79600500D01*
X135601976Y-79600500D01*
X135802456Y-79563024D01*
X135992637Y-79489348D01*
X136166041Y-79381981D01*
X136258017Y-79298133D01*
X136320818Y-79267518D01*
X136390205Y-79275715D01*
X136444146Y-79320125D01*
X136451673Y-79334698D01*
X136451953Y-79334546D01*
X136456206Y-79342335D01*
X136542452Y-79457544D01*
X136542455Y-79457547D01*
X136657664Y-79543793D01*
X136657671Y-79543797D01*
X136792517Y-79594091D01*
X136792516Y-79594091D01*
X136799444Y-79594835D01*
X136852127Y-79600500D01*
X138147872Y-79600499D01*
X138207483Y-79594091D01*
X138342331Y-79543796D01*
X138457546Y-79457546D01*
X138543796Y-79342331D01*
X138594091Y-79207483D01*
X138600500Y-79147873D01*
X138600499Y-77852128D01*
X138594091Y-77792517D01*
X138586118Y-77771141D01*
X138543797Y-77657671D01*
X138543793Y-77657664D01*
X138520954Y-77627155D01*
X148055000Y-77627155D01*
X148055000Y-78250000D01*
X148889252Y-78250000D01*
X148867482Y-78287708D01*
X148830000Y-78427591D01*
X148830000Y-78572409D01*
X148867482Y-78712292D01*
X148889252Y-78750000D01*
X148055000Y-78750000D01*
X148055000Y-79372844D01*
X148061401Y-79432372D01*
X148061403Y-79432379D01*
X148111645Y-79567086D01*
X148111649Y-79567093D01*
X148197809Y-79682187D01*
X148197812Y-79682190D01*
X148312906Y-79768350D01*
X148312913Y-79768354D01*
X148447620Y-79818596D01*
X148447627Y-79818598D01*
X148507155Y-79824999D01*
X148507172Y-79825000D01*
X149130000Y-79825000D01*
X149130000Y-78990747D01*
X149167708Y-79012518D01*
X149307591Y-79050000D01*
X149452409Y-79050000D01*
X149592292Y-79012518D01*
X149630000Y-78990747D01*
X149630000Y-79825000D01*
X150252828Y-79825000D01*
X150252844Y-79824999D01*
X150312372Y-79818598D01*
X150312379Y-79818596D01*
X150447086Y-79768354D01*
X150447093Y-79768350D01*
X150562187Y-79682190D01*
X150562190Y-79682187D01*
X150648350Y-79567093D01*
X150648354Y-79567086D01*
X150698596Y-79432379D01*
X150700380Y-79424832D01*
X150703160Y-79425488D01*
X150724721Y-79373405D01*
X150782104Y-79333544D01*
X150851929Y-79331035D01*
X150908970Y-79363509D01*
X151064731Y-79519270D01*
X151254718Y-79652301D01*
X151464921Y-79750320D01*
X151688950Y-79810349D01*
X151853985Y-79824787D01*
X151919998Y-79830563D01*
X151920000Y-79830563D01*
X151920002Y-79830563D01*
X151983586Y-79825000D01*
X152151050Y-79810349D01*
X152375079Y-79750320D01*
X152585282Y-79652301D01*
X152775269Y-79519270D01*
X152939270Y-79355269D01*
X153072301Y-79165282D01*
X153077618Y-79153878D01*
X153123790Y-79101440D01*
X153190984Y-79082288D01*
X153257865Y-79102504D01*
X153302381Y-79153878D01*
X153307699Y-79165282D01*
X153440730Y-79355269D01*
X153604731Y-79519270D01*
X153794718Y-79652301D01*
X154004921Y-79750320D01*
X154228950Y-79810349D01*
X154393985Y-79824787D01*
X154459998Y-79830563D01*
X154460000Y-79830563D01*
X154460002Y-79830563D01*
X154523586Y-79825000D01*
X154691050Y-79810349D01*
X154915079Y-79750320D01*
X155125282Y-79652301D01*
X155315269Y-79519270D01*
X155479270Y-79355269D01*
X155612301Y-79165282D01*
X155617618Y-79153878D01*
X155663790Y-79101440D01*
X155730984Y-79082288D01*
X155797865Y-79102504D01*
X155842381Y-79153878D01*
X155847699Y-79165282D01*
X155980730Y-79355269D01*
X156144731Y-79519270D01*
X156334718Y-79652301D01*
X156544921Y-79750320D01*
X156768950Y-79810349D01*
X156933985Y-79824787D01*
X156999998Y-79830563D01*
X157000000Y-79830563D01*
X157000002Y-79830563D01*
X157063586Y-79825000D01*
X157231050Y-79810349D01*
X157455079Y-79750320D01*
X157665282Y-79652301D01*
X157855269Y-79519270D01*
X158019270Y-79355269D01*
X158152301Y-79165282D01*
X158157618Y-79153878D01*
X158203790Y-79101440D01*
X158270984Y-79082288D01*
X158337865Y-79102504D01*
X158382381Y-79153878D01*
X158387699Y-79165282D01*
X158520730Y-79355269D01*
X158684731Y-79519270D01*
X158874718Y-79652301D01*
X159084921Y-79750320D01*
X159308950Y-79810349D01*
X159473985Y-79824787D01*
X159539998Y-79830563D01*
X159540000Y-79830563D01*
X159540002Y-79830563D01*
X159603586Y-79825000D01*
X159771050Y-79810349D01*
X159995079Y-79750320D01*
X160205282Y-79652301D01*
X160395269Y-79519270D01*
X160559270Y-79355269D01*
X160692301Y-79165282D01*
X160790320Y-78955079D01*
X160850349Y-78731050D01*
X160870563Y-78500000D01*
X160861814Y-78400000D01*
X170844551Y-78400000D01*
X170864317Y-78651151D01*
X170923126Y-78896110D01*
X171019533Y-79128859D01*
X171151160Y-79343653D01*
X171151161Y-79343656D01*
X171176090Y-79372844D01*
X171314776Y-79535224D01*
X171431860Y-79635223D01*
X171506343Y-79698838D01*
X171506346Y-79698839D01*
X171721140Y-79830466D01*
X171953889Y-79926873D01*
X172198852Y-79985683D01*
X172450000Y-80005449D01*
X172701148Y-79985683D01*
X172946111Y-79926873D01*
X173178859Y-79830466D01*
X173393659Y-79698836D01*
X173585224Y-79535224D01*
X173748836Y-79343659D01*
X173880466Y-79128859D01*
X173976873Y-78896111D01*
X174035683Y-78651148D01*
X174055449Y-78400000D01*
X174035683Y-78148852D01*
X173976873Y-77903889D01*
X173880466Y-77671140D01*
X173748839Y-77456346D01*
X173748838Y-77456343D01*
X173670632Y-77364776D01*
X173585224Y-77264776D01*
X173413394Y-77118019D01*
X173393656Y-77101161D01*
X173393653Y-77101160D01*
X173178859Y-76969533D01*
X172946110Y-76873126D01*
X172701151Y-76814317D01*
X172450000Y-76794551D01*
X172198848Y-76814317D01*
X171953889Y-76873126D01*
X171721140Y-76969533D01*
X171506346Y-77101160D01*
X171506343Y-77101161D01*
X171314776Y-77264776D01*
X171151161Y-77456343D01*
X171151160Y-77456346D01*
X171019533Y-77671140D01*
X170923126Y-77903889D01*
X170864317Y-78148848D01*
X170844551Y-78400000D01*
X160861814Y-78400000D01*
X160850349Y-78268950D01*
X160790320Y-78044921D01*
X160692301Y-77834719D01*
X160692299Y-77834716D01*
X160692298Y-77834714D01*
X160559273Y-77644735D01*
X160559268Y-77644729D01*
X160395269Y-77480730D01*
X160360242Y-77456204D01*
X160205282Y-77347699D01*
X159995079Y-77249680D01*
X159995076Y-77249679D01*
X159995074Y-77249678D01*
X159771051Y-77189651D01*
X159771044Y-77189650D01*
X159540002Y-77169437D01*
X159539998Y-77169437D01*
X159308955Y-77189650D01*
X159308948Y-77189651D01*
X159084917Y-77249681D01*
X158874718Y-77347699D01*
X158874714Y-77347701D01*
X158684735Y-77480726D01*
X158684729Y-77480731D01*
X158520731Y-77644729D01*
X158520726Y-77644735D01*
X158387701Y-77834714D01*
X158387698Y-77834720D01*
X158382381Y-77846123D01*
X158336207Y-77898562D01*
X158269013Y-77917712D01*
X158202133Y-77897495D01*
X158157619Y-77846123D01*
X158152301Y-77834720D01*
X158152298Y-77834714D01*
X158019273Y-77644735D01*
X158019268Y-77644729D01*
X157855269Y-77480730D01*
X157820242Y-77456204D01*
X157665282Y-77347699D01*
X157455079Y-77249680D01*
X157455076Y-77249679D01*
X157455074Y-77249678D01*
X157231051Y-77189651D01*
X157231044Y-77189650D01*
X157000002Y-77169437D01*
X156999998Y-77169437D01*
X156768955Y-77189650D01*
X156768948Y-77189651D01*
X156544917Y-77249681D01*
X156334718Y-77347699D01*
X156334714Y-77347701D01*
X156144735Y-77480726D01*
X156144729Y-77480731D01*
X155980731Y-77644729D01*
X155980726Y-77644735D01*
X155847701Y-77834714D01*
X155847698Y-77834720D01*
X155842381Y-77846123D01*
X155796207Y-77898562D01*
X155729013Y-77917712D01*
X155662133Y-77897495D01*
X155617619Y-77846123D01*
X155612301Y-77834720D01*
X155612298Y-77834714D01*
X155479273Y-77644735D01*
X155479268Y-77644729D01*
X155315269Y-77480730D01*
X155280242Y-77456204D01*
X155125282Y-77347699D01*
X154915079Y-77249680D01*
X154915076Y-77249679D01*
X154915074Y-77249678D01*
X154691051Y-77189651D01*
X154691044Y-77189650D01*
X154460002Y-77169437D01*
X154459998Y-77169437D01*
X154228955Y-77189650D01*
X154228948Y-77189651D01*
X154004917Y-77249681D01*
X153794718Y-77347699D01*
X153794714Y-77347701D01*
X153604735Y-77480726D01*
X153604729Y-77480731D01*
X153440731Y-77644729D01*
X153440726Y-77644735D01*
X153307701Y-77834714D01*
X153307698Y-77834720D01*
X153302381Y-77846123D01*
X153256207Y-77898562D01*
X153189013Y-77917712D01*
X153122133Y-77897495D01*
X153077619Y-77846123D01*
X153072301Y-77834720D01*
X153072298Y-77834714D01*
X152939273Y-77644735D01*
X152939268Y-77644729D01*
X152775269Y-77480730D01*
X152740242Y-77456204D01*
X152585282Y-77347699D01*
X152375079Y-77249680D01*
X152375076Y-77249679D01*
X152375074Y-77249678D01*
X152151051Y-77189651D01*
X152151044Y-77189650D01*
X151920002Y-77169437D01*
X151919998Y-77169437D01*
X151688955Y-77189650D01*
X151688948Y-77189651D01*
X151464917Y-77249681D01*
X151254718Y-77347699D01*
X151254714Y-77347701D01*
X151064735Y-77480726D01*
X150908970Y-77636491D01*
X150847647Y-77669975D01*
X150777955Y-77664991D01*
X150722022Y-77623119D01*
X150702923Y-77574567D01*
X150700380Y-77575168D01*
X150698596Y-77567620D01*
X150648354Y-77432913D01*
X150648350Y-77432906D01*
X150562190Y-77317812D01*
X150562187Y-77317809D01*
X150447093Y-77231649D01*
X150447086Y-77231645D01*
X150312379Y-77181403D01*
X150312372Y-77181401D01*
X150252844Y-77175000D01*
X149630000Y-77175000D01*
X149630000Y-78009252D01*
X149592292Y-77987482D01*
X149452409Y-77950000D01*
X149307591Y-77950000D01*
X149167708Y-77987482D01*
X149130000Y-78009252D01*
X149130000Y-77175000D01*
X148507155Y-77175000D01*
X148447627Y-77181401D01*
X148447620Y-77181403D01*
X148312913Y-77231645D01*
X148312906Y-77231649D01*
X148197812Y-77317809D01*
X148197809Y-77317812D01*
X148111649Y-77432906D01*
X148111645Y-77432913D01*
X148061403Y-77567620D01*
X148061401Y-77567627D01*
X148055000Y-77627155D01*
X138520954Y-77627155D01*
X138457547Y-77542455D01*
X138457544Y-77542452D01*
X138342335Y-77456206D01*
X138342328Y-77456202D01*
X138207482Y-77405908D01*
X138207483Y-77405908D01*
X138147883Y-77399501D01*
X138147881Y-77399500D01*
X138147873Y-77399500D01*
X138147864Y-77399500D01*
X136852129Y-77399500D01*
X136852123Y-77399501D01*
X136792516Y-77405908D01*
X136657671Y-77456202D01*
X136657664Y-77456206D01*
X136542455Y-77542452D01*
X136542452Y-77542455D01*
X136456206Y-77657664D01*
X136451953Y-77665454D01*
X136449741Y-77664246D01*
X136415840Y-77709511D01*
X136350370Y-77733913D01*
X136282101Y-77719045D01*
X136258015Y-77701864D01*
X136166041Y-77618019D01*
X136166039Y-77618017D01*
X135992642Y-77510655D01*
X135992635Y-77510651D01*
X135852443Y-77456341D01*
X135802456Y-77436976D01*
X135601976Y-77399500D01*
X135398024Y-77399500D01*
X135197544Y-77436976D01*
X135197541Y-77436976D01*
X135197541Y-77436977D01*
X135007364Y-77510651D01*
X135007357Y-77510655D01*
X134833960Y-77618017D01*
X134833958Y-77618019D01*
X134683236Y-77755419D01*
X134596206Y-77870665D01*
X134540097Y-77912300D01*
X134488669Y-77919640D01*
X134437465Y-77916087D01*
X133900000Y-78453552D01*
X133900000Y-78447339D01*
X133872741Y-78345606D01*
X133820080Y-78254394D01*
X133745606Y-78179920D01*
X133654394Y-78127259D01*
X133552661Y-78100000D01*
X133546447Y-78100000D01*
X134080687Y-77565758D01*
X133992413Y-77511101D01*
X133992411Y-77511100D01*
X133802321Y-77437460D01*
X133601928Y-77400000D01*
X133398072Y-77400000D01*
X133197678Y-77437460D01*
X133007588Y-77511100D01*
X133007581Y-77511104D01*
X132919312Y-77565757D01*
X132919311Y-77565758D01*
X133453554Y-78100000D01*
X133447339Y-78100000D01*
X133345606Y-78127259D01*
X133254394Y-78179920D01*
X133179920Y-78254394D01*
X133127259Y-78345606D01*
X133100000Y-78447339D01*
X133100000Y-78453554D01*
X132562533Y-77916087D01*
X132560755Y-77918442D01*
X132560754Y-77918443D01*
X132469886Y-78100930D01*
X132469883Y-78100936D01*
X132414097Y-78297007D01*
X132414096Y-78297010D01*
X132395287Y-78499999D01*
X126250500Y-78499999D01*
X126250499Y-77352128D01*
X126244091Y-77292517D01*
X126233744Y-77264776D01*
X126193797Y-77157671D01*
X126193793Y-77157664D01*
X126107547Y-77042455D01*
X126107544Y-77042452D01*
X125992335Y-76956206D01*
X125992328Y-76956202D01*
X125857482Y-76905908D01*
X125857483Y-76905908D01*
X125797883Y-76899501D01*
X125797881Y-76899500D01*
X125797873Y-76899500D01*
X125797864Y-76899500D01*
X124502129Y-76899500D01*
X124502123Y-76899501D01*
X124442516Y-76905908D01*
X124307671Y-76956202D01*
X124307664Y-76956206D01*
X124192455Y-77042452D01*
X124192452Y-77042455D01*
X124106206Y-77157664D01*
X124101953Y-77165454D01*
X124099741Y-77164246D01*
X124065840Y-77209511D01*
X124000370Y-77233913D01*
X123932101Y-77219045D01*
X123908015Y-77201864D01*
X123816041Y-77118019D01*
X123816039Y-77118017D01*
X123642642Y-77010655D01*
X123642635Y-77010651D01*
X123536496Y-76969533D01*
X123452456Y-76936976D01*
X123251976Y-76899500D01*
X123048024Y-76899500D01*
X122847544Y-76936976D01*
X122847541Y-76936976D01*
X122847541Y-76936977D01*
X122657364Y-77010651D01*
X122657357Y-77010655D01*
X122483960Y-77118017D01*
X122483958Y-77118019D01*
X122333237Y-77255418D01*
X122210327Y-77418178D01*
X122119422Y-77600739D01*
X122119417Y-77600752D01*
X122063602Y-77796917D01*
X122044785Y-77999999D01*
X121475262Y-77999999D01*
X121441371Y-77918179D01*
X121380466Y-77771140D01*
X121248839Y-77556346D01*
X121248838Y-77556343D01*
X121184258Y-77480730D01*
X121085224Y-77364776D01*
X120932003Y-77233913D01*
X120893656Y-77201161D01*
X120893653Y-77201160D01*
X120678859Y-77069533D01*
X120446110Y-76973126D01*
X120201151Y-76914317D01*
X119950000Y-76894551D01*
X119698848Y-76914317D01*
X119453889Y-76973126D01*
X119221140Y-77069533D01*
X119006346Y-77201160D01*
X119006343Y-77201161D01*
X118814776Y-77364776D01*
X118651161Y-77556343D01*
X118651160Y-77556346D01*
X118519533Y-77771140D01*
X118423126Y-78003889D01*
X118364317Y-78248848D01*
X118344551Y-78500000D01*
X118000500Y-78500000D01*
X118000500Y-74499996D01*
X134194435Y-74499996D01*
X134194435Y-74500003D01*
X134214630Y-74679249D01*
X134214631Y-74679254D01*
X134274211Y-74849523D01*
X134370184Y-75002262D01*
X134497738Y-75129816D01*
X134574863Y-75178277D01*
X134632721Y-75214632D01*
X134650478Y-75225789D01*
X134820745Y-75285368D01*
X134827974Y-75286182D01*
X134892388Y-75313246D01*
X134901776Y-75321722D01*
X135678277Y-76098223D01*
X135711762Y-76159546D01*
X135713815Y-76172012D01*
X135714630Y-76179246D01*
X135714632Y-76179255D01*
X135774210Y-76349521D01*
X135870184Y-76502262D01*
X135997738Y-76629816D01*
X136150478Y-76725789D01*
X136320745Y-76785368D01*
X136320750Y-76785369D01*
X136499996Y-76805565D01*
X136500000Y-76805565D01*
X136500004Y-76805565D01*
X136679249Y-76785369D01*
X136679252Y-76785368D01*
X136679255Y-76785368D01*
X136849522Y-76725789D01*
X137002262Y-76629816D01*
X137129816Y-76502262D01*
X137225789Y-76349522D01*
X137285368Y-76179255D01*
X137305565Y-76000000D01*
X137285368Y-75820745D01*
X137225789Y-75650478D01*
X137129816Y-75497738D01*
X137002262Y-75370184D01*
X136849521Y-75274210D01*
X136679255Y-75214632D01*
X136679246Y-75214630D01*
X136672012Y-75213815D01*
X136607600Y-75186744D01*
X136598223Y-75178277D01*
X135821722Y-74401776D01*
X135788237Y-74340453D01*
X135786182Y-74327973D01*
X135785368Y-74320745D01*
X135725789Y-74150478D01*
X135629816Y-73997738D01*
X135502262Y-73870184D01*
X135349523Y-73774211D01*
X135179254Y-73714631D01*
X135179249Y-73714630D01*
X135000004Y-73694435D01*
X134999996Y-73694435D01*
X134820750Y-73714630D01*
X134820745Y-73714631D01*
X134650476Y-73774211D01*
X134497737Y-73870184D01*
X134370184Y-73997737D01*
X134274211Y-74150476D01*
X134214631Y-74320745D01*
X134214630Y-74320750D01*
X134194435Y-74499996D01*
X118000500Y-74499996D01*
X118000500Y-65797114D01*
X118020185Y-65730075D01*
X118072989Y-65684320D01*
X118142147Y-65674376D01*
X118205703Y-65703401D01*
X118241542Y-65756160D01*
X118274210Y-65849521D01*
X118298199Y-65887699D01*
X118370184Y-66002262D01*
X118497738Y-66129816D01*
X118650478Y-66225789D01*
X118820745Y-66285368D01*
X118820750Y-66285369D01*
X118999996Y-66305565D01*
X119000000Y-66305565D01*
X119000004Y-66305565D01*
X119179249Y-66285369D01*
X119179252Y-66285368D01*
X119179255Y-66285368D01*
X119349522Y-66225789D01*
X119502262Y-66129816D01*
X119629816Y-66002262D01*
X119725789Y-65849522D01*
X119785368Y-65679255D01*
X119786467Y-65669506D01*
X119805565Y-65500002D01*
X119805565Y-65500001D01*
X119805310Y-65497737D01*
X119800946Y-65459012D01*
X119802550Y-65420932D01*
X119804765Y-65409804D01*
X119804765Y-64350802D01*
X119823772Y-64284829D01*
X119880053Y-64195259D01*
X119880054Y-64195257D01*
X119939633Y-64024990D01*
X119947239Y-63957483D01*
X119959830Y-63845738D01*
X119959830Y-63845731D01*
X119939634Y-63666485D01*
X119939633Y-63666480D01*
X119926803Y-63629815D01*
X119880054Y-63496213D01*
X119870325Y-63480730D01*
X119787882Y-63349523D01*
X119784081Y-63343473D01*
X119656527Y-63215919D01*
X119598167Y-63179249D01*
X119503788Y-63119946D01*
X119333519Y-63060366D01*
X119333514Y-63060365D01*
X119154269Y-63040170D01*
X119154261Y-63040170D01*
X118975015Y-63060365D01*
X118975010Y-63060366D01*
X118804741Y-63119946D01*
X118652002Y-63215919D01*
X118524449Y-63343472D01*
X118428476Y-63496211D01*
X118368896Y-63666480D01*
X118368895Y-63666485D01*
X118348700Y-63845731D01*
X118348700Y-63845738D01*
X118368895Y-64024984D01*
X118368896Y-64024989D01*
X118428476Y-64195259D01*
X118484758Y-64284829D01*
X118503765Y-64350802D01*
X118503765Y-64812794D01*
X118484080Y-64879833D01*
X118467447Y-64900475D01*
X118370183Y-64997739D01*
X118274209Y-65150480D01*
X118241541Y-65243840D01*
X118200820Y-65300616D01*
X118135867Y-65326363D01*
X118067305Y-65312907D01*
X118016903Y-65264519D01*
X118000500Y-65202885D01*
X118000500Y-61959998D01*
X120169437Y-61959998D01*
X120169437Y-61960001D01*
X120189650Y-62191044D01*
X120189651Y-62191051D01*
X120249678Y-62415074D01*
X120249679Y-62415076D01*
X120249680Y-62415079D01*
X120347699Y-62625282D01*
X120480730Y-62815269D01*
X120644731Y-62979270D01*
X120834718Y-63112301D01*
X120846121Y-63117618D01*
X120898560Y-63163790D01*
X120917712Y-63230984D01*
X120897496Y-63297865D01*
X120846123Y-63342381D01*
X120834720Y-63347698D01*
X120834714Y-63347701D01*
X120644735Y-63480726D01*
X120644729Y-63480731D01*
X120480731Y-63644729D01*
X120480726Y-63644735D01*
X120347701Y-63834714D01*
X120347699Y-63834718D01*
X120249681Y-64044917D01*
X120189651Y-64268948D01*
X120189650Y-64268955D01*
X120169437Y-64499998D01*
X120169437Y-64500001D01*
X120189650Y-64731044D01*
X120189651Y-64731051D01*
X120249678Y-64955074D01*
X120249679Y-64955076D01*
X120249680Y-64955079D01*
X120347699Y-65165282D01*
X120480730Y-65355269D01*
X120644731Y-65519270D01*
X120834718Y-65652301D01*
X120846121Y-65657618D01*
X120898560Y-65703790D01*
X120917712Y-65770984D01*
X120897496Y-65837865D01*
X120846123Y-65882381D01*
X120834720Y-65887698D01*
X120834714Y-65887701D01*
X120644735Y-66020726D01*
X120644729Y-66020731D01*
X120480731Y-66184729D01*
X120480726Y-66184735D01*
X120347701Y-66374714D01*
X120347699Y-66374718D01*
X120249681Y-66584917D01*
X120189651Y-66808948D01*
X120189650Y-66808955D01*
X120169437Y-67039998D01*
X120169437Y-67040001D01*
X120189650Y-67271044D01*
X120189651Y-67271051D01*
X120249678Y-67495074D01*
X120249679Y-67495076D01*
X120249680Y-67495079D01*
X120347699Y-67705282D01*
X120480730Y-67895269D01*
X120644731Y-68059270D01*
X120834718Y-68192301D01*
X120846710Y-68197893D01*
X120899149Y-68244062D01*
X120918303Y-68311255D01*
X120898089Y-68378137D01*
X120846717Y-68422655D01*
X120834974Y-68428131D01*
X120756576Y-68483024D01*
X121329765Y-69056212D01*
X121287708Y-69067482D01*
X121162292Y-69139890D01*
X121059890Y-69242292D01*
X120987482Y-69367708D01*
X120976212Y-69409765D01*
X120403024Y-68836576D01*
X120348131Y-68914974D01*
X120250152Y-69125090D01*
X120250148Y-69125099D01*
X120190147Y-69349031D01*
X120190145Y-69349041D01*
X120169939Y-69579999D01*
X120169939Y-69580000D01*
X120190145Y-69810958D01*
X120190147Y-69810968D01*
X120250148Y-70034900D01*
X120250152Y-70034909D01*
X120348132Y-70245029D01*
X120348133Y-70245031D01*
X120403023Y-70323422D01*
X120403023Y-70323423D01*
X120976212Y-69750234D01*
X120987482Y-69792292D01*
X121059890Y-69917708D01*
X121162292Y-70020110D01*
X121287708Y-70092518D01*
X121329765Y-70103787D01*
X120756575Y-70676975D01*
X120834973Y-70731868D01*
X121045090Y-70829847D01*
X121045099Y-70829851D01*
X121269031Y-70889852D01*
X121269041Y-70889854D01*
X121499999Y-70910061D01*
X121500001Y-70910061D01*
X121730958Y-70889854D01*
X121730968Y-70889852D01*
X121954900Y-70829851D01*
X121954909Y-70829847D01*
X122165030Y-70731867D01*
X122243423Y-70676975D01*
X121670234Y-70103787D01*
X121712292Y-70092518D01*
X121837708Y-70020110D01*
X121940110Y-69917708D01*
X122012518Y-69792292D01*
X122023787Y-69750235D01*
X122596975Y-70323423D01*
X122651867Y-70245030D01*
X122749847Y-70034909D01*
X122749851Y-70034900D01*
X122809852Y-69810968D01*
X122809854Y-69810958D01*
X122830061Y-69580000D01*
X122830061Y-69579999D01*
X122809854Y-69349041D01*
X122809852Y-69349031D01*
X122749851Y-69125099D01*
X122749847Y-69125090D01*
X122651868Y-68914972D01*
X122596974Y-68836576D01*
X122023787Y-69409764D01*
X122012518Y-69367708D01*
X121940110Y-69242292D01*
X121837708Y-69139890D01*
X121712292Y-69067482D01*
X121670233Y-69056212D01*
X122243423Y-68483023D01*
X122165031Y-68428133D01*
X122165027Y-68428131D01*
X122153286Y-68422656D01*
X122100848Y-68376482D01*
X122081697Y-68309289D01*
X122101914Y-68242408D01*
X122153289Y-68197893D01*
X122165282Y-68192301D01*
X122355269Y-68059270D01*
X122519270Y-67895269D01*
X122652301Y-67705282D01*
X122750320Y-67495079D01*
X122810349Y-67271050D01*
X122830563Y-67040000D01*
X122821222Y-66933231D01*
X134627670Y-66933231D01*
X134627670Y-66933238D01*
X134647865Y-67112484D01*
X134647866Y-67112489D01*
X134707446Y-67282758D01*
X134803419Y-67435497D01*
X134813181Y-67445259D01*
X134846666Y-67506582D01*
X134849500Y-67532940D01*
X134849500Y-68494931D01*
X134830494Y-68560903D01*
X134774211Y-68650477D01*
X134774209Y-68650481D01*
X134714633Y-68820737D01*
X134714630Y-68820750D01*
X134694435Y-68999996D01*
X134694435Y-69000003D01*
X134714630Y-69179249D01*
X134714631Y-69179254D01*
X134774211Y-69349523D01*
X134870181Y-69502258D01*
X134870184Y-69502262D01*
X134997738Y-69629816D01*
X135033695Y-69652409D01*
X135132721Y-69714632D01*
X135150478Y-69725789D01*
X135288857Y-69774210D01*
X135327318Y-69787668D01*
X135326373Y-69790367D01*
X135376132Y-69818192D01*
X135408998Y-69879848D01*
X135403313Y-69949486D01*
X135375259Y-69992663D01*
X135370183Y-69997738D01*
X135274211Y-70150476D01*
X135214631Y-70320745D01*
X135214630Y-70320750D01*
X135194435Y-70499996D01*
X135194435Y-70500003D01*
X135214630Y-70679249D01*
X135214631Y-70679254D01*
X135274211Y-70849523D01*
X135299552Y-70889852D01*
X135370184Y-71002262D01*
X135497738Y-71129816D01*
X135650478Y-71225789D01*
X135820739Y-71285366D01*
X135820745Y-71285368D01*
X135820750Y-71285369D01*
X135999996Y-71305565D01*
X136000000Y-71305565D01*
X136000004Y-71305565D01*
X136179249Y-71285369D01*
X136179251Y-71285368D01*
X136179255Y-71285368D01*
X136179258Y-71285366D01*
X136179262Y-71285366D01*
X136269377Y-71253832D01*
X136349522Y-71225789D01*
X136439096Y-71169505D01*
X136505068Y-71150500D01*
X138994932Y-71150500D01*
X139060904Y-71169506D01*
X139150477Y-71225789D01*
X139150481Y-71225790D01*
X139320737Y-71285366D01*
X139320743Y-71285367D01*
X139320745Y-71285368D01*
X139320746Y-71285368D01*
X139320750Y-71285369D01*
X139499996Y-71305565D01*
X139500000Y-71305565D01*
X139500004Y-71305565D01*
X139679249Y-71285369D01*
X139679252Y-71285368D01*
X139679255Y-71285368D01*
X139849522Y-71225789D01*
X140002262Y-71129816D01*
X140129816Y-71002262D01*
X140225789Y-70849522D01*
X140285368Y-70679255D01*
X140305565Y-70500000D01*
X140285368Y-70320745D01*
X140225789Y-70150478D01*
X140129816Y-69997738D01*
X140002262Y-69870184D01*
X139939096Y-69830494D01*
X139849523Y-69774211D01*
X139679254Y-69714631D01*
X139679249Y-69714630D01*
X139500004Y-69694435D01*
X139499996Y-69694435D01*
X139320750Y-69714630D01*
X139320737Y-69714633D01*
X139150481Y-69774209D01*
X139150477Y-69774210D01*
X139060904Y-69830494D01*
X138994932Y-69849500D01*
X136505068Y-69849500D01*
X136439096Y-69830494D01*
X136349522Y-69774210D01*
X136349518Y-69774209D01*
X136172682Y-69712331D01*
X136173622Y-69709644D01*
X136123814Y-69681754D01*
X136090985Y-69620077D01*
X136096713Y-69550442D01*
X136124745Y-69507332D01*
X136129816Y-69502262D01*
X136225789Y-69349522D01*
X136285368Y-69179255D01*
X136285369Y-69179249D01*
X136305565Y-69000003D01*
X136305565Y-68999996D01*
X136285369Y-68820750D01*
X136285366Y-68820737D01*
X136225790Y-68650481D01*
X136225789Y-68650478D01*
X136204008Y-68615814D01*
X136169506Y-68560903D01*
X136150500Y-68494931D01*
X136150500Y-67328184D01*
X136157459Y-67287229D01*
X136163123Y-67271044D01*
X136218603Y-67112490D01*
X136218604Y-67112484D01*
X136238800Y-66933238D01*
X136238800Y-66933231D01*
X136218604Y-66753985D01*
X136218603Y-66753980D01*
X136159024Y-66583713D01*
X136063051Y-66430973D01*
X135935497Y-66303419D01*
X135811950Y-66225789D01*
X135782758Y-66207446D01*
X135612489Y-66147866D01*
X135612484Y-66147865D01*
X135433239Y-66127670D01*
X135433231Y-66127670D01*
X135253985Y-66147865D01*
X135253980Y-66147866D01*
X135083711Y-66207446D01*
X134930972Y-66303419D01*
X134803419Y-66430972D01*
X134707446Y-66583711D01*
X134647866Y-66753980D01*
X134647865Y-66753985D01*
X134627670Y-66933231D01*
X122821222Y-66933231D01*
X122810349Y-66808950D01*
X122750320Y-66584921D01*
X122652301Y-66374719D01*
X122652299Y-66374716D01*
X122652298Y-66374714D01*
X122519273Y-66184735D01*
X122519268Y-66184729D01*
X122355269Y-66020730D01*
X122325668Y-66000003D01*
X122165282Y-65887699D01*
X122153878Y-65882381D01*
X122101440Y-65836210D01*
X122082288Y-65769016D01*
X122102504Y-65702135D01*
X122153878Y-65657618D01*
X122165282Y-65652301D01*
X122355269Y-65519270D01*
X122519270Y-65355269D01*
X122652301Y-65165282D01*
X122750320Y-64955079D01*
X122810349Y-64731050D01*
X122830563Y-64500000D01*
X122810349Y-64268950D01*
X122750320Y-64044921D01*
X122652301Y-63834719D01*
X122652299Y-63834716D01*
X122652298Y-63834714D01*
X122519273Y-63644735D01*
X122519268Y-63644729D01*
X122355269Y-63480730D01*
X122355263Y-63480726D01*
X122165282Y-63347699D01*
X122153878Y-63342381D01*
X122101440Y-63296210D01*
X122082288Y-63229016D01*
X122102504Y-63162135D01*
X122153878Y-63117618D01*
X122165282Y-63112301D01*
X122355269Y-62979270D01*
X122519270Y-62815269D01*
X122652301Y-62625282D01*
X122750320Y-62415079D01*
X122810349Y-62191050D01*
X122830563Y-61960000D01*
X122810349Y-61728950D01*
X122750320Y-61504921D01*
X122652301Y-61294719D01*
X122652299Y-61294716D01*
X122652298Y-61294714D01*
X122620988Y-61249999D01*
X125144785Y-61249999D01*
X125144785Y-61250000D01*
X125163602Y-61453082D01*
X125219417Y-61649247D01*
X125219422Y-61649260D01*
X125259106Y-61728955D01*
X125310327Y-61831821D01*
X125433236Y-61994579D01*
X125440448Y-62001154D01*
X125476729Y-62060864D01*
X125474969Y-62130712D01*
X125435726Y-62188520D01*
X125414729Y-62200626D01*
X125415454Y-62201953D01*
X125407664Y-62206206D01*
X125292455Y-62292452D01*
X125292452Y-62292455D01*
X125206206Y-62407664D01*
X125206202Y-62407671D01*
X125155908Y-62542517D01*
X125152782Y-62571598D01*
X125149501Y-62602123D01*
X125149500Y-62602135D01*
X125149500Y-63897870D01*
X125149501Y-63897876D01*
X125155908Y-63957483D01*
X125206202Y-64092328D01*
X125206206Y-64092335D01*
X125292452Y-64207544D01*
X125292455Y-64207547D01*
X125407664Y-64293793D01*
X125407671Y-64293797D01*
X125452618Y-64310561D01*
X125542517Y-64344091D01*
X125602048Y-64350491D01*
X125666596Y-64377228D01*
X125706444Y-64434621D01*
X125708938Y-64504446D01*
X125693784Y-64539752D01*
X125624211Y-64650476D01*
X125564631Y-64820745D01*
X125564630Y-64820750D01*
X125544435Y-64999996D01*
X125544435Y-65000003D01*
X125564630Y-65179249D01*
X125564631Y-65179254D01*
X125624211Y-65349523D01*
X125693011Y-65459017D01*
X125720184Y-65502262D01*
X125847738Y-65629816D01*
X126000478Y-65725789D01*
X126124014Y-65769016D01*
X126170745Y-65785368D01*
X126170750Y-65785369D01*
X126349996Y-65805565D01*
X126350000Y-65805565D01*
X126350004Y-65805565D01*
X126529249Y-65785369D01*
X126529251Y-65785368D01*
X126529255Y-65785368D01*
X126529258Y-65785366D01*
X126529262Y-65785366D01*
X126629416Y-65750320D01*
X126699522Y-65725789D01*
X126789096Y-65669505D01*
X126855068Y-65650500D01*
X127144932Y-65650500D01*
X127210904Y-65669506D01*
X127300477Y-65725789D01*
X127300481Y-65725790D01*
X127470737Y-65785366D01*
X127470743Y-65785367D01*
X127470745Y-65785368D01*
X127470746Y-65785368D01*
X127470750Y-65785369D01*
X127649996Y-65805565D01*
X127650000Y-65805565D01*
X127650004Y-65805565D01*
X127829249Y-65785369D01*
X127829252Y-65785368D01*
X127829255Y-65785368D01*
X127999522Y-65725789D01*
X128152262Y-65629816D01*
X128279816Y-65502262D01*
X128375789Y-65349522D01*
X128435368Y-65179255D01*
X128435369Y-65179249D01*
X128455565Y-65000003D01*
X128455565Y-64999996D01*
X128435369Y-64820750D01*
X128435368Y-64820745D01*
X128403980Y-64731044D01*
X128375789Y-64650478D01*
X128281235Y-64499996D01*
X156694435Y-64499996D01*
X156694435Y-64500003D01*
X156714630Y-64679249D01*
X156714631Y-64679254D01*
X156774211Y-64849523D01*
X156867341Y-64997738D01*
X156870184Y-65002262D01*
X156997738Y-65129816D01*
X157030625Y-65150480D01*
X157132721Y-65214632D01*
X157150478Y-65225789D01*
X157320745Y-65285368D01*
X157327974Y-65286182D01*
X157392388Y-65313246D01*
X157401776Y-65321722D01*
X158178277Y-66098223D01*
X158211762Y-66159546D01*
X158213815Y-66172012D01*
X158214630Y-66179246D01*
X158214632Y-66179255D01*
X158274210Y-66349521D01*
X158290043Y-66374719D01*
X158370184Y-66502262D01*
X158497738Y-66629816D01*
X158650478Y-66725789D01*
X158731058Y-66753985D01*
X158820745Y-66785368D01*
X158820750Y-66785369D01*
X158999996Y-66805565D01*
X159000000Y-66805565D01*
X159000004Y-66805565D01*
X159179249Y-66785369D01*
X159179252Y-66785368D01*
X159179255Y-66785368D01*
X159349522Y-66725789D01*
X159502262Y-66629816D01*
X159629816Y-66502262D01*
X159725789Y-66349522D01*
X159785368Y-66179255D01*
X159788905Y-66147865D01*
X159805565Y-66000003D01*
X159805565Y-65999996D01*
X159785369Y-65820750D01*
X159785368Y-65820745D01*
X159767956Y-65770984D01*
X159725789Y-65650478D01*
X159629816Y-65497738D01*
X159502262Y-65370184D01*
X159469379Y-65349522D01*
X159349521Y-65274210D01*
X159179255Y-65214632D01*
X159179246Y-65214630D01*
X159172012Y-65213815D01*
X159107600Y-65186744D01*
X159098223Y-65178277D01*
X158321722Y-64401776D01*
X158288237Y-64340453D01*
X158286182Y-64327973D01*
X158285368Y-64320745D01*
X158225789Y-64150478D01*
X158129816Y-63997738D01*
X158002262Y-63870184D01*
X157849523Y-63774211D01*
X157679254Y-63714631D01*
X157679249Y-63714630D01*
X157500004Y-63694435D01*
X157499996Y-63694435D01*
X157320750Y-63714630D01*
X157320745Y-63714631D01*
X157150476Y-63774211D01*
X156997737Y-63870184D01*
X156870184Y-63997737D01*
X156774211Y-64150476D01*
X156714631Y-64320745D01*
X156714630Y-64320750D01*
X156694435Y-64499996D01*
X128281235Y-64499996D01*
X128279816Y-64497738D01*
X128152262Y-64370184D01*
X128119344Y-64349500D01*
X127999523Y-64274211D01*
X127829254Y-64214631D01*
X127829249Y-64214630D01*
X127650004Y-64194435D01*
X127649996Y-64194435D01*
X127470750Y-64214630D01*
X127470735Y-64214634D01*
X127464288Y-64216890D01*
X127394509Y-64220451D01*
X127333882Y-64185720D01*
X127301657Y-64123726D01*
X127307153Y-64056516D01*
X127344091Y-63957483D01*
X127350500Y-63897873D01*
X127350499Y-62602128D01*
X127344091Y-62542517D01*
X127339667Y-62530656D01*
X127293797Y-62407671D01*
X127293793Y-62407664D01*
X127207547Y-62292455D01*
X127207544Y-62292452D01*
X127092335Y-62206206D01*
X127084546Y-62201953D01*
X127086238Y-62198852D01*
X127043828Y-62167110D01*
X127019406Y-62101648D01*
X127034252Y-62033374D01*
X127059552Y-62001153D01*
X127066764Y-61994579D01*
X127189673Y-61831821D01*
X127280582Y-61649250D01*
X127336397Y-61453083D01*
X127355215Y-61250000D01*
X127349048Y-61183451D01*
X127336397Y-61046917D01*
X127323047Y-60999996D01*
X130694435Y-60999996D01*
X130694435Y-61000003D01*
X130714630Y-61179249D01*
X130714631Y-61179254D01*
X130774211Y-61349524D01*
X130830493Y-61439094D01*
X130849500Y-61505067D01*
X130849500Y-62494931D01*
X130830494Y-62560903D01*
X130774211Y-62650477D01*
X130774209Y-62650481D01*
X130714633Y-62820737D01*
X130714630Y-62820750D01*
X130694435Y-62999996D01*
X130694435Y-63000003D01*
X130714630Y-63179249D01*
X130714631Y-63179254D01*
X130774211Y-63349523D01*
X130856655Y-63480731D01*
X130870184Y-63502262D01*
X130997738Y-63629816D01*
X131088080Y-63686582D01*
X131132721Y-63714632D01*
X131150478Y-63725789D01*
X131288860Y-63774211D01*
X131320745Y-63785368D01*
X131320750Y-63785369D01*
X131499996Y-63805565D01*
X131500000Y-63805565D01*
X131500004Y-63805565D01*
X131679249Y-63785369D01*
X131679252Y-63785368D01*
X131679255Y-63785368D01*
X131849522Y-63725789D01*
X132002262Y-63629816D01*
X132129816Y-63502262D01*
X132225789Y-63349522D01*
X132285368Y-63179255D01*
X132285369Y-63179249D01*
X132305565Y-63000003D01*
X132305565Y-62999996D01*
X132285369Y-62820750D01*
X132285366Y-62820737D01*
X132225790Y-62650481D01*
X132225789Y-62650478D01*
X132195413Y-62602135D01*
X132169506Y-62560903D01*
X132150500Y-62494931D01*
X132150500Y-61505067D01*
X132169507Y-61439094D01*
X132225788Y-61349524D01*
X132239527Y-61310261D01*
X132285368Y-61179255D01*
X132290514Y-61133583D01*
X132305565Y-61000003D01*
X132305565Y-60999996D01*
X134694435Y-60999996D01*
X134694435Y-61000003D01*
X134714630Y-61179249D01*
X134714631Y-61179254D01*
X134774211Y-61349523D01*
X134870184Y-61502262D01*
X134997738Y-61629816D01*
X135150478Y-61725789D01*
X135266456Y-61766371D01*
X135323230Y-61807091D01*
X135348978Y-61872044D01*
X135349500Y-61883412D01*
X135349500Y-62494931D01*
X135330494Y-62560903D01*
X135274211Y-62650477D01*
X135274209Y-62650481D01*
X135214633Y-62820737D01*
X135214630Y-62820750D01*
X135194435Y-62999996D01*
X135194435Y-63000003D01*
X135214630Y-63179249D01*
X135214631Y-63179254D01*
X135274211Y-63349523D01*
X135356655Y-63480731D01*
X135370184Y-63502262D01*
X135497738Y-63629816D01*
X135588080Y-63686582D01*
X135632721Y-63714632D01*
X135650478Y-63725789D01*
X135788860Y-63774211D01*
X135820745Y-63785368D01*
X135820750Y-63785369D01*
X135999996Y-63805565D01*
X136000000Y-63805565D01*
X136000004Y-63805565D01*
X136179249Y-63785369D01*
X136179252Y-63785368D01*
X136179255Y-63785368D01*
X136349522Y-63725789D01*
X136502262Y-63629816D01*
X136629816Y-63502262D01*
X136725789Y-63349522D01*
X136785368Y-63179255D01*
X136785369Y-63179249D01*
X136805565Y-63000003D01*
X136805565Y-62999996D01*
X136785369Y-62820750D01*
X136785366Y-62820737D01*
X136725790Y-62650481D01*
X136725789Y-62650478D01*
X136695413Y-62602135D01*
X136669506Y-62560903D01*
X136650500Y-62494931D01*
X136650500Y-61435928D01*
X136625502Y-61310261D01*
X136625501Y-61310260D01*
X136625501Y-61310256D01*
X136587574Y-61218692D01*
X136576466Y-61191875D01*
X136572555Y-61186022D01*
X136570839Y-61183453D01*
X136568984Y-61180677D01*
X136505278Y-61085332D01*
X136505272Y-61085325D01*
X136321722Y-60901776D01*
X136288237Y-60840453D01*
X136286182Y-60827973D01*
X136285368Y-60820745D01*
X136225789Y-60650478D01*
X136129816Y-60497738D01*
X136002262Y-60370184D01*
X135974091Y-60352483D01*
X135849523Y-60274211D01*
X135679254Y-60214631D01*
X135679249Y-60214630D01*
X135500004Y-60194435D01*
X135499996Y-60194435D01*
X135320750Y-60214630D01*
X135320745Y-60214631D01*
X135150476Y-60274211D01*
X134997737Y-60370184D01*
X134870184Y-60497737D01*
X134774211Y-60650476D01*
X134714631Y-60820745D01*
X134714630Y-60820750D01*
X134694435Y-60999996D01*
X132305565Y-60999996D01*
X132285369Y-60820750D01*
X132285368Y-60820745D01*
X132279201Y-60803121D01*
X132225789Y-60650478D01*
X132129816Y-60497738D01*
X132002262Y-60370184D01*
X131974091Y-60352483D01*
X131849523Y-60274211D01*
X131679254Y-60214631D01*
X131679249Y-60214630D01*
X131500004Y-60194435D01*
X131499996Y-60194435D01*
X131320750Y-60214630D01*
X131320745Y-60214631D01*
X131150476Y-60274211D01*
X130997737Y-60370184D01*
X130870184Y-60497737D01*
X130774211Y-60650476D01*
X130714631Y-60820745D01*
X130714630Y-60820750D01*
X130694435Y-60999996D01*
X127323047Y-60999996D01*
X127295100Y-60901776D01*
X127280582Y-60850750D01*
X127269240Y-60827973D01*
X127228174Y-60745500D01*
X127189673Y-60668179D01*
X127066764Y-60505421D01*
X127066762Y-60505418D01*
X126916042Y-60368020D01*
X126916041Y-60368019D01*
X126883488Y-60347863D01*
X126836853Y-60295835D01*
X126825592Y-60228145D01*
X126830685Y-60184239D01*
X126296448Y-59650000D01*
X126302661Y-59650000D01*
X126404394Y-59622741D01*
X126495606Y-59570080D01*
X126570080Y-59495606D01*
X126622741Y-59404394D01*
X126650000Y-59302661D01*
X126650000Y-59296447D01*
X127187465Y-59833912D01*
X127189247Y-59831553D01*
X127189248Y-59831551D01*
X127280113Y-59649069D01*
X127280116Y-59649063D01*
X127335902Y-59452992D01*
X127335903Y-59452989D01*
X127354713Y-59250000D01*
X127354713Y-59249999D01*
X127343061Y-59124261D01*
X131070170Y-59124261D01*
X131070170Y-59124268D01*
X131090365Y-59303514D01*
X131090366Y-59303519D01*
X131149946Y-59473788D01*
X131165996Y-59499331D01*
X131245919Y-59626527D01*
X131373473Y-59754081D01*
X131463815Y-59810847D01*
X131500521Y-59833911D01*
X131526213Y-59850054D01*
X131696480Y-59909633D01*
X131696485Y-59909634D01*
X131875731Y-59929830D01*
X131875735Y-59929830D01*
X131875739Y-59929830D01*
X132054984Y-59909634D01*
X132054987Y-59909633D01*
X132054990Y-59909633D01*
X132225257Y-59850054D01*
X132377997Y-59754081D01*
X132505551Y-59626527D01*
X132601524Y-59473787D01*
X132601525Y-59473783D01*
X132604546Y-59467511D01*
X132606390Y-59468399D01*
X132629040Y-59432326D01*
X133308061Y-58753305D01*
X133344134Y-58730655D01*
X133343246Y-58728811D01*
X133349518Y-58725790D01*
X133349522Y-58725789D01*
X133502262Y-58629816D01*
X133629816Y-58502262D01*
X133725789Y-58349522D01*
X133785368Y-58179255D01*
X133785369Y-58179249D01*
X133805565Y-58000003D01*
X133805565Y-57999996D01*
X133785369Y-57820750D01*
X133785368Y-57820745D01*
X133738785Y-57687618D01*
X133725789Y-57650478D01*
X133704817Y-57617102D01*
X133629815Y-57497737D01*
X133502262Y-57370184D01*
X133349523Y-57274211D01*
X133179254Y-57214631D01*
X133179249Y-57214630D01*
X133000004Y-57194435D01*
X132999996Y-57194435D01*
X132820750Y-57214630D01*
X132820745Y-57214631D01*
X132650476Y-57274211D01*
X132497737Y-57370184D01*
X132370184Y-57497737D01*
X132274211Y-57650478D01*
X132271188Y-57656756D01*
X132269362Y-57655876D01*
X132246693Y-57691937D01*
X131567672Y-58370958D01*
X131531611Y-58393627D01*
X131532491Y-58395453D01*
X131526213Y-58398476D01*
X131373472Y-58494449D01*
X131245919Y-58622002D01*
X131149946Y-58774741D01*
X131090366Y-58945010D01*
X131090365Y-58945015D01*
X131070170Y-59124261D01*
X127343061Y-59124261D01*
X127335903Y-59047010D01*
X127335902Y-59047007D01*
X127280116Y-58850936D01*
X127280113Y-58850930D01*
X127189249Y-58668449D01*
X127189247Y-58668447D01*
X127187465Y-58666087D01*
X126650000Y-59203552D01*
X126650000Y-59197339D01*
X126622741Y-59095606D01*
X126570080Y-59004394D01*
X126495606Y-58929920D01*
X126404394Y-58877259D01*
X126302661Y-58850000D01*
X126296447Y-58850000D01*
X126830687Y-58315758D01*
X126742413Y-58261101D01*
X126742411Y-58261100D01*
X126552321Y-58187460D01*
X126351928Y-58150000D01*
X126148072Y-58150000D01*
X125947678Y-58187460D01*
X125757588Y-58261100D01*
X125757581Y-58261104D01*
X125669312Y-58315757D01*
X125669311Y-58315758D01*
X126203554Y-58850000D01*
X126197339Y-58850000D01*
X126095606Y-58877259D01*
X126004394Y-58929920D01*
X125929920Y-59004394D01*
X125877259Y-59095606D01*
X125850000Y-59197339D01*
X125850000Y-59203553D01*
X125312533Y-58666087D01*
X125310755Y-58668442D01*
X125310754Y-58668443D01*
X125219886Y-58850930D01*
X125219883Y-58850936D01*
X125164097Y-59047007D01*
X125164096Y-59047010D01*
X125145287Y-59249999D01*
X125145287Y-59250000D01*
X125164096Y-59452989D01*
X125164097Y-59452992D01*
X125219883Y-59649063D01*
X125219886Y-59649069D01*
X125310751Y-59831551D01*
X125312533Y-59833911D01*
X125850000Y-59296445D01*
X125850000Y-59302661D01*
X125877259Y-59404394D01*
X125929920Y-59495606D01*
X126004394Y-59570080D01*
X126095606Y-59622741D01*
X126197339Y-59650000D01*
X126203553Y-59650000D01*
X125669311Y-60184240D01*
X125674405Y-60228148D01*
X125662577Y-60297009D01*
X125616511Y-60347863D01*
X125583956Y-60368020D01*
X125433237Y-60505418D01*
X125310327Y-60668178D01*
X125219422Y-60850739D01*
X125219417Y-60850752D01*
X125163602Y-61046917D01*
X125144785Y-61249999D01*
X122620988Y-61249999D01*
X122519273Y-61104735D01*
X122519268Y-61104729D01*
X122363965Y-60949426D01*
X122330480Y-60888103D01*
X122335464Y-60818411D01*
X122377336Y-60762478D01*
X122425556Y-60743517D01*
X122424932Y-60740876D01*
X122432479Y-60739092D01*
X122432481Y-60739091D01*
X122432483Y-60739091D01*
X122567331Y-60688796D01*
X122682546Y-60602546D01*
X122768796Y-60487331D01*
X122819091Y-60352483D01*
X122825500Y-60292873D01*
X122825499Y-58547128D01*
X122819091Y-58487517D01*
X122802249Y-58442362D01*
X122768797Y-58352671D01*
X122768793Y-58352664D01*
X122682547Y-58237455D01*
X122682544Y-58237452D01*
X122567335Y-58151206D01*
X122567328Y-58151202D01*
X122432482Y-58100908D01*
X122432483Y-58100908D01*
X122372883Y-58094501D01*
X122372881Y-58094500D01*
X122372873Y-58094500D01*
X122372864Y-58094500D01*
X120627129Y-58094500D01*
X120627123Y-58094501D01*
X120567516Y-58100908D01*
X120432671Y-58151202D01*
X120432664Y-58151206D01*
X120317455Y-58237452D01*
X120317452Y-58237455D01*
X120231206Y-58352664D01*
X120231202Y-58352671D01*
X120180908Y-58487517D01*
X120174501Y-58547116D01*
X120174501Y-58547123D01*
X120174500Y-58547135D01*
X120174500Y-60292870D01*
X120174501Y-60292876D01*
X120180908Y-60352483D01*
X120231202Y-60487328D01*
X120231206Y-60487335D01*
X120317452Y-60602544D01*
X120317455Y-60602547D01*
X120432664Y-60688793D01*
X120432671Y-60688797D01*
X120567517Y-60739091D01*
X120575062Y-60740874D01*
X120574383Y-60743746D01*
X120626162Y-60765196D01*
X120666008Y-60822589D01*
X120668500Y-60892414D01*
X120636035Y-60949426D01*
X120480726Y-61104735D01*
X120347701Y-61294714D01*
X120347699Y-61294718D01*
X120249681Y-61504917D01*
X120189651Y-61728948D01*
X120189650Y-61728955D01*
X120169437Y-61959998D01*
X118000500Y-61959998D01*
X118000500Y-55149999D01*
X118944785Y-55149999D01*
X118944785Y-55150000D01*
X118963602Y-55353082D01*
X119019417Y-55549247D01*
X119019422Y-55549260D01*
X119110327Y-55731821D01*
X119233237Y-55894581D01*
X119383958Y-56031980D01*
X119383960Y-56031982D01*
X119418847Y-56053583D01*
X119557363Y-56139348D01*
X119747544Y-56213024D01*
X119948024Y-56250500D01*
X119948026Y-56250500D01*
X120151974Y-56250500D01*
X120151976Y-56250500D01*
X120352456Y-56213024D01*
X120542637Y-56139348D01*
X120716041Y-56031981D01*
X120844122Y-55915219D01*
X120866762Y-55894581D01*
X120885186Y-55870184D01*
X120989673Y-55731821D01*
X121080582Y-55549250D01*
X121136397Y-55353083D01*
X121155215Y-55150000D01*
X121136397Y-54946917D01*
X121080582Y-54750750D01*
X120989673Y-54568179D01*
X120904735Y-54455703D01*
X120866765Y-54405422D01*
X120866763Y-54405420D01*
X120859135Y-54398466D01*
X120822855Y-54338758D01*
X120824614Y-54268910D01*
X120863857Y-54211102D01*
X120885017Y-54198911D01*
X120884304Y-54197604D01*
X120892093Y-54193350D01*
X121007187Y-54107190D01*
X121007190Y-54107187D01*
X121093350Y-53992093D01*
X121093354Y-53992086D01*
X121143596Y-53857379D01*
X121143598Y-53857372D01*
X121149999Y-53797844D01*
X121150000Y-53797827D01*
X121150000Y-53400000D01*
X120365686Y-53400000D01*
X120370080Y-53395606D01*
X120422741Y-53304394D01*
X120450000Y-53202661D01*
X120450000Y-53097339D01*
X120422741Y-52995606D01*
X120370080Y-52904394D01*
X120365686Y-52900000D01*
X121150000Y-52900000D01*
X121150000Y-52502172D01*
X121149999Y-52502155D01*
X121143598Y-52442627D01*
X121143596Y-52442620D01*
X121128496Y-52402135D01*
X124449500Y-52402135D01*
X124449500Y-53597870D01*
X124449501Y-53597876D01*
X124455908Y-53657483D01*
X124506202Y-53792328D01*
X124506206Y-53792335D01*
X124592452Y-53907544D01*
X124592455Y-53907547D01*
X124707664Y-53993793D01*
X124707671Y-53993797D01*
X124842517Y-54044091D01*
X124842516Y-54044091D01*
X124849444Y-54044835D01*
X124902127Y-54050500D01*
X126097872Y-54050499D01*
X126157483Y-54044091D01*
X126292331Y-53993796D01*
X126407546Y-53907546D01*
X126493796Y-53792331D01*
X126544091Y-53657483D01*
X126550500Y-53597873D01*
X126550500Y-53499996D01*
X146194435Y-53499996D01*
X146194435Y-53500003D01*
X146214630Y-53679249D01*
X146214631Y-53679254D01*
X146274211Y-53849523D01*
X146316931Y-53917511D01*
X146370184Y-54002262D01*
X146497738Y-54129816D01*
X146520939Y-54144394D01*
X146622133Y-54207979D01*
X146650478Y-54225789D01*
X146788860Y-54274211D01*
X146820745Y-54285368D01*
X146820750Y-54285369D01*
X146999996Y-54305565D01*
X147000000Y-54305565D01*
X147000004Y-54305565D01*
X147179249Y-54285369D01*
X147179252Y-54285368D01*
X147179255Y-54285368D01*
X147259017Y-54257457D01*
X147299972Y-54250500D01*
X150818060Y-54250500D01*
X150885099Y-54270185D01*
X150930854Y-54322989D01*
X150940798Y-54392147D01*
X150911773Y-54455703D01*
X150905741Y-54462181D01*
X150870184Y-54497737D01*
X150774211Y-54650476D01*
X150714631Y-54820745D01*
X150714630Y-54820750D01*
X150694435Y-54999996D01*
X150694435Y-55000003D01*
X150714630Y-55179249D01*
X150714631Y-55179254D01*
X150774211Y-55349523D01*
X150794396Y-55381647D01*
X150870184Y-55502262D01*
X150997738Y-55629816D01*
X151088080Y-55686582D01*
X151146236Y-55723124D01*
X151150478Y-55725789D01*
X151267409Y-55766705D01*
X151320745Y-55785368D01*
X151320750Y-55785369D01*
X151499996Y-55805565D01*
X151500000Y-55805565D01*
X151500003Y-55805565D01*
X151660129Y-55787523D01*
X151728951Y-55799577D01*
X151761694Y-55823062D01*
X152746692Y-56808059D01*
X152769358Y-56844125D01*
X152771188Y-56843244D01*
X152774209Y-56849518D01*
X152774211Y-56849522D01*
X152870184Y-57002262D01*
X152997738Y-57129816D01*
X153042018Y-57157639D01*
X153132721Y-57214632D01*
X153150478Y-57225789D01*
X153288860Y-57274211D01*
X153320745Y-57285368D01*
X153320750Y-57285369D01*
X153499996Y-57305565D01*
X153500000Y-57305565D01*
X153500004Y-57305565D01*
X153679249Y-57285369D01*
X153679252Y-57285368D01*
X153679255Y-57285368D01*
X153849522Y-57225789D01*
X154002262Y-57129816D01*
X154129816Y-57002262D01*
X154225789Y-56849522D01*
X154285368Y-56679255D01*
X154302185Y-56530000D01*
X154305565Y-56500003D01*
X154305565Y-56499996D01*
X154285369Y-56320750D01*
X154285368Y-56320745D01*
X154225788Y-56150476D01*
X154151332Y-56031981D01*
X154129816Y-55997738D01*
X154002262Y-55870184D01*
X153849522Y-55774211D01*
X153849518Y-55774209D01*
X153843244Y-55771188D01*
X153844125Y-55769358D01*
X153808059Y-55746692D01*
X152478421Y-54417052D01*
X152478414Y-54417046D01*
X152427521Y-54383041D01*
X152382715Y-54329429D01*
X152374008Y-54260104D01*
X152404162Y-54197077D01*
X152430437Y-54174946D01*
X152502262Y-54129816D01*
X152629816Y-54002262D01*
X152637521Y-53990000D01*
X161194723Y-53990000D01*
X161212839Y-54197077D01*
X161213793Y-54207975D01*
X161213793Y-54207979D01*
X161270422Y-54419322D01*
X161270424Y-54419326D01*
X161270425Y-54419330D01*
X161287386Y-54455703D01*
X161362897Y-54617638D01*
X161362898Y-54617639D01*
X161488402Y-54796877D01*
X161643123Y-54951598D01*
X161822360Y-55077101D01*
X161822361Y-55077102D01*
X161973583Y-55147618D01*
X162026022Y-55193790D01*
X162045174Y-55260984D01*
X162024958Y-55327865D01*
X161973583Y-55372382D01*
X161822361Y-55442898D01*
X161822357Y-55442900D01*
X161643121Y-55568402D01*
X161488402Y-55723121D01*
X161362900Y-55902357D01*
X161362898Y-55902361D01*
X161270426Y-56100668D01*
X161270422Y-56100677D01*
X161213793Y-56312020D01*
X161213793Y-56312024D01*
X161194723Y-56529997D01*
X161194723Y-56530002D01*
X161213793Y-56747975D01*
X161213793Y-56747979D01*
X161270422Y-56959322D01*
X161270424Y-56959326D01*
X161270425Y-56959330D01*
X161290445Y-57002262D01*
X161362897Y-57157638D01*
X161362898Y-57157639D01*
X161488402Y-57336877D01*
X161643123Y-57491598D01*
X161822360Y-57617101D01*
X161822361Y-57617102D01*
X161973583Y-57687618D01*
X162026022Y-57733790D01*
X162045174Y-57800984D01*
X162024958Y-57867865D01*
X161973583Y-57912382D01*
X161822361Y-57982898D01*
X161822357Y-57982900D01*
X161643121Y-58108402D01*
X161488402Y-58263121D01*
X161362900Y-58442357D01*
X161362898Y-58442361D01*
X161270426Y-58640668D01*
X161270422Y-58640677D01*
X161213793Y-58852020D01*
X161213793Y-58852024D01*
X161196735Y-59047007D01*
X161194723Y-59070000D01*
X161210470Y-59249999D01*
X161213793Y-59287975D01*
X161213793Y-59287979D01*
X161270422Y-59499322D01*
X161270424Y-59499326D01*
X161270425Y-59499330D01*
X161292382Y-59546416D01*
X161362897Y-59697638D01*
X161362898Y-59697639D01*
X161488402Y-59876877D01*
X161643123Y-60031598D01*
X161811504Y-60149500D01*
X161822361Y-60157102D01*
X161973583Y-60227618D01*
X162026022Y-60273790D01*
X162045174Y-60340984D01*
X162024958Y-60407865D01*
X161973583Y-60452382D01*
X161822361Y-60522898D01*
X161822357Y-60522900D01*
X161643121Y-60648402D01*
X161488402Y-60803121D01*
X161362900Y-60982357D01*
X161362898Y-60982361D01*
X161270426Y-61180668D01*
X161270422Y-61180677D01*
X161213793Y-61392020D01*
X161213793Y-61392024D01*
X161194723Y-61609997D01*
X161194723Y-61610002D01*
X161198157Y-61649250D01*
X161205129Y-61728950D01*
X161213793Y-61827975D01*
X161213793Y-61827979D01*
X161270422Y-62039322D01*
X161270424Y-62039326D01*
X161270425Y-62039330D01*
X161313037Y-62130712D01*
X161362897Y-62237638D01*
X161362898Y-62237639D01*
X161488402Y-62416877D01*
X161643123Y-62571598D01*
X161822361Y-62697102D01*
X162020670Y-62789575D01*
X162232023Y-62846207D01*
X162414926Y-62862208D01*
X162449998Y-62865277D01*
X162450000Y-62865277D01*
X162450002Y-62865277D01*
X162478254Y-62862805D01*
X162667977Y-62846207D01*
X162879330Y-62789575D01*
X163077639Y-62697102D01*
X163256877Y-62571598D01*
X163411598Y-62416877D01*
X163537102Y-62237639D01*
X163607618Y-62086414D01*
X163653790Y-62033977D01*
X163720984Y-62014825D01*
X163787865Y-62035041D01*
X163832381Y-62086414D01*
X163902898Y-62237639D01*
X164028402Y-62416877D01*
X164183123Y-62571598D01*
X164362361Y-62697102D01*
X164560670Y-62789575D01*
X164772023Y-62846207D01*
X164954926Y-62862208D01*
X164989998Y-62865277D01*
X164990000Y-62865277D01*
X164990002Y-62865277D01*
X165018254Y-62862805D01*
X165207977Y-62846207D01*
X165419330Y-62789575D01*
X165617639Y-62697102D01*
X165796877Y-62571598D01*
X165951598Y-62416877D01*
X166077102Y-62237639D01*
X166169575Y-62039330D01*
X166226207Y-61827977D01*
X166243543Y-61629816D01*
X166245277Y-61610002D01*
X166245277Y-61609997D01*
X166241569Y-61567618D01*
X166226207Y-61392023D01*
X166170321Y-61183453D01*
X166169577Y-61180677D01*
X166169576Y-61180676D01*
X166169575Y-61180670D01*
X166077102Y-60982362D01*
X166077100Y-60982359D01*
X166077099Y-60982357D01*
X165951599Y-60803124D01*
X165887566Y-60739091D01*
X165796877Y-60648402D01*
X165617639Y-60522898D01*
X165466414Y-60452381D01*
X165413977Y-60406210D01*
X165394825Y-60339016D01*
X165415041Y-60272135D01*
X165466414Y-60227618D01*
X165617639Y-60157102D01*
X165796877Y-60031598D01*
X165951598Y-59876877D01*
X166077102Y-59697639D01*
X166169575Y-59499330D01*
X166226207Y-59287977D01*
X166245277Y-59070000D01*
X166243265Y-59047007D01*
X166239537Y-59004394D01*
X166226207Y-58852023D01*
X166177017Y-58668442D01*
X166169577Y-58640677D01*
X166169576Y-58640676D01*
X166169575Y-58640670D01*
X166077102Y-58442362D01*
X166077100Y-58442359D01*
X166077099Y-58442357D01*
X165951599Y-58263124D01*
X165875935Y-58187460D01*
X165796877Y-58108402D01*
X165617639Y-57982898D01*
X165466414Y-57912381D01*
X165413977Y-57866210D01*
X165394825Y-57799016D01*
X165415041Y-57732135D01*
X165466414Y-57687618D01*
X165617639Y-57617102D01*
X165796877Y-57491598D01*
X165951598Y-57336877D01*
X166077102Y-57157639D01*
X166169575Y-56959330D01*
X166226207Y-56747977D01*
X166245277Y-56530000D01*
X166226207Y-56312023D01*
X166169575Y-56100670D01*
X166077102Y-55902362D01*
X166077100Y-55902359D01*
X166077099Y-55902357D01*
X165951599Y-55723124D01*
X165951596Y-55723121D01*
X165796877Y-55568402D01*
X165650022Y-55465573D01*
X165606399Y-55410998D01*
X165599207Y-55341499D01*
X165630729Y-55279145D01*
X165690959Y-55243731D01*
X165721148Y-55240000D01*
X165787828Y-55240000D01*
X165787844Y-55239999D01*
X165847372Y-55233598D01*
X165847379Y-55233596D01*
X165982086Y-55183354D01*
X165982093Y-55183350D01*
X166097187Y-55097190D01*
X166097190Y-55097187D01*
X166183350Y-54982093D01*
X166183354Y-54982086D01*
X166233596Y-54847379D01*
X166233598Y-54847372D01*
X166239999Y-54787844D01*
X166240000Y-54787827D01*
X166240000Y-54240000D01*
X165305686Y-54240000D01*
X165310080Y-54235606D01*
X165362741Y-54144394D01*
X165390000Y-54042661D01*
X165390000Y-53937339D01*
X165362741Y-53835606D01*
X165310080Y-53744394D01*
X165305686Y-53740000D01*
X166240000Y-53740000D01*
X166240000Y-53192172D01*
X166239999Y-53192155D01*
X166233598Y-53132627D01*
X166233596Y-53132620D01*
X166183354Y-52997913D01*
X166183350Y-52997906D01*
X166097190Y-52882812D01*
X166097187Y-52882809D01*
X165982093Y-52796649D01*
X165982086Y-52796645D01*
X165847379Y-52746403D01*
X165847372Y-52746401D01*
X165787844Y-52740000D01*
X165240000Y-52740000D01*
X165240000Y-53674314D01*
X165235606Y-53669920D01*
X165144394Y-53617259D01*
X165042661Y-53590000D01*
X164937339Y-53590000D01*
X164835606Y-53617259D01*
X164744394Y-53669920D01*
X164740000Y-53674314D01*
X164740000Y-52740000D01*
X164192155Y-52740000D01*
X164132627Y-52746401D01*
X164132620Y-52746403D01*
X163997913Y-52796645D01*
X163997906Y-52796649D01*
X163882812Y-52882809D01*
X163882809Y-52882812D01*
X163796649Y-52997906D01*
X163796645Y-52997913D01*
X163746403Y-53132620D01*
X163746401Y-53132627D01*
X163740000Y-53192155D01*
X163740000Y-53258852D01*
X163720315Y-53325891D01*
X163667511Y-53371646D01*
X163598353Y-53381590D01*
X163534797Y-53352565D01*
X163514425Y-53329975D01*
X163411599Y-53183124D01*
X163361095Y-53132620D01*
X163256877Y-53028402D01*
X163077639Y-52902898D01*
X163077640Y-52902898D01*
X163077638Y-52902897D01*
X162921137Y-52829920D01*
X162879330Y-52810425D01*
X162879326Y-52810424D01*
X162879322Y-52810422D01*
X162667977Y-52753793D01*
X162450002Y-52734723D01*
X162449998Y-52734723D01*
X162316516Y-52746401D01*
X162232023Y-52753793D01*
X162232020Y-52753793D01*
X162020677Y-52810422D01*
X162020668Y-52810426D01*
X161822361Y-52902898D01*
X161822357Y-52902900D01*
X161643121Y-53028402D01*
X161488402Y-53183121D01*
X161362900Y-53362357D01*
X161362898Y-53362361D01*
X161270426Y-53560668D01*
X161270422Y-53560677D01*
X161213793Y-53772020D01*
X161213793Y-53772024D01*
X161201937Y-53907547D01*
X161194723Y-53990000D01*
X152637521Y-53990000D01*
X152725789Y-53849522D01*
X152785368Y-53679255D01*
X152787821Y-53657483D01*
X152805565Y-53500003D01*
X152805565Y-53499996D01*
X152785369Y-53320750D01*
X152785368Y-53320745D01*
X152763711Y-53258852D01*
X152725789Y-53150478D01*
X152714572Y-53132627D01*
X152629926Y-52997913D01*
X152629816Y-52997738D01*
X152502262Y-52870184D01*
X152349523Y-52774211D01*
X152179254Y-52714631D01*
X152179249Y-52714630D01*
X152000004Y-52694435D01*
X151999996Y-52694435D01*
X151820750Y-52714630D01*
X151820745Y-52714631D01*
X151740983Y-52742542D01*
X151700028Y-52749500D01*
X150674500Y-52749500D01*
X150607461Y-52729815D01*
X150561706Y-52677011D01*
X150550500Y-52625500D01*
X150550499Y-51612129D01*
X150550498Y-51612123D01*
X150550497Y-51612116D01*
X150545299Y-51563757D01*
X150544091Y-51552516D01*
X150493797Y-51417671D01*
X150493793Y-51417664D01*
X150407547Y-51302455D01*
X150407544Y-51302452D01*
X150292335Y-51216206D01*
X150292328Y-51216202D01*
X150157483Y-51165908D01*
X150139203Y-51163943D01*
X150074653Y-51137203D01*
X150064781Y-51128335D01*
X149788581Y-50852135D01*
X152899500Y-50852135D01*
X152899500Y-52147870D01*
X152899501Y-52147876D01*
X152905908Y-52207483D01*
X152956202Y-52342328D01*
X152956206Y-52342335D01*
X153042452Y-52457544D01*
X153042455Y-52457547D01*
X153157664Y-52543793D01*
X153157671Y-52543797D01*
X153292517Y-52594091D01*
X153292516Y-52594091D01*
X153299444Y-52594835D01*
X153352127Y-52600500D01*
X154647872Y-52600499D01*
X154707483Y-52594091D01*
X154842331Y-52543796D01*
X154957546Y-52457546D01*
X155043796Y-52342331D01*
X155043797Y-52342326D01*
X155048047Y-52334546D01*
X155050262Y-52335755D01*
X155084130Y-52290509D01*
X155149593Y-52266088D01*
X155217867Y-52280937D01*
X155241984Y-52298135D01*
X155333958Y-52381980D01*
X155333960Y-52381982D01*
X155418360Y-52434240D01*
X155507363Y-52489348D01*
X155697544Y-52563024D01*
X155898024Y-52600500D01*
X155898026Y-52600500D01*
X156101974Y-52600500D01*
X156101976Y-52600500D01*
X156302456Y-52563024D01*
X156492637Y-52489348D01*
X156666041Y-52381981D01*
X156816764Y-52244579D01*
X156903794Y-52129333D01*
X156959903Y-52087696D01*
X157011338Y-52080357D01*
X157062533Y-52083911D01*
X157600000Y-51546445D01*
X157600000Y-51552661D01*
X157627259Y-51654394D01*
X157679920Y-51745606D01*
X157754394Y-51820080D01*
X157845606Y-51872741D01*
X157947339Y-51900000D01*
X157953553Y-51900000D01*
X157419311Y-52434240D01*
X157507585Y-52488897D01*
X157697678Y-52562539D01*
X157898072Y-52600000D01*
X158101928Y-52600000D01*
X158302322Y-52562539D01*
X158492412Y-52488899D01*
X158492416Y-52488897D01*
X158580686Y-52434241D01*
X158580686Y-52434240D01*
X158046448Y-51900000D01*
X158052661Y-51900000D01*
X158154394Y-51872741D01*
X158245606Y-51820080D01*
X158320080Y-51745606D01*
X158372741Y-51654394D01*
X158400000Y-51552661D01*
X158400000Y-51546447D01*
X158937465Y-52083912D01*
X158939247Y-52081553D01*
X158939248Y-52081551D01*
X159030113Y-51899069D01*
X159030116Y-51899063D01*
X159085902Y-51702992D01*
X159085903Y-51702989D01*
X159104713Y-51500000D01*
X159104713Y-51499999D01*
X159085903Y-51297010D01*
X159085902Y-51297007D01*
X159030116Y-51100936D01*
X159030113Y-51100930D01*
X158939249Y-50918449D01*
X158939247Y-50918447D01*
X158937465Y-50916087D01*
X158400000Y-51453552D01*
X158400000Y-51447339D01*
X158372741Y-51345606D01*
X158320080Y-51254394D01*
X158245606Y-51179920D01*
X158154394Y-51127259D01*
X158052661Y-51100000D01*
X158046447Y-51100000D01*
X158580687Y-50565758D01*
X158492413Y-50511101D01*
X158492411Y-50511100D01*
X158302321Y-50437460D01*
X158101928Y-50400000D01*
X170944551Y-50400000D01*
X170964317Y-50651151D01*
X171023126Y-50896110D01*
X171119533Y-51128859D01*
X171251160Y-51343653D01*
X171251161Y-51343656D01*
X171306604Y-51408571D01*
X171414776Y-51535224D01*
X171526290Y-51630466D01*
X171606343Y-51698838D01*
X171606345Y-51698838D01*
X171626661Y-51711288D01*
X171821140Y-51830466D01*
X172033276Y-51918335D01*
X172053889Y-51926873D01*
X172298852Y-51985683D01*
X172550000Y-52005449D01*
X172801148Y-51985683D01*
X173046111Y-51926873D01*
X173278859Y-51830466D01*
X173493659Y-51698836D01*
X173685224Y-51535224D01*
X173848836Y-51343659D01*
X173980466Y-51128859D01*
X174076873Y-50896111D01*
X174135683Y-50651148D01*
X174155449Y-50400000D01*
X174135683Y-50148852D01*
X174076873Y-49903889D01*
X173983827Y-49679254D01*
X173980466Y-49671140D01*
X173848839Y-49456346D01*
X173848838Y-49456343D01*
X173733030Y-49320750D01*
X173685224Y-49264776D01*
X173551396Y-49150476D01*
X173493656Y-49101161D01*
X173493653Y-49101160D01*
X173278859Y-48969533D01*
X173046110Y-48873126D01*
X172801151Y-48814317D01*
X172550000Y-48794551D01*
X172298848Y-48814317D01*
X172053889Y-48873126D01*
X171821140Y-48969533D01*
X171606346Y-49101160D01*
X171606343Y-49101161D01*
X171414776Y-49264776D01*
X171251161Y-49456343D01*
X171251160Y-49456346D01*
X171119533Y-49671140D01*
X171023126Y-49903889D01*
X170964317Y-50148848D01*
X170944551Y-50400000D01*
X158101928Y-50400000D01*
X157898072Y-50400000D01*
X157697678Y-50437460D01*
X157507588Y-50511100D01*
X157507581Y-50511104D01*
X157419312Y-50565757D01*
X157419311Y-50565758D01*
X157953554Y-51100000D01*
X157947339Y-51100000D01*
X157845606Y-51127259D01*
X157754394Y-51179920D01*
X157679920Y-51254394D01*
X157627259Y-51345606D01*
X157600000Y-51447339D01*
X157600000Y-51453554D01*
X157062532Y-50916086D01*
X157011352Y-50919645D01*
X156943108Y-50904658D01*
X156903797Y-50870671D01*
X156816762Y-50755418D01*
X156666041Y-50618019D01*
X156666039Y-50618017D01*
X156492642Y-50510655D01*
X156492635Y-50510651D01*
X156397546Y-50473814D01*
X156302456Y-50436976D01*
X156101976Y-50399500D01*
X155898024Y-50399500D01*
X155697544Y-50436976D01*
X155697541Y-50436976D01*
X155697541Y-50436977D01*
X155507364Y-50510651D01*
X155507357Y-50510655D01*
X155333962Y-50618016D01*
X155241984Y-50701865D01*
X155179179Y-50732481D01*
X155109792Y-50724283D01*
X155055853Y-50679873D01*
X155048327Y-50665301D01*
X155048047Y-50665454D01*
X155043793Y-50657664D01*
X154957547Y-50542455D01*
X154957544Y-50542452D01*
X154842335Y-50456206D01*
X154842328Y-50456202D01*
X154707482Y-50405908D01*
X154707483Y-50405908D01*
X154647883Y-50399501D01*
X154647881Y-50399500D01*
X154647873Y-50399500D01*
X154647864Y-50399500D01*
X153352129Y-50399500D01*
X153352123Y-50399501D01*
X153292516Y-50405908D01*
X153157671Y-50456202D01*
X153157664Y-50456206D01*
X153042455Y-50542452D01*
X153042452Y-50542455D01*
X152956206Y-50657664D01*
X152956202Y-50657671D01*
X152905908Y-50792517D01*
X152899501Y-50852116D01*
X152899500Y-50852135D01*
X149788581Y-50852135D01*
X149500001Y-50563554D01*
X149500000Y-50563554D01*
X148935217Y-51128335D01*
X148873894Y-51161820D01*
X148860793Y-51163943D01*
X148842519Y-51165907D01*
X148707671Y-51216202D01*
X148707664Y-51216206D01*
X148592455Y-51302452D01*
X148592452Y-51302455D01*
X148506206Y-51417664D01*
X148506202Y-51417671D01*
X148455908Y-51552517D01*
X148449501Y-51612116D01*
X148449500Y-51612127D01*
X148449500Y-52179255D01*
X148449501Y-52625500D01*
X148429817Y-52692539D01*
X148377013Y-52738294D01*
X148325501Y-52749500D01*
X147299972Y-52749500D01*
X147259017Y-52742542D01*
X147179254Y-52714631D01*
X147179249Y-52714630D01*
X147000004Y-52694435D01*
X146999996Y-52694435D01*
X146820750Y-52714630D01*
X146820745Y-52714631D01*
X146650476Y-52774211D01*
X146497737Y-52870184D01*
X146370184Y-52997737D01*
X146274211Y-53150476D01*
X146214631Y-53320745D01*
X146214630Y-53320750D01*
X146194435Y-53499996D01*
X126550500Y-53499996D01*
X126550499Y-52402128D01*
X126544091Y-52342517D01*
X126524693Y-52290509D01*
X126493797Y-52207671D01*
X126493793Y-52207664D01*
X126407547Y-52092455D01*
X126407544Y-52092452D01*
X126292335Y-52006206D01*
X126292328Y-52006202D01*
X126157483Y-51955908D01*
X126139203Y-51953943D01*
X126074653Y-51927203D01*
X126064781Y-51918335D01*
X125500001Y-51353554D01*
X125500000Y-51353554D01*
X124935217Y-51918335D01*
X124873894Y-51951820D01*
X124860793Y-51953943D01*
X124842519Y-51955907D01*
X124707671Y-52006202D01*
X124707664Y-52006206D01*
X124592455Y-52092452D01*
X124592452Y-52092455D01*
X124506206Y-52207664D01*
X124506202Y-52207671D01*
X124455908Y-52342517D01*
X124449501Y-52402116D01*
X124449501Y-52402123D01*
X124449500Y-52402135D01*
X121128496Y-52402135D01*
X121093354Y-52307913D01*
X121093350Y-52307906D01*
X121007190Y-52192812D01*
X121007187Y-52192809D01*
X120892093Y-52106649D01*
X120892086Y-52106645D01*
X120757379Y-52056403D01*
X120757372Y-52056401D01*
X120697844Y-52050000D01*
X120300000Y-52050000D01*
X120300000Y-52834314D01*
X120295606Y-52829920D01*
X120204394Y-52777259D01*
X120102661Y-52750000D01*
X119997339Y-52750000D01*
X119895606Y-52777259D01*
X119804394Y-52829920D01*
X119800000Y-52834314D01*
X119800000Y-52050000D01*
X119402155Y-52050000D01*
X119342627Y-52056401D01*
X119342620Y-52056403D01*
X119207913Y-52106645D01*
X119207906Y-52106649D01*
X119092812Y-52192809D01*
X119092809Y-52192812D01*
X119006649Y-52307906D01*
X119006645Y-52307913D01*
X118956403Y-52442620D01*
X118956401Y-52442627D01*
X118950000Y-52502155D01*
X118950000Y-52900000D01*
X119734314Y-52900000D01*
X119729920Y-52904394D01*
X119677259Y-52995606D01*
X119650000Y-53097339D01*
X119650000Y-53202661D01*
X119677259Y-53304394D01*
X119729920Y-53395606D01*
X119734314Y-53400000D01*
X118950000Y-53400000D01*
X118950000Y-53797844D01*
X118956401Y-53857372D01*
X118956403Y-53857379D01*
X119006645Y-53992086D01*
X119006649Y-53992093D01*
X119092809Y-54107187D01*
X119092812Y-54107190D01*
X119207906Y-54193350D01*
X119215696Y-54197604D01*
X119214026Y-54200660D01*
X119256577Y-54232500D01*
X119281007Y-54297959D01*
X119266169Y-54366235D01*
X119240866Y-54398465D01*
X119233236Y-54405420D01*
X119110327Y-54568178D01*
X119019422Y-54750739D01*
X119019417Y-54750752D01*
X118963602Y-54946917D01*
X118944785Y-55149999D01*
X118000500Y-55149999D01*
X118000500Y-48624500D01*
X118020185Y-48557461D01*
X118072989Y-48511706D01*
X118124500Y-48500500D01*
X119347256Y-48500500D01*
X119414295Y-48520185D01*
G37*
G04 #@! TD.AperFunction*
M02*
