G04 #@! TF.GenerationSoftware,KiCad,Pcbnew,8.0.7*
G04 #@! TF.CreationDate,2025-01-30T16:18:46+01:00*
G04 #@! TF.ProjectId,schematics,73636865-6d61-4746-9963-732e6b696361,rev?*
G04 #@! TF.SameCoordinates,Original*
G04 #@! TF.FileFunction,Soldermask,Top*
G04 #@! TF.FilePolarity,Negative*
%FSLAX46Y46*%
G04 Gerber Fmt 4.6, Leading zero omitted, Abs format (unit mm)*
G04 Created by KiCad (PCBNEW 8.0.7) date 2025-01-30 16:18:46*
%MOMM*%
%LPD*%
G01*
G04 APERTURE LIST*
G04 Aperture macros list*
%AMRoundRect*
0 Rectangle with rounded corners*
0 $1 Rounding radius*
0 $2 $3 $4 $5 $6 $7 $8 $9 X,Y pos of 4 corners*
0 Add a 4 corners polygon primitive as box body*
4,1,4,$2,$3,$4,$5,$6,$7,$8,$9,$2,$3,0*
0 Add four circle primitives for the rounded corners*
1,1,$1+$1,$2,$3*
1,1,$1+$1,$4,$5*
1,1,$1+$1,$6,$7*
1,1,$1+$1,$8,$9*
0 Add four rect primitives between the rounded corners*
20,1,$1+$1,$2,$3,$4,$5,0*
20,1,$1+$1,$4,$5,$6,$7,0*
20,1,$1+$1,$6,$7,$8,$9,0*
20,1,$1+$1,$8,$9,$2,$3,0*%
G04 Aperture macros list end*
%ADD10R,0.470000X0.440000*%
%ADD11R,1.100000X1.100000*%
%ADD12C,1.100000*%
%ADD13R,1.200000X1.200000*%
%ADD14C,1.200000*%
%ADD15R,1.450000X1.150000*%
%ADD16R,1.150000X1.450000*%
%ADD17R,1.150000X1.700000*%
%ADD18RoundRect,0.102000X-0.750000X0.750000X-0.750000X-0.750000X0.750000X-0.750000X0.750000X0.750000X0*%
%ADD19C,1.704000*%
%ADD20RoundRect,0.180000X0.180000X0.230000X-0.180000X0.230000X-0.180000X-0.230000X0.180000X-0.230000X0*%
%ADD21R,1.650000X1.650000*%
%ADD22C,1.650000*%
%ADD23R,0.620000X0.620000*%
%ADD24R,1.850000X2.750000*%
%ADD25R,1.250000X1.500000*%
%ADD26RoundRect,0.100000X-0.225000X-0.100000X0.225000X-0.100000X0.225000X0.100000X-0.225000X0.100000X0*%
%ADD27R,2.200000X3.000000*%
%ADD28R,1.850000X0.650000*%
G04 APERTURE END LIST*
D10*
X132465000Y-69750000D03*
X133135000Y-69750000D03*
D11*
X149500000Y-52210000D03*
D12*
X149500000Y-50210000D03*
D13*
X154000000Y-51500000D03*
D14*
X156000000Y-51500000D03*
X158000000Y-51500000D03*
D15*
X150500000Y-69400000D03*
X150500000Y-67600000D03*
D16*
X143900000Y-78000000D03*
X142100000Y-78000000D03*
D15*
X153500000Y-59850000D03*
X153500000Y-58050000D03*
D11*
X125500000Y-53000000D03*
D12*
X125500000Y-51000000D03*
D17*
X125500000Y-69000000D03*
X128500000Y-69000000D03*
D18*
X164990000Y-53990000D03*
D19*
X164990000Y-56530000D03*
X164990000Y-59070000D03*
X164990000Y-61610000D03*
X162450000Y-53990000D03*
X162450000Y-56530000D03*
X162450000Y-59070000D03*
X162450000Y-61610000D03*
D20*
X132924000Y-66000000D03*
X132924000Y-64726000D03*
X131950000Y-64726000D03*
X131950000Y-66000000D03*
D21*
X149380000Y-78500000D03*
D22*
X151920000Y-78500000D03*
X154460000Y-78500000D03*
X157000000Y-78500000D03*
X159540000Y-78500000D03*
D23*
X150500000Y-59450000D03*
X150500000Y-58550000D03*
D24*
X143500000Y-55100000D03*
X143500000Y-50900000D03*
D25*
X127725000Y-73500000D03*
X124275000Y-73500000D03*
D24*
X132000000Y-55100000D03*
X132000000Y-50900000D03*
D15*
X153000000Y-72700000D03*
X153000000Y-74500000D03*
D13*
X120050000Y-53150000D03*
D14*
X120050000Y-55150000D03*
D13*
X126250000Y-63250000D03*
D14*
X126250000Y-61250000D03*
X126250000Y-59250000D03*
D13*
X125150000Y-78000000D03*
D14*
X123150000Y-78000000D03*
D21*
X121500000Y-59420000D03*
D22*
X121500000Y-61960000D03*
X121500000Y-64500000D03*
X121500000Y-67040000D03*
X121500000Y-69580000D03*
D23*
X132250000Y-72850000D03*
X132250000Y-73750000D03*
D13*
X137500000Y-78500000D03*
D14*
X135500000Y-78500000D03*
X133500000Y-78500000D03*
D23*
X128950000Y-78000000D03*
X128050000Y-78000000D03*
D10*
X130885000Y-60000000D03*
X130215000Y-60000000D03*
D15*
X156750000Y-69400000D03*
X156750000Y-67600000D03*
D26*
X136400000Y-51050000D03*
X136400000Y-51850000D03*
X136400000Y-52650000D03*
X136400000Y-53450000D03*
X139700000Y-53450000D03*
X139700000Y-52650000D03*
X139700000Y-51850000D03*
X139700000Y-51050000D03*
D27*
X138050000Y-52250000D03*
D23*
X153500000Y-69400000D03*
X153500000Y-68500000D03*
X156750000Y-72600000D03*
X156750000Y-73500000D03*
D28*
X137780000Y-58395000D03*
X137780000Y-59665000D03*
X137780000Y-60935000D03*
X137780000Y-62205000D03*
X137780000Y-63475000D03*
X137780000Y-64745000D03*
X137780000Y-66015000D03*
X137780000Y-67285000D03*
X137780000Y-68555000D03*
X137780000Y-69825000D03*
X137780000Y-71095000D03*
X137780000Y-72365000D03*
X137780000Y-73635000D03*
X137780000Y-74905000D03*
X147130000Y-74905000D03*
X147130000Y-73635000D03*
X147130000Y-72365000D03*
X147130000Y-71095000D03*
X147130000Y-69825000D03*
X147130000Y-68555000D03*
X147130000Y-67285000D03*
X147130000Y-66015000D03*
X147130000Y-64745000D03*
X147130000Y-63475000D03*
X147130000Y-62205000D03*
X147130000Y-60935000D03*
X147130000Y-59665000D03*
X147130000Y-58395000D03*
M02*
